<svg width="17" height="9" viewBox="0 0 17 9" fill="none" xmlns="http://www.w3.org/2000/svg">
<g clip-path="url(#clip0_101_14787)">
<path d="M17 0H0V8.94727H17V0Z" fill="#B22234"/>
<path d="M0 1.03296H17H0ZM17 2.4103H0H17ZM0 3.78765H17H0ZM17 5.16499H0H17ZM0 6.54234H17H0ZM17 7.91968H0H17Z" fill="black"/>
<path d="M17 7.91968H0M0 1.03296H17H0ZM17 2.4103H0H17ZM0 3.78765H17H0ZM17 5.16499H0H17ZM0 6.54234H17H0Z" stroke="white" stroke-width="0.688672" stroke-miterlimit="10"/>
<path d="M6.80109 0H0V4.81706H6.80109V0Z" fill="#3C3B6E"/>
<path d="M0.566612 0.205811L0.728759 0.703185L0.30426 0.397108H0.827141L0.402642 0.705007L0.56479 0.207632L0.566612 0.205811Z" fill="white"/>
<path d="M0.566612 1.16968L0.728759 1.66705L0.30426 1.35915H0.827141L0.402642 1.66705L0.56479 1.16968H0.566612Z" fill="white"/>
<path d="M0.566612 2.1333L0.728759 2.63068L0.30426 2.32278H0.827141L0.402642 2.63068L0.56479 2.1333H0.566612Z" fill="white"/>
<path d="M0.566612 3.09717L0.728759 3.59454L0.30426 3.28664H0.827141L0.402642 3.59454L0.56479 3.09717H0.566612Z" fill="white"/>
<path d="M0.566612 4.06104L0.728759 4.55841L0.30426 4.25051H0.827141L0.402642 4.55841L0.56479 4.06104H0.566612Z" fill="white"/>
<path d="M1.13323 0.688477L1.29538 1.18585L0.87088 0.877953H1.39376L0.969262 1.18585L1.13141 0.688477H1.13323Z" fill="white"/>
<path d="M1.13323 1.65234L1.29538 2.14972L0.87088 1.84182H1.39376L0.969262 2.14972L1.13141 1.65234H1.13323Z" fill="white"/>
<path d="M1.13323 2.61597L1.29538 3.11334L0.87088 2.80544H1.39376L0.969262 3.11334L1.13141 2.61597H1.13323Z" fill="white"/>
<path d="M1.13323 3.57812L1.29538 4.0755L0.87088 3.7676H1.39376L0.969262 4.0755L1.13141 3.57812H1.13323Z" fill="white"/>
<path d="M1.69982 0.205811L1.86197 0.703185L1.43747 0.395287H1.96035L1.53585 0.703185L1.698 0.205811H1.69982Z" fill="white"/>
<path d="M1.69982 1.16968L1.86197 1.66705L1.43747 1.35915H1.96035L1.53585 1.66705L1.698 1.16968H1.69982Z" fill="white"/>
<path d="M1.69982 2.1333L1.86197 2.63068L1.43747 2.32278H1.96035L1.53585 2.63068L1.698 2.1333H1.69982Z" fill="white"/>
<path d="M1.69982 3.09717L1.86197 3.59454L1.43747 3.28664H1.96035L1.53585 3.59454L1.698 3.09717H1.69982Z" fill="white"/>
<path d="M1.69982 4.06104L1.86197 4.55841L1.43747 4.25051H1.96035L1.53585 4.55841L1.698 4.06104H1.69982Z" fill="white"/>
<path d="M2.26641 0.688477L2.42856 1.18585L2.00406 0.877953H2.52694L2.10244 1.18585L2.26459 0.688477H2.26641Z" fill="white"/>
<path d="M2.26641 1.65234L2.42856 2.14972L2.00406 1.84182H2.52694L2.10244 2.14972L2.26459 1.65234H2.26641Z" fill="white"/>
<path d="M2.26641 2.61597L2.42856 3.11334L2.00406 2.80544H2.52694L2.10244 3.11334L2.26459 2.61597H2.26641Z" fill="white"/>
<path d="M2.26641 3.57812L2.42856 4.0755L2.00406 3.7676H2.52694L2.10244 4.0755L2.26459 3.57812H2.26641Z" fill="white"/>
<path d="M2.833 0.205811L2.99515 0.703185L2.57065 0.395287H3.09353L2.66903 0.703185L2.83118 0.205811H2.833Z" fill="white"/>
<path d="M2.833 1.16968L2.99515 1.66705L2.57065 1.35915H3.09353L2.66903 1.66705L2.83118 1.16968H2.833Z" fill="white"/>
<path d="M2.833 2.1333L2.99515 2.63068L2.57065 2.32278H3.09353L2.66903 2.63068L2.83118 2.1333H2.833Z" fill="white"/>
<path d="M2.833 3.09717L2.99515 3.59454L2.57065 3.28664H3.09353L2.66903 3.59454L2.83118 3.09717H2.833Z" fill="white"/>
<path d="M2.833 4.06104L2.99515 4.55841L2.57065 4.25051H3.09353L2.66903 4.55841L2.83118 4.06104H2.833Z" fill="white"/>
<path d="M3.39965 0.688477L3.5618 1.18585L3.1373 0.877953H3.66018L3.23568 1.18585L3.39783 0.688477H3.39965Z" fill="white"/>
<path d="M3.39965 1.65234L3.5618 2.14972L3.1373 1.84182H3.66018L3.23568 2.14972L3.39783 1.65234H3.39965Z" fill="white"/>
<path d="M3.39965 2.61597L3.5618 3.11334L3.1373 2.80544H3.66018L3.23568 3.11334L3.39783 2.61597H3.39965Z" fill="white"/>
<path d="M3.39965 3.57812L3.5618 4.0755L3.1373 3.7676H3.66018L3.23568 4.0755L3.39783 3.57812H3.39965Z" fill="white"/>
<path d="M3.96624 0.205811L4.12839 0.703185L3.70389 0.395287H4.22677L3.80227 0.703185L3.96442 0.205811H3.96624Z" fill="white"/>
<path d="M3.96624 1.16968L4.12839 1.66705L3.70389 1.35915H4.22677L3.80227 1.66705L3.96442 1.16968H3.96624Z" fill="white"/>
<path d="M3.96624 2.1333L4.12839 2.63068L3.70389 2.32278H4.22677L3.80227 2.63068L3.96442 2.1333H3.96624Z" fill="white"/>
<path d="M3.96624 3.09717L4.12839 3.59454L3.70389 3.28664H4.22677L3.80227 3.59454L3.96442 3.09717H3.96624Z" fill="white"/>
<path d="M3.96624 4.06104L4.12839 4.55841L3.70389 4.25051H4.22677L3.80227 4.55841L3.96442 4.06104H3.96624Z" fill="white"/>
<path d="M4.53286 0.688477L4.69501 1.18585L4.27051 0.877953H4.79339L4.36889 1.18585L4.53104 0.688477H4.53286Z" fill="white"/>
<path d="M4.53286 1.65234L4.69501 2.14972L4.27051 1.84182H4.79339L4.36889 2.14972L4.53104 1.65234H4.53286Z" fill="white"/>
<path d="M4.53286 2.61597L4.69501 3.11334L4.27051 2.80544H4.79339L4.36889 3.11334L4.53104 2.61597H4.53286Z" fill="white"/>
<path d="M4.53286 3.57812L4.69501 4.0755L4.27051 3.7676H4.79339L4.36889 4.0755L4.53104 3.57812H4.53286Z" fill="white"/>
<path d="M5.09945 0.205811L5.2616 0.703185L4.8371 0.395287H5.35998L4.93548 0.703185L5.09763 0.205811H5.09945Z" fill="white"/>
<path d="M5.09945 1.16968L5.2616 1.66705L4.8371 1.35915H5.35998L4.93548 1.66705L5.09763 1.16968H5.09945Z" fill="white"/>
<path d="M5.09945 2.1333L5.2616 2.63068L4.8371 2.32278H5.35998L4.93548 2.63068L5.09763 2.1333H5.09945Z" fill="white"/>
<path d="M5.09945 3.09717L5.2616 3.59454L4.8371 3.28664H5.35998L4.93548 3.59454L5.09763 3.09717H5.09945Z" fill="white"/>
<path d="M5.09945 4.06104L5.2616 4.55841L4.8371 4.25051H5.35998L4.93548 4.55841L5.09763 4.06104H5.09945Z" fill="white"/>
<path d="M5.6661 0.688477L5.82825 1.18585L5.40375 0.877953H5.92663L5.50213 1.18585L5.66428 0.688477H5.6661Z" fill="white"/>
<path d="M5.6661 1.65234L5.82825 2.14972L5.40375 1.84182H5.92663L5.50213 2.14972L5.66428 1.65234H5.6661Z" fill="white"/>
<path d="M5.6661 2.61597L5.82825 3.11334L5.40375 2.80544H5.92663L5.50213 3.11334L5.66428 2.61597H5.6661Z" fill="white"/>
<path d="M5.6661 3.57812L5.82825 4.0755L5.40375 3.7676H5.92663L5.50213 4.0755L5.66428 3.57812H5.6661Z" fill="white"/>
<path d="M6.23269 0.205811L6.39484 0.703185L5.97034 0.395287H6.49322L6.06872 0.703185L6.23087 0.205811H6.23269Z" fill="white"/>
<path d="M6.23269 1.16968L6.39484 1.66705L5.97034 1.35915H6.49322L6.06872 1.66705L6.23087 1.16968H6.23269Z" fill="white"/>
<path d="M6.23269 2.1333L6.39484 2.63068L5.97034 2.32278H6.49322L6.06872 2.63068L6.23087 2.1333H6.23269Z" fill="white"/>
<path d="M6.23269 3.09717L6.39484 3.59454L5.97034 3.28664H6.49322L6.06872 3.59454L6.23087 3.09717H6.23269Z" fill="white"/>
<path d="M6.23269 4.06104L6.39484 4.55841L5.97034 4.25051H6.49322L6.06872 4.55841L6.23087 4.06104H6.23269Z" fill="white"/>
</g>
<defs>
<clipPath id="clip0_101_14787">
<rect width="17" height="8.94727" fill="white"/>
</clipPath>
</defs>
</svg>
