<svg width="163" height="57" viewBox="0 0 163 57" fill="none" xmlns="http://www.w3.org/2000/svg">
<g clip-path="url(#clip0_550_3435)">
<path d="M73.5377 5.44321H78.2538L83.4798 13.9633L88.7057 5.44321H93.4218V25.5927H89.0801V12.437L83.4877 21.0459H83.3762L77.8396 12.5258V25.5927H73.5537V5.44321H73.5377Z" fill="#231F20"/>
<path d="M96.2816 17.969V17.9125C96.2816 13.5111 99.3806 9.88498 103.81 9.88498C108.892 9.88498 111.219 13.8826 111.219 18.2597C111.219 18.607 111.187 19.0108 111.163 19.4146H100.568C100.998 21.4013 102.36 22.435 104.288 22.435C105.738 22.435 106.789 21.9747 107.976 20.8521L110.446 23.0649C109.028 24.8497 106.98 25.94 104.224 25.94C99.6514 25.94 96.2737 22.6853 96.2737 17.969H96.2816ZM107.012 16.6768C106.757 14.7225 105.618 13.398 103.802 13.398C101.986 13.398 100.846 14.6902 100.512 16.6768H107.012Z" fill="#231F20"/>
<path d="M113.911 4.57907H118.229V25.5927H113.911V4.57907Z" fill="#231F20"/>
<path d="M121.774 4.57907H126.092V25.5927H121.774V4.57907Z" fill="#231F20"/>
<path d="M128.697 17.969V17.9125C128.697 13.4788 132.218 9.88498 136.958 9.88498C141.698 9.88498 145.163 13.4222 145.163 17.8559V17.9125C145.163 22.3462 141.642 25.94 136.902 25.94C132.162 25.94 128.697 22.4027 128.697 17.969ZM140.909 17.969V17.9125C140.909 15.6351 139.292 13.6484 136.902 13.6484C134.512 13.6484 132.951 15.5785 132.951 17.8479V17.9044C132.951 20.1818 134.568 22.1685 136.958 22.1685C139.348 22.1685 140.909 20.2383 140.909 17.969Z" fill="#231F20"/>
<path d="M73.5376 31.8273H82.7627C85.0331 31.8273 86.8255 32.4572 87.9568 33.6121C88.8649 34.5327 89.319 35.6553 89.319 37.0363V37.0928C89.319 39.3702 88.1241 40.6301 86.706 41.4377C89.0083 42.326 90.4263 43.6828 90.4263 46.3882V46.4447C90.4263 50.1274 87.4708 51.9687 82.9857 51.9687H73.5297V31.8192L73.5376 31.8273ZM81.8306 39.9759C83.7585 39.9759 84.9853 39.3379 84.9853 37.8439V37.7873C84.9853 36.4629 83.9656 35.7118 82.1174 35.7118H77.7996V39.9759H81.8306ZM82.9937 48.0922C84.9216 48.0922 86.0926 47.3977 86.0926 45.9037V45.8471C86.0926 44.4904 85.0968 43.6585 82.8583 43.6585H77.8076V48.0922H83.0017H82.9937Z" fill="#231F20"/>
<path d="M92.872 36.5517H97.1898V39.661C98.0661 37.5289 99.4921 36.1479 102.041 36.261V40.8401H101.81C98.9424 40.8401 97.1818 42.5925 97.1818 46.2832V51.9849H92.8641V36.5517H92.872Z" fill="#231F20"/>
<path d="M104.113 30.9632H108.653V34.8477H104.113V30.9632ZM104.224 36.5517H108.542V51.9848H104.224V36.5517Z" fill="#231F20"/>
<path d="M111.211 44.2885V44.2319C111.211 39.0795 114.533 36.261 118.141 36.261C120.444 36.261 121.862 37.327 122.881 38.5626V30.9632H127.199V51.9768H122.881V49.764C121.83 51.2015 120.38 52.2675 118.141 52.2675C114.588 52.2675 111.211 49.449 111.211 44.2965V44.2885ZM122.937 44.2885V44.2319C122.937 41.6719 121.264 39.9678 119.249 39.9678C117.233 39.9678 115.528 41.6396 115.528 44.2319V44.2885C115.528 46.8485 117.233 48.5526 119.249 48.5526C121.264 48.5526 122.937 46.8566 122.937 44.2885Z" fill="#231F20"/>
<path d="M130.433 55.0295L131.907 51.7507C133.469 52.6471 135.03 53.1639 137.046 53.1639C140.001 53.1639 141.387 51.7264 141.387 48.9645V48.2134C140.113 49.772 138.718 50.7169 136.416 50.7169C132.863 50.7169 129.661 48.1003 129.661 43.5213V43.4647C129.661 38.8615 132.927 36.2691 136.416 36.2691C138.774 36.2691 140.168 37.2786 141.331 38.5707V36.5517H145.649V48.496C145.649 51.258 144.996 53.277 143.721 54.5692C142.303 56.0067 140.113 56.6447 137.165 56.6447C134.695 56.6447 132.369 56.0713 130.433 55.0295ZM141.395 43.5132V43.4567C141.395 41.3569 139.778 39.8871 137.675 39.8871C135.572 39.8871 133.986 41.3569 133.986 43.4567V43.5132C133.986 45.6452 135.58 47.0828 137.675 47.0828C139.77 47.0828 141.395 45.6129 141.395 43.5132Z" fill="#231F20"/>
<path d="M148.063 44.3531V44.2966C148.063 39.8952 151.162 36.2691 155.591 36.2691C160.674 36.2691 163 40.2667 163 44.6438C163 44.9911 162.968 45.3949 162.944 45.7987H152.349C152.779 47.7854 154.141 48.8191 156.069 48.8191C157.519 48.8191 158.571 48.3588 159.758 47.2362L162.227 49.449C160.809 51.2338 158.762 52.324 156.006 52.324C151.433 52.324 148.055 49.0694 148.055 44.3531H148.063ZM158.794 43.0609C158.539 41.1066 157.4 39.7821 155.583 39.7821C153.767 39.7821 152.628 41.0743 152.293 43.0609H158.794Z" fill="#231F20"/>
<path d="M44.9144 13.9392C42.2218 11.1772 38.6608 9.13402 35.4106 7.2281C31.1645 4.74071 26.7511 2.56828 22.3457 0.412002C21.9554 0.21818 21.5252 0.613901 21.6765 1.02577C22.0509 2.05949 22.3218 2.78633 22.9591 3.94926C23.5566 5.03144 24.7356 6.03286 24.8232 6.10554L22.6803 4.82147C22.282 4.57919 21.9076 4.95876 21.9793 5.42716C22.1147 6.29129 22.5289 7.40577 23.0866 8.39911C23.4769 9.08556 23.8354 9.43283 24.0664 9.60242C23.7637 9.41668 23.5805 9.31169 23.5805 9.31169C23.1742 9.06941 22.7361 9.25516 22.8396 10.0466C22.9034 10.5231 23.2061 11.1126 23.4132 11.5326C24.0425 12.8247 25.0224 13.8261 26.066 14.7872L24.3373 13.7373C23.939 13.495 23.6442 13.8665 23.6203 14.3349C23.4291 17.9853 26.0262 21.0864 28.5754 23.3881C29.8899 24.5752 31.284 25.6735 32.702 26.7234C34.3112 27.9106 36.3825 28.912 38.3422 29.4935C38.8122 29.6308 39.2982 29.7357 39.7921 29.7761C43.2893 30.1072 45.8863 27.4987 46.9618 24.3329C48.1249 20.8764 47.5115 16.6043 44.9224 13.9473L44.9144 13.9392ZM24.3214 9.76394C24.3214 9.76394 25.2534 10.3293 24.3214 9.76394V9.76394Z" fill="white"/>
<path d="M24.8392 6.12155C24.8392 6.12155 23.5725 5.07168 22.9591 3.94912C22.3457 2.82657 22.043 2.05935 21.6765 1.02563C21.5252 0.605683 21.9554 0.218038 22.3457 0.411861C26.7591 2.56814 31.1724 4.74057 35.4106 7.22796C38.6608 9.13388 42.2298 11.1771 44.9144 13.9391C47.5991 16.701 48.1249 20.8763 46.9538 24.3247C45.8863 27.4905 43.2813 30.099 39.7841 29.7679C39.2902 29.7195 38.8122 29.6225 38.3342 29.4853C36.3745 28.9119 34.3032 27.9104 32.694 26.7152C31.276 25.6653 29.8739 24.567 28.5674 23.3798C26.0262 21.0782 23.4291 17.977 23.6124 14.3267C23.6363 13.8583 23.931 13.4868 24.3293 13.7291L32.2798 18.6231" stroke="#231F20" stroke-width="0.89" stroke-linecap="round" stroke-linejoin="round"/>
<path d="M32.2798 10.5714L22.6803 4.82939C22.282 4.58711 21.9075 4.96668 21.9792 5.43509C22.1147 6.29921 22.5289 7.41369 23.0866 8.40703C23.7318 9.55382 24.3134 9.76379 24.3134 9.76379" stroke="#231F20" stroke-width="0.89" stroke-linecap="round" stroke-linejoin="round"/>
<path d="M32.2798 14.569L23.5805 9.31155C23.1742 9.06927 22.736 9.25502 22.8396 10.0465C22.9033 10.5229 23.2061 11.1125 23.4132 11.5324C24.0425 12.8246 25.0224 13.826 26.066 14.787" stroke="#231F20" stroke-width="0.89" stroke-linecap="round" stroke-linejoin="round"/>
<path d="M59.6124 17.864L37.5296 4.94247L15.4468 17.864V43.7151L37.5296 56.6366L59.6124 43.7151V17.864Z" fill="#5D56A5" stroke="#231F20" stroke-width="0.89" stroke-linecap="round" stroke-linejoin="round"/>
<path d="M15.4468 17.864L37.5296 4.94247L59.6124 17.864L37.5296 30.7936L15.4468 17.864Z" fill="#565C97" stroke="#231F20" stroke-width="0.89" stroke-linecap="round" stroke-linejoin="round"/>
<path d="M25.0224 12.2673L47.2247 25.2615V31.0116L51.423 28.5565V22.6934L29.3402 9.77188L25.0224 12.2673Z" fill="#E1EDF9" stroke="#231F20" stroke-width="0.89" stroke-linecap="round" stroke-linejoin="round"/>
<path d="M27.4681 11.0398L49.3278 23.8321" stroke="#231F20" stroke-width="0.89" stroke-linecap="round" stroke-linejoin="round"/>
<path d="M47.2247 25.2615L51.423 22.6934V28.5565L47.2247 31.0116V25.2615Z" fill="#F1F8FD" stroke="#231F20" stroke-width="0.89" stroke-linecap="round" stroke-linejoin="round"/>
<path d="M15.4468 17.864V43.7151L37.5296 56.6366V30.7936" fill="#40447D"/>
<path d="M15.4468 17.864V43.7151L37.5296 56.6366V30.7936" stroke="#231F20" stroke-width="0.89" stroke-linecap="round" stroke-linejoin="round"/>
<path d="M37.5296 30.7936L15.4468 17.864" stroke="#231F20" stroke-width="0.89" stroke-linecap="round" stroke-linejoin="round"/>
<path d="M23.6283 27.1513C20.9356 24.3893 17.3747 22.3461 14.1244 20.4402C9.87832 17.9528 5.46495 15.7804 1.05954 13.6241C0.669189 13.4303 0.239005 13.826 0.390366 14.2379C0.764786 15.2716 1.03564 15.9984 1.67295 17.1614C2.27043 18.2435 3.44945 19.245 3.53708 19.3176L1.39413 18.0336C0.995811 17.7913 0.621391 18.1709 0.693088 18.6393C0.828517 19.5034 1.24277 20.6179 1.80041 21.6112C2.19077 22.2977 2.54925 22.6449 2.78028 22.8145C2.47756 22.6288 2.29433 22.5238 2.29433 22.5238C1.88804 22.2815 1.44989 22.4673 1.55346 23.2587C1.61719 23.7352 1.91991 24.3247 2.12704 24.7447C2.75638 26.0368 3.73624 27.0382 4.77984 27.9993L3.05114 26.9494C2.65282 26.7071 2.35806 27.0786 2.33416 27.547C2.14297 31.1973 4.74001 34.2985 7.28925 36.6002C8.6037 37.7873 9.99781 38.8856 11.4158 39.9355C13.025 41.1227 15.0963 42.1241 17.056 42.7056C17.526 42.8429 18.012 42.9478 18.5059 42.9882C22.0031 43.3193 24.6002 40.7108 25.6756 37.545C26.8387 34.0885 26.2253 29.8164 23.6362 27.1594L23.6283 27.1513ZM3.0352 22.976C3.0352 22.976 3.96727 23.5414 3.0352 22.976V22.976Z" fill="white"/>
<path d="M3.55302 19.342C3.55302 19.342 2.28636 18.2921 1.67295 17.1696C1.05954 16.047 0.756819 15.2798 0.390366 14.2461C0.239005 13.8261 0.669189 13.4385 1.05954 13.6323C5.47291 15.7886 9.88628 17.961 14.1244 20.4484C17.3747 22.3543 20.9436 24.3975 23.6283 27.1595C26.313 29.9215 26.8387 34.0967 25.6677 37.5452C24.6002 40.7109 21.9952 43.3195 18.4979 42.9883C18.004 42.9399 17.526 42.843 17.0481 42.7057C15.0883 42.1323 13.0171 41.1309 11.4079 39.9356C9.98985 38.8858 8.58777 37.7874 7.28128 36.6003C4.74001 34.2986 2.14297 31.1975 2.3262 27.5471C2.35009 27.0787 2.64485 26.7072 3.04317 26.9495L10.9936 31.8435" stroke="#231F20" stroke-width="0.89" stroke-linecap="round" stroke-linejoin="round"/>
<path d="M10.9936 23.7917L1.40208 18.0497C1.00377 17.8074 0.629347 18.187 0.701044 18.6554C0.836472 19.5195 1.25072 20.634 1.80837 21.6273C2.45365 22.7741 3.03519 22.9841 3.03519 22.9841" stroke="#231F20" stroke-width="0.89" stroke-linecap="round" stroke-linejoin="round"/>
<path d="M10.9936 27.7893L2.29432 22.5319C1.88804 22.2896 1.44989 22.4753 1.55345 23.2668C1.61718 23.7432 1.9199 24.3328 2.12703 24.7527C2.75637 26.0449 3.73623 27.0463 4.77983 28.0073" stroke="#231F20" stroke-width="0.89" stroke-linecap="round" stroke-linejoin="round"/>
<path d="M42.1182 39.2329L42.8113 38.8291L43.584 39.6367L44.3488 37.9327L45.0419 37.5289V40.4928L44.4046 40.8643V38.926L43.584 40.6704H43.5681L42.7555 39.9032V41.8253L42.1262 42.1968V39.2329H42.1182Z" fill="white"/>
<path d="M45.7429 37.109L47.9496 35.8168V36.3983L46.3802 37.3189V37.9165L47.7584 37.109V37.6904L46.3802 38.498V39.1199L47.9655 38.1911V38.7726L45.7349 40.0728V37.109H45.7429Z" fill="white"/>
<path d="M48.5391 35.4695L49.1844 35.09V37.4643L50.6422 36.6082V37.1978L48.5391 38.4253V35.4615V35.4695Z" fill="white"/>
<path d="M51.1282 33.9593L51.7734 33.5798V35.9541L53.2313 35.098V35.6876L51.1282 36.9151V33.9513V33.9593Z" fill="white"/>
<path d="M53.4146 34.1128C53.4146 33.2648 54.0678 32.1907 54.976 31.6577C55.8841 31.1247 56.5294 31.4316 56.5294 32.2715C56.5294 33.1194 55.8762 34.2016 54.968 34.7265C54.0598 35.2515 53.4146 34.9527 53.4146 34.1128ZM55.8523 32.6833C55.8523 32.1665 55.4858 31.9565 54.968 32.2634C54.4502 32.5703 54.0917 33.1921 54.0917 33.7009C54.0917 34.2178 54.4581 34.4277 54.976 34.1208C55.4938 33.814 55.8523 33.1921 55.8523 32.6833Z" fill="white"/>
<path d="M41.218 44.8376L42.5723 44.0462C42.9069 43.8524 43.1698 43.7877 43.3371 43.8604C43.4725 43.917 43.5362 44.0462 43.5362 44.2481C43.5362 44.5873 43.361 44.878 43.1538 45.1203C43.4884 45.0557 43.7035 45.1284 43.7035 45.5322C43.7035 46.0813 43.2654 46.6063 42.6121 46.9939L41.218 47.8096V44.8457V44.8376ZM42.4369 45.3222C42.7237 45.1526 42.8989 44.9588 42.8989 44.7407C42.8989 44.5388 42.7476 44.5146 42.4767 44.6761L41.8394 45.0476V45.6775L42.4369 45.3303V45.3222ZM42.6042 46.4205C42.891 46.2509 43.0582 46.049 43.0582 45.831C43.0582 45.621 42.9149 45.5887 42.5803 45.7825L41.8394 46.2186V46.8728L42.6042 46.4286V46.4205Z" fill="white"/>
<path d="M44.2372 43.069L45.5756 42.2856C45.95 42.0676 46.2368 42.003 46.428 42.0837C46.5873 42.1564 46.675 42.3341 46.675 42.6168C46.675 43.1013 46.42 43.5536 46.0456 43.9089L46.7626 44.5469L46.0137 44.9911L45.3844 44.4096H45.3764L44.8825 44.7084V45.6533L44.2372 46.0329V43.069ZM45.5358 43.7474C45.8465 43.5616 46.0297 43.2871 46.0297 43.0367C46.0297 42.746 45.8385 42.7137 45.5278 42.8994L44.8905 43.2709V44.1189L45.5437 43.7393L45.5358 43.7474Z" fill="white"/>
<path d="M47.2805 41.2842L47.9257 40.9046V43.8685L47.2805 44.2481V41.2842Z" fill="white"/>
<path d="M48.6586 40.4847L49.7978 39.8144C50.714 39.2733 51.3513 39.5479 51.3513 40.3797C51.3513 41.2196 50.714 42.2452 49.7978 42.7783L48.6586 43.4486V40.4847ZM49.7978 42.1968C50.3236 41.8899 50.6821 41.3246 50.6821 40.7916C50.6821 40.2586 50.3236 40.097 49.7978 40.4039L49.3039 40.6947V42.4794L49.7978 42.1887V42.1968Z" fill="white"/>
<path d="M51.7974 40.1374C51.7974 39.2894 52.4426 38.2153 53.3269 37.6985C53.8527 37.3916 54.1713 37.3512 54.4741 37.432L54.0678 38.1669C53.8447 38.1104 53.6376 38.1184 53.303 38.3123C52.833 38.5868 52.4665 39.2248 52.4665 39.7255C52.4665 40.2747 52.833 40.4605 53.3508 40.1536C53.5818 40.0163 53.7969 39.8386 53.9563 39.6206V39.2006L53.311 39.5802V39.0149L54.5856 38.2719V39.564C54.2829 40.0001 53.8686 40.4524 53.3349 40.7673C52.4267 41.3004 51.7974 41.0177 51.7974 40.1455V40.1374Z" fill="white"/>
<path d="M55.199 36.6567L57.4057 35.3645V35.946L55.8363 36.8667V37.4643L57.2145 36.6567V37.2382L55.8363 38.0457V38.6676L57.4216 37.7389V38.3203L55.191 39.6206V36.6567H55.199Z" fill="white"/>
</g>
<defs>
<clipPath id="clip0_550_3435">
<rect width="163" height="57" fill="white"/>
</clipPath>
</defs>
</svg>
