<svg width="102" height="102" viewBox="0 0 102 102" fill="none" xmlns="http://www.w3.org/2000/svg">
<circle cx="51" cy="51" r="51" fill="#F8B22B"/>
<path d="M56.97 15.8028L56.092 60.0641H45.908L45.0301 15.8028H56.97ZM51 86.1972C48.8344 86.1972 46.9761 85.4173 45.4251 83.8576C43.8741 82.2978 43.0986 80.4291 43.0986 78.2513C43.0986 76.0736 43.8741 74.2048 45.4251 72.6451C46.9761 71.0853 48.8344 70.3055 51 70.3055C53.1656 70.3055 55.0239 71.0853 56.5749 72.6451C58.1259 74.2048 58.9014 76.0736 58.9014 78.2513C58.9014 79.6933 58.5356 81.0176 57.804 82.2242C57.1017 83.4308 56.1506 84.402 54.9507 85.1377C53.7801 85.844 52.4632 86.1972 51 86.1972Z" fill="white"/>
</svg>
