<svg width="16" height="16" viewBox="0 0 16 16" fill="none" xmlns="http://www.w3.org/2000/svg">
<circle cx="8" cy="8" r="8" fill="#DF4339"/>
<path d="M8.93658 2.47888L8.79887 9.42184H7.20137L7.06365 2.47888H8.93658ZM8.00012 13.5211C7.66042 13.5211 7.36892 13.3988 7.12563 13.1541C6.88233 12.9095 6.76068 12.6163 6.76068 12.2747C6.76068 11.9331 6.88233 11.64 7.12563 11.3953C7.36892 11.1507 7.66042 11.0283 8.00012 11.0283C8.33982 11.0283 8.63131 11.1507 8.87461 11.3953C9.11791 11.64 9.23955 11.9331 9.23955 12.2747C9.23955 12.5009 9.18217 12.7087 9.06741 12.8979C8.95724 13.0872 8.80805 13.2395 8.61984 13.3549C8.43622 13.4657 8.22964 13.5211 8.00012 13.5211Z" fill="white"/>
</svg>
