<svg width="237" height="170" viewBox="0 0 237 170" fill="none" xmlns="http://www.w3.org/2000/svg">
<g clip-path="url(#clip0_32_913)">
<path d="M99.9755 168.791C99.5965 164.418 101.742 159.911 105.355 157.478C108.972 155.045 113.908 154.782 117.757 156.821C118.692 154.294 119.647 151.722 121.305 149.608C122.964 147.493 125.459 145.871 128.126 145.971V168.791H99.9755Z" fill="#EBEBEB"/>
<path d="M25.8625 80.5001L11.4769 109.828L15.7734 109.992L3.58286 133.3H9.98573L0 154.005H55.8148L43.5258 133.3L49.4168 133.041L37.6397 109.748L41.9903 109.489L25.8625 80.5001Z" fill="#EBEBEB"/>
<path d="M28.2937 114.524C28.3626 114.524 28.2396 126.947 28.0181 142.265C27.7967 157.587 27.5604 170.005 27.4866 170C27.4177 170 27.5407 157.583 27.7622 142.26C27.9837 126.942 28.2199 114.524 28.2937 114.524Z" fill="#E0E0E0"/>
<path d="M35.1346 121.36C35.1642 121.379 34.8098 121.902 34.1995 122.713C33.5893 123.529 32.7231 124.628 31.7486 125.832C30.7939 127.001 29.9277 128.061 29.2387 128.902C28.5939 129.683 28.1904 130.165 28.1609 130.14C28.1313 130.121 28.4857 129.598 29.0959 128.787C29.7062 127.971 30.5724 126.872 31.5468 125.668C32.5016 124.499 33.3678 123.444 34.0568 122.598C34.7015 121.817 35.1051 121.335 35.1346 121.355V121.36Z" fill="#E0E0E0"/>
<path d="M28.1559 130.145C28.1116 130.2 26.6992 129.165 25.0062 127.827C23.3082 126.489 21.9696 125.36 22.0139 125.305C22.0582 125.25 23.4707 126.285 25.1637 127.623C26.8616 128.961 28.2002 130.091 28.1559 130.145Z" fill="#E0E0E0"/>
<path d="M27.777 144.533C27.7524 144.558 27.3586 144.23 26.7287 143.687C26.0987 143.145 25.2276 142.399 24.2483 141.593C23.2689 140.787 22.3682 140.075 21.7186 139.563C21.069 139.051 20.6654 138.727 20.6851 138.697C20.7048 138.668 21.1428 138.941 21.8269 139.419C22.506 139.896 23.4313 140.588 24.4107 141.399C25.39 142.21 26.2464 142.981 26.8468 143.558C27.4472 144.135 27.7967 144.518 27.777 144.543V144.533Z" fill="#E0E0E0"/>
<path d="M35.7301 135.638C35.7301 135.638 35.6514 135.787 35.4742 136.036C35.297 136.28 35.0263 136.623 34.6769 137.041C33.9879 137.877 32.979 138.981 31.8471 140.175C30.7151 141.369 29.6865 142.449 28.968 143.249C28.2445 144.045 27.8114 144.553 27.777 144.533C27.7622 144.523 27.8557 144.384 28.0329 144.135C28.2101 143.891 28.4807 143.548 28.8302 143.13C29.5192 142.294 30.5281 141.19 31.66 139.996C32.792 138.802 33.8157 137.722 34.5391 136.921C35.2626 136.125 35.6957 135.618 35.7301 135.638Z" fill="#E0E0E0"/>
<path d="M142.94 113.872H201.26L212.156 98.231L223.579 114.315L237 114.096L222.536 94.4003L157.508 94.6739L142.94 113.872Z" fill="#E0E0E0"/>
<path d="M172.105 114.096V168.925H230.341V114.096H223.668L212.156 98.231L201.226 113.857L172.105 114.096Z" fill="#F5F5F5"/>
<path d="M193.957 145.155H180.334V168.925H193.957V145.155Z" fill="#E0E0E0"/>
<path d="M223.579 144.483H202.121V157.921H223.579V144.483Z" fill="#E0E0E0"/>
<path d="M208.564 144.483H208.071V158.045H208.564V144.483Z" fill="#EBEBEB"/>
<path d="M217.486 144.483H216.994V158.045H217.486V144.483Z" fill="#EBEBEB"/>
<path d="M217.24 151.428H208.317V151.926H217.24V151.428Z" fill="#EBEBEB"/>
<path d="M223.579 117.594H202.121V131.031H223.579V117.594Z" fill="#E0E0E0"/>
<path d="M208.564 117.594H208.071V131.155H208.564V117.594Z" fill="#EBEBEB"/>
<path d="M217.486 117.594H216.994V131.155H217.486V117.594Z" fill="#EBEBEB"/>
<path d="M217.24 124.534H208.317V125.031H217.24V124.534Z" fill="#EBEBEB"/>
<path d="M192.534 117.713H179V130.668H192.534V117.713Z" fill="#E0E0E0"/>
<path d="M172.11 114.096H148.472V168.92H172.11V114.096Z" fill="#E0E0E0"/>
<path d="M186.013 117.713H185.521V130.668H186.013V117.713Z" fill="#EBEBEB"/>
<path d="M192.534 124.26H179V124.758H192.534V124.26Z" fill="#EBEBEB"/>
<path d="M212.127 111.599C213.711 111.599 214.996 110.3 214.996 108.698C214.996 107.097 213.711 105.798 212.127 105.798C210.542 105.798 209.258 107.097 209.258 108.698C209.258 110.3 210.542 111.599 212.127 111.599Z" fill="#E0E0E0"/>
<path d="M191.658 105.141L195.275 100.624V89.7635H187.696V105.226L191.658 105.141Z" fill="#F5F5F5"/>
<path d="M191.658 105.141V89.7635H195.275V100.624L191.658 105.141Z" fill="#EBEBEB"/>
<path d="M195.787 88.1666H186.85V89.7636H195.787V88.1666Z" fill="#EBEBEB"/>
<path d="M172.105 138.081H128.126V168.925H172.105V138.081Z" fill="#F5F5F5"/>
<path d="M155.662 138.081H128.126V168.925H155.662V138.081Z" fill="#E0E0E0"/>
<path d="M151.563 148.026H133.555V168.871H151.563V148.026Z" fill="#F5F5F5"/>
<path d="M169.684 147.941H158.084V150.926H169.684V147.941Z" fill="#EBEBEB"/>
<path d="M142.94 113.872V115.459H201.226V113.857L142.94 113.872Z" fill="#EBEBEB"/>
<path d="M201.226 115.459L212.127 99.9921L212.156 98.231L201.26 113.872L201.226 115.459Z" fill="#EBEBEB"/>
<path d="M236.719 114.096H223.668V115.121H236.719V114.096Z" fill="#EBEBEB"/>
<path d="M189.311 141.513H184.492V143.364H189.311V141.513Z" fill="#E0E0E0"/>
<path d="M147.232 24.6212C136.331 9.46743 120.483 2.39798 103.942 2.40296C103.942 2.40296 63.4431 2.40296 51.4494 39.0536C47.0299 52.5607 48.0093 67.2269 53.3737 80.3808C55.2291 84.9279 57.6948 89.8631 60.9381 94.6043C71.3963 109.872 103.942 151.568 103.942 151.568H111.019C120.104 138.812 142.975 96.44 149.825 82.8583C158.428 65.7991 159.747 42.0287 147.232 24.6212ZM110.699 92.4202C91.5941 92.4202 76.1062 76.764 76.1062 57.4461C76.1062 38.1283 91.5941 22.477 110.699 22.477C129.805 22.477 145.293 38.1333 145.293 57.4461C145.293 76.759 129.805 92.4202 110.699 92.4202Z" fill="#E8505B"/>
<path opacity="0.4" d="M147.232 24.6212C136.331 9.46743 120.483 2.39798 103.942 2.40296C103.942 2.40296 63.4431 2.40296 51.4494 39.0536C47.0299 52.5607 48.0093 67.2269 53.3737 80.3808C55.2291 84.9279 57.6948 89.8631 60.9381 94.6043C71.3963 109.872 103.942 151.568 103.942 151.568H111.019C120.104 138.812 142.975 96.44 149.825 82.8583C158.428 65.7991 159.747 42.0287 147.232 24.6212ZM110.699 92.4202C91.5941 92.4202 76.1062 76.764 76.1062 57.4461C76.1062 38.1283 91.5941 22.477 110.699 22.477C129.805 22.477 145.293 38.1333 145.293 57.4461C145.293 76.759 129.805 92.4202 110.699 92.4202Z" fill="black"/>
<path d="M154.353 24.9048C143.452 9.751 127.605 2.68155 111.064 2.68653C111.064 2.68653 70.5645 2.68653 58.5708 39.3372C54.1513 52.8443 55.1307 67.5105 60.4951 80.6643C62.3506 85.2115 64.8162 90.1466 68.0595 94.8878C78.5177 110.156 111.064 151.851 111.064 151.851C111.064 151.851 148.669 99.5543 156.947 83.1419C165.55 66.0827 166.869 42.3122 154.353 24.9048ZM110.744 92.7038C91.5499 92.7486 76.0766 77.2515 76.1505 57.7297C76.2194 38.4168 91.6384 22.7606 110.744 22.7606C129.849 22.7606 145.352 38.4168 145.337 57.7297C145.322 77.1072 129.8 92.659 110.744 92.7038Z" fill="#FF5C5B"/>
<path d="M110.699 22.472C95.6495 22.472 82.8486 32.1932 78.0895 45.7599C82.7453 35.3771 93.0804 28.1535 105.089 28.1535C121.458 28.1535 134.731 41.566 134.731 58.1178C134.731 74.6695 121.463 88.0821 105.089 88.0821C95.5855 88.0821 87.1303 83.5549 81.7068 76.5202C87.8784 86.0871 98.5531 92.4203 110.699 92.4203C129.805 92.4203 145.293 76.764 145.293 57.4462C145.293 38.1283 129.805 22.477 110.699 22.477V22.472Z" fill="#E8505B"/>
<path opacity="0.4" d="M110.699 22.472C95.6495 22.472 82.8486 32.1932 78.0895 45.7599C82.7453 35.3771 93.0804 28.1535 105.089 28.1535C121.458 28.1535 134.731 41.566 134.731 58.1178C134.731 74.6695 121.463 88.0821 105.089 88.0821C95.5855 88.0821 87.1303 83.5549 81.7068 76.5202C87.8784 86.0871 98.5531 92.4203 110.699 92.4203C129.805 92.4203 145.293 76.764 145.293 57.4462C145.293 38.1283 129.805 22.477 110.699 22.477V22.472Z" fill="black"/>
<path d="M179.684 73.4805C178.291 72.5204 176.603 72.1025 174.925 72.2915C172.09 72.6199 167.981 73.0378 167.981 73.0378L167.996 73.1721L148.147 74.4059L142.074 61.9386L132.861 68.0727C132.861 68.0727 134.072 70.0329 139.234 79.6744C141.296 83.525 145.524 85.6692 149.811 85.0374L173.183 81.5798V81.535C175.594 81.3957 178.213 81.1669 178.592 80.8186C179.315 80.147 179.975 77.7093 179.975 77.7093C179.975 77.7093 184.138 80.2117 184.94 80.2714C185.747 80.3261 185.89 79.6495 186.387 78.9331C186.727 78.4456 182.435 75.371 179.674 73.4756L179.684 73.4805Z" fill="#FFBE9D"/>
<path d="M143.295 61.1326C143.295 61.1326 139.436 53.6253 135.902 46.536C131.562 37.8298 121.984 36.0885 121.984 36.0885L108.116 34.2478C108.116 34.2478 96.5255 28.9444 85.7228 42.1033L76.8444 52.1129L78.7293 53.8243L87.5191 61.8141L89.2564 63.3912L93.233 59.252L91.3825 69.7393L88.1195 84.3558L88.1294 84.3657L95.1819 83.505L99.9558 54.0283L126.842 56.1974L124.731 74.7839C125.164 74.7192 128.417 74.0675 129.475 69.6C129.888 67.8438 129.76 66.3563 129.5 65.2668L131.055 69.2915L143.299 61.1375L143.295 61.1326Z" fill="#5E47D2"/>
<path d="M99.9508 54.0084L95.177 83.4852L88.1245 84.3458C94.1828 89.6243 102.067 92.8232 110.694 92.8232C115.006 92.8232 119.13 92.0222 122.934 90.5646L124.726 74.759L126.837 56.1725L99.9508 54.0034V54.0084Z" fill="#121B46"/>
<path d="M101.545 32.7851L100.96 56.7297L105.448 57.4461L106.049 33.1831C106.049 33.1831 104.474 32.4319 101.545 32.7851Z" fill="#121B46"/>
<path d="M120.523 56.859L124.219 36.2925C124.43 36.0636 127.467 37.1631 128.377 38.2128L125.06 57.2919L120.523 56.859Z" fill="#121B46"/>
<path d="M105.611 53.9238C105.611 53.9238 105.655 54.0681 105.679 54.3318C105.699 54.5954 105.734 54.9835 105.694 55.4661C105.655 55.9437 105.527 56.5407 105.138 57.073C104.946 57.3367 104.685 57.5854 104.356 57.7396C104.026 57.8939 103.632 57.9486 103.258 57.874C102.5 57.7247 101.91 57.2222 101.575 56.665C101.24 56.1029 101.122 55.5158 101.078 55.0382C101.034 54.5556 101.058 54.1676 101.078 53.9039C101.102 53.6402 101.132 53.491 101.147 53.496C101.196 53.496 101.137 54.093 101.255 55.0183C101.319 55.476 101.452 56.0282 101.772 56.5407C102.087 57.0382 102.638 57.4909 103.302 57.6202C103.972 57.7595 104.607 57.4113 104.951 56.9287C105.315 56.4511 105.458 55.9039 105.517 55.4462C105.62 54.5158 105.566 53.9188 105.616 53.9188L105.611 53.9238Z" fill="#455A64"/>
<path d="M102.953 56.0382C102.426 55.8243 102.17 55.2223 102.382 54.6949C102.594 54.1626 103.189 53.9039 103.711 54.1178C104.237 54.3318 104.493 54.9337 104.282 55.4611C104.07 55.9934 103.475 56.2521 102.953 56.0382Z" fill="#455A64"/>
<path d="M123.997 56.1675C123.997 56.7396 123.54 57.2023 122.974 57.2023C122.408 57.2023 121.95 56.7396 121.95 56.1675C121.95 55.5954 122.408 55.1327 122.974 55.1327C123.54 55.1327 123.997 55.5954 123.997 56.1675Z" fill="#455A64"/>
<path d="M125.37 55.4512C125.37 55.4512 125.361 55.9238 125.134 56.6601C125.011 57.0233 124.819 57.4611 124.45 57.8342C124.096 58.2173 123.505 58.4809 122.895 58.4113C122.29 58.3516 121.758 58.0431 121.418 57.6402C121.079 57.2372 120.916 56.7845 120.843 56.4014C120.769 56.0183 120.789 55.6999 120.818 55.491C120.848 55.2771 120.892 55.1676 120.907 55.1676C120.956 55.1676 120.852 55.6452 121.02 56.3616C121.108 56.7148 121.276 57.1277 121.596 57.481C121.906 57.8292 122.388 58.0979 122.92 58.1526C123.456 58.2073 123.953 57.9984 124.288 57.6601C124.627 57.3317 124.829 56.9337 124.967 56.5904C125.228 55.8989 125.326 55.4313 125.37 55.4412V55.4512Z" fill="#455A64"/>
<path d="M102.889 65.2867C102.855 65.2867 102.84 65.0877 102.85 64.7742C102.85 64.62 102.864 64.431 102.874 64.227C102.884 64.1175 102.889 64.0081 102.899 63.9036L102.914 63.7345L102.923 63.6449V63.5803L102.933 63.5703V63.5604C102.805 63.6748 103.106 63.4012 103.076 63.431C104.021 63.5355 104.784 63.6748 104.774 63.7444C104.764 63.8141 103.996 63.7892 103.046 63.6847C103.017 63.7146 103.317 63.441 103.189 63.5554V63.6001L103.179 63.6449L103.17 63.7345L103.15 63.9086C103.135 64.018 103.125 64.1225 103.11 64.2369C103.081 64.4459 103.056 64.6349 103.027 64.7892C102.973 65.1026 102.923 65.2916 102.884 65.2916L102.889 65.2867Z" fill="#455A64"/>
<path d="M102.17 72.1421C102.102 72.1322 102.126 71.3611 102.225 70.4158C102.323 69.4706 102.461 68.7094 102.535 68.7144C102.608 68.7194 102.579 69.4955 102.48 70.4407C102.382 71.3859 102.244 72.1471 102.17 72.1421Z" fill="#455A64"/>
<path d="M103.17 78.0773C103.14 78.142 102.421 77.8485 101.57 77.4206C101.585 77.4505 101.437 77.1768 101.501 77.2913V77.2465L101.511 77.2017L101.521 77.1122L101.54 76.938C101.555 76.8336 101.57 76.7241 101.58 76.6147C101.609 76.4107 101.639 76.2216 101.664 76.0674C101.718 75.759 101.772 75.5649 101.806 75.5699C101.841 75.5699 101.851 75.7689 101.841 76.0873C101.836 76.2465 101.826 76.4306 101.811 76.6395C101.801 76.749 101.791 76.8584 101.787 76.9629L101.772 77.137L101.762 77.2266V77.2913L101.752 77.3012V77.3112C101.816 77.4306 101.668 77.1569 101.683 77.1818C102.535 77.6097 103.199 78.0077 103.17 78.0723V78.0773Z" fill="#455A64"/>
<path d="M107.717 80.3608C107.687 80.4255 107.151 80.2215 106.521 79.9081C105.891 79.5947 105.409 79.2862 105.443 79.2216C105.473 79.1569 106.009 79.3609 106.639 79.6743C107.269 79.9877 107.751 80.2962 107.717 80.3608Z" fill="#455A64"/>
<path d="M113.131 81.6195C113.155 81.6842 112.466 82.0324 111.58 82.3956C111.369 82.3857 111.521 82.3956 111.472 82.3956H111.462L111.452 82.3857L111.433 82.3757L111.393 82.3558L111.315 82.316L111.162 82.2364C111.069 82.1867 110.975 82.1369 110.877 82.0822C110.694 81.9827 110.532 81.8931 110.399 81.8135C110.129 81.6543 109.971 81.5349 109.986 81.5051C110.001 81.4752 110.188 81.53 110.478 81.6494C110.621 81.7091 110.793 81.7837 110.98 81.8683C111.078 81.918 111.177 81.9628 111.275 82.0076L111.428 82.0822L111.507 82.122L111.546 82.1419L111.566 82.1518H111.575V82.1618H111.585C111.541 82.1618 111.689 82.1668 111.482 82.1618C112.363 81.7986 113.101 81.5598 113.126 81.6295L113.131 81.6195Z" fill="#455A64"/>
<path d="M116.807 80.117C116.832 80.1817 116.443 80.4056 115.936 80.6146C115.429 80.8235 114.996 80.9379 114.966 80.8733C114.942 80.8086 115.331 80.5847 115.837 80.3758C116.344 80.1668 116.777 80.0524 116.807 80.117Z" fill="#455A64"/>
<path d="M120.419 76.9729C120.488 76.9779 120.469 77.7639 120.37 78.7191C120.213 78.933 120.326 78.7788 120.291 78.8286H120.282L120.272 78.8385L120.252 78.8485L120.213 78.8634L120.129 78.8982L119.972 78.9629L119.671 79.0773C119.479 79.1519 119.302 79.2116 119.155 79.2614C118.859 79.3559 118.667 79.4007 118.653 79.3658C118.638 79.331 118.805 79.2315 119.086 79.0873C119.223 79.0176 119.396 78.938 119.583 78.8534C119.686 78.8087 119.78 78.7639 119.878 78.7241L120.036 78.6594L120.114 78.6246L120.154 78.6097L120.173 78.5997H120.193V78.5898C120.159 78.6395 120.272 78.4803 120.114 78.6942C120.213 77.739 120.35 76.9679 120.419 76.9779V76.9729Z" fill="#455A64"/>
<path d="M121.074 70.5303C121.143 70.5352 121.128 71.2665 121.035 72.1571C120.946 73.0476 120.813 73.764 120.744 73.754C120.675 73.7491 120.69 73.0177 120.784 72.1272C120.872 71.2367 121.005 70.5203 121.074 70.5303Z" fill="#455A64"/>
<path d="M119.868 65.3862C119.878 65.3165 120.651 65.3414 121.596 65.4459C121.822 65.7295 121.66 65.5255 121.709 65.5902V65.6349L121.699 65.6797L121.689 65.7693L121.669 65.9434C121.655 66.0479 121.645 66.1573 121.63 66.2668C121.601 66.4757 121.576 66.6598 121.546 66.814C121.492 67.1275 121.438 67.3165 121.404 67.3115C121.369 67.3066 121.354 67.1125 121.364 66.7941C121.364 66.6349 121.379 66.4508 121.394 66.2419L121.418 65.9136L121.433 65.7394L121.443 65.6499V65.5852L121.453 65.5752V65.5653C121.502 65.625 121.34 65.421 121.566 65.7046C120.621 65.6001 119.858 65.4608 119.868 65.3912V65.3862Z" fill="#455A64"/>
<path d="M113.829 64.7294C113.839 64.6598 114.518 64.6747 115.35 64.7642C116.182 64.8538 116.851 64.9881 116.846 65.0578C116.837 65.1274 116.157 65.1125 115.321 65.0229C114.489 64.9334 113.82 64.7991 113.825 64.7294H113.829Z" fill="#455A64"/>
<path d="M107.791 64.0678C107.801 63.9981 108.48 64.0131 109.312 64.1026C110.143 64.1922 110.813 64.3265 110.808 64.3961C110.803 64.4658 110.119 64.4508 109.282 64.3613C108.45 64.2718 107.781 64.1374 107.786 64.0678H107.791Z" fill="#455A64"/>
<path d="M76.1504 55.6402C76.1209 56.2372 76.1062 56.8392 76.1062 57.4462C76.1062 59.854 76.3473 62.2072 76.805 64.4808C76.805 64.5057 76.8149 64.5255 76.8198 64.5504C76.8788 64.839 76.9477 65.1225 77.0166 65.4111C77.2873 66.5354 77.6023 67.6449 77.9566 68.7344C78.0009 68.8687 78.0452 69.008 78.0944 69.1423C79.3642 68.8538 83.0504 65.635 87.2878 61.6052L78.5079 53.6254C77.2824 54.8641 76.554 55.5009 76.1554 55.6402H76.1504Z" fill="#FFBE9D"/>
<path d="M131.576 3.97009C131.882 7.4078 135.76 10.3032 139.17 10.1988C141.05 10.1391 142.955 9.29332 144.766 9.82067C147.798 10.7062 149.023 14.9847 152.129 15.5568C154.452 15.9847 156.597 14.0842 158.95 13.9549C160.682 13.8604 162.316 14.7359 163.748 15.721C165.18 16.706 166.559 17.8453 168.197 18.4075C169.841 18.9697 171.347 17.9697 173.006 17.4622C173.419 18.5319 173.685 19.8403 174.211 20.9746C174.743 22.1039 175.378 24.1237 174.443 24.5615C174.443 24.5615 171.829 25.9297 170.319 25.855C171.519 27.1087 173.419 27.6311 175.083 27.1585C175.501 29.7156 175.816 32.6608 174.108 34.5911C173.345 35.4468 172.272 35.9692 171.165 36.2577C165.678 37.6905 159.949 33.815 154.383 34.8747C152.099 35.3075 150.007 36.5562 147.699 36.8597C145.43 37.1582 143.048 36.4816 141.272 35.0239C139.077 33.2279 137.566 30.2231 134.78 29.7554C133.545 29.5465 132.295 29.9047 131.084 30.2479C129.879 30.5912 128.614 30.9196 127.388 30.6559C126.163 30.3922 125.006 29.3375 125.065 28.0739" fill="#121B46"/>
<path d="M120.67 37.3622C121.286 33.8946 121.994 30.2579 121.994 30.2579C121.994 30.2579 126.542 30.3027 128.476 24.6362C130.317 19.2333 131.65 6.23372 131.65 6.23372C125.744 2.47762 117.905 2.88059 112.476 7.22375L107.943 35.4567C107.417 38.7353 109.784 41.8048 113.264 42.3471C116.773 42.8943 120.095 40.6656 120.68 37.3622H120.67Z" fill="#FFBE9D"/>
<path d="M128.264 15.9697C128.21 16.3677 127.831 16.6463 127.418 16.5966C127.009 16.5468 126.719 16.1837 126.773 15.7857C126.827 15.3877 127.206 15.1091 127.615 15.1588C128.028 15.2086 128.313 15.5717 128.259 15.9697H128.264Z" fill="#263238"/>
<path d="M129.608 15.3479C129.5 15.4275 129.012 14.9101 128.215 14.7708C127.423 14.6216 126.768 14.93 126.694 14.8156C126.66 14.7659 126.783 14.6067 127.068 14.4624C127.349 14.3181 127.812 14.2136 128.304 14.3082C128.801 14.3977 129.185 14.6564 129.391 14.8902C129.603 15.1241 129.657 15.3131 129.603 15.3479H129.608Z" fill="#263238"/>
<path d="M120.095 14.6614C120.04 15.0594 119.661 15.338 119.248 15.2882C118.84 15.2385 118.549 14.8753 118.603 14.4773C118.657 14.0793 119.036 13.8007 119.445 13.8505C119.858 13.9002 120.144 14.2634 120.09 14.6614H120.095Z" fill="#263238"/>
<path d="M121.256 14.1589C121.148 14.2385 120.661 13.7211 119.863 13.5818C119.071 13.4325 118.416 13.741 118.343 13.6266C118.308 13.5768 118.431 13.4176 118.717 13.2733C118.997 13.1291 119.46 13.0246 119.952 13.1141C120.449 13.2037 120.833 13.4624 121.04 13.6962C121.251 13.93 121.305 14.1191 121.251 14.1539L121.256 14.1589Z" fill="#263238"/>
<path d="M123.102 20.6413C123.102 20.5965 123.613 20.5965 124.435 20.6363C124.642 20.6512 124.844 20.6463 124.898 20.512C124.972 20.3727 124.928 20.1339 124.868 19.8801C124.765 19.3478 124.657 18.7906 124.539 18.2085C124.091 15.8355 123.805 13.8952 123.904 13.8753C123.997 13.8604 124.435 15.7708 124.883 18.1439C124.987 18.7309 125.09 19.2881 125.183 19.8204C125.218 20.0692 125.306 20.3577 125.149 20.6463C125.065 20.7905 124.898 20.8751 124.76 20.8851C124.622 20.9 124.509 20.8851 124.406 20.8701C123.594 20.7706 123.092 20.6861 123.097 20.6363L123.102 20.6413Z" fill="#263238"/>
<path d="M121.994 30.2579C121.994 30.2579 118.072 29.8201 114.637 26.8003C114.637 26.8003 115.813 31.1385 121.679 31.621L121.999 30.2579H121.994Z" fill="#EB996E"/>
<path d="M122.427 22.5168C122.206 22.084 121.743 21.7855 121.236 21.7506C120.887 21.7258 120.508 21.8352 120.247 22.079C119.986 22.3277 119.873 22.7208 120.016 23.0242C120.178 23.3675 120.616 23.5168 121.015 23.477C121.414 23.4372 121.783 23.2431 122.137 23.0441C122.235 22.9894 122.334 22.9347 122.408 22.8451C122.477 22.7606 122.511 22.6362 122.457 22.5466" fill="#EB996E"/>
<path d="M120.665 20.7805C120.798 20.7954 120.646 21.671 121.276 22.4223C121.906 23.1735 122.841 23.2431 122.831 23.3625C122.831 23.4173 122.595 23.4969 122.206 23.4372C121.822 23.3824 121.286 23.1586 120.902 22.7009C120.518 22.2382 120.41 21.7009 120.444 21.3377C120.474 20.9646 120.606 20.7656 120.665 20.7855V20.7805Z" fill="#263238"/>
<path d="M116.374 3.0547C117.914 6.49241 122.91 10.6714 126.763 12.1539C126.414 11.4475 124.243 9.45252 123.894 8.7411C125.449 10.4525 127.698 12.7708 130.075 13.3479C130.356 13.4176 130.666 13.4723 130.927 13.3728C131.281 13.2385 131.419 12.8703 131.517 12.537C131.936 11.144 132.295 8.68637 132.329 7.23368C132.369 5.78099 131.99 4.25367 130.951 3.07957C129.637 1.58708 127.492 0.870682 125.429 0.427909C123.697 0.0547853 121.886 -0.184014 120.178 0.14931C118.47 0.482633 116.876 1.47763 116.364 2.94027" fill="#121B46"/>
<path d="M107.176 15.9946C107.166 14.4324 107.2 12.9598 107.323 11.9997C107.712 8.96492 108.647 -2.06461 118.721 0.776104L117.649 3.60189C117.649 3.60189 118.421 10.7012 113.254 14.512C113.254 14.512 113.278 21.5964 109.695 24.1535C109.695 24.1535 107.2 19.3477 107.176 15.9995" fill="#121B46"/>
<path d="M113.47 14.0296C112.875 13.8007 112.22 13.7012 111.595 13.8206C110.97 13.94 110.375 14.2883 110.02 14.8256C109.666 15.3629 109.572 16.0494 109.681 16.6862C109.789 17.323 110.089 17.915 110.458 18.4424C110.724 18.8205 111.039 19.1787 111.447 19.3926C111.856 19.6065 112.368 19.6513 112.766 19.4224" fill="#FFBE9D"/>
<path d="M112.471 17.7458C112.54 17.7806 112.205 18.1089 111.669 17.8552C111.408 17.7358 111.187 17.4473 111.078 17.1139C110.97 16.7806 110.926 16.4224 110.95 16.0244C110.98 15.6264 111.137 15.2284 111.403 14.9747C111.659 14.711 112.018 14.5916 112.299 14.6364C112.88 14.726 112.988 15.1638 112.924 15.1638C112.87 15.2036 112.683 14.9548 112.284 14.9797C111.91 14.9797 111.462 15.4274 111.433 16.0692C111.388 16.7209 111.531 17.3527 111.841 17.5617C112.161 17.8055 112.442 17.6861 112.471 17.7458Z" fill="#EB996E"/>
<path d="M171.775 14.5071C171.775 14.5071 171.716 14.6713 171.505 14.915C171.293 15.1538 170.899 15.4573 170.304 15.6115C169.718 15.7707 168.931 15.7807 168.124 15.4573C167.307 15.1489 166.504 14.5618 165.663 13.8952C164.816 13.2484 163.871 12.4823 162.661 12.2186C162.06 12.1042 161.411 12.1191 160.776 12.3032C160.136 12.4773 159.511 12.7659 158.881 13.0843C158.251 13.4027 157.611 13.7609 156.927 14.0743C156.243 14.3827 155.5 14.6464 154.703 14.6762C153.905 14.7111 153.088 14.4673 152.409 13.9997C151.725 13.537 151.184 12.8952 150.687 12.2335C149.702 10.9052 148.905 9.47242 147.704 8.52717C147.114 8.05455 146.41 7.766 145.691 7.67148C144.973 7.567 144.254 7.64163 143.56 7.766C142.177 8.0247 140.888 8.46747 139.623 8.62667C138.353 8.7809 137.148 8.64657 136.114 8.31822C134.022 7.68143 132.644 6.46256 131.872 5.54716C131.099 4.60689 130.848 3.97009 130.848 3.97009C130.848 3.97009 130.878 3.99994 130.922 4.06959C130.971 4.14919 131.035 4.25367 131.114 4.37307C131.281 4.64172 131.552 5.02479 131.946 5.47751C132.733 6.36306 134.111 7.53715 136.168 8.13913C137.182 8.44758 138.363 8.56697 139.598 8.40777C140.839 8.2436 142.118 7.79585 143.526 7.52223C144.23 7.3879 144.973 7.31328 145.731 7.41775C146.489 7.51228 147.237 7.82073 147.862 8.31325C149.127 9.30327 149.924 10.756 150.898 12.0644C151.385 12.7161 151.912 13.333 152.557 13.7708C153.197 14.2086 153.955 14.4375 154.698 14.4076C155.446 14.3827 156.164 14.134 156.834 13.8355C157.508 13.532 158.143 13.1788 158.778 12.8604C159.412 12.542 160.057 12.2485 160.722 12.0743C161.381 11.8903 162.075 11.8753 162.71 12.0047C163.989 12.2982 164.939 13.0942 165.781 13.7509C166.618 14.4225 167.4 15.0096 168.183 15.323C168.96 15.6513 169.718 15.6513 170.289 15.517C170.87 15.3827 171.254 15.0991 171.475 14.8802C171.692 14.6563 171.77 14.5021 171.785 14.5121L171.775 14.5071Z" fill="#121B46"/>
<path d="M58.4232 113.335L49.4956 131.538L52.1581 131.638L44.5938 146.105H48.5703L42.3692 158.956H77.0117L69.3834 146.105L73.0401 145.941L65.7316 131.484L68.4335 131.324L58.4232 113.335Z" fill="#5E47D2"/>
<path d="M59.9292 134.449C59.9981 134.449 59.9439 142.16 59.8061 151.667C59.6683 161.174 59.501 168.881 59.4272 168.881C59.3583 168.881 59.4124 161.174 59.5502 151.662C59.688 142.155 59.8553 134.449 59.9292 134.449Z" fill="#263238"/>
<path d="M64.1764 139.13C64.201 139.15 64.0091 139.464 63.64 139.931C63.2709 140.399 62.7197 141.001 62.0848 141.638C61.4499 142.274 60.8839 142.852 60.4853 143.284C60.0867 143.712 59.8455 143.986 59.816 143.966C59.7914 143.946 59.9833 143.633 60.3524 143.165C60.7215 142.697 61.2727 142.095 61.9076 141.459C62.5425 140.822 63.1085 140.245 63.5071 139.817C63.9057 139.389 64.1469 139.115 64.1764 139.135V139.13Z" fill="#263238"/>
<path d="M59.8455 144.145C59.8012 144.2 58.9104 143.573 57.8572 142.747C56.804 141.916 55.987 141.2 56.0264 141.14C56.0658 141.08 56.9566 141.712 58.0147 142.543C59.0679 143.374 59.8849 144.09 59.8406 144.15L59.8455 144.145Z" fill="#263238"/>
<path d="M59.6093 153.075C59.56 153.13 58.6004 152.284 57.3897 151.289C56.179 150.289 55.1652 149.513 55.2094 149.453C55.2488 149.399 56.3315 150.085 57.5521 151.09C58.7726 152.095 59.6585 153.03 59.6093 153.08V153.075Z" fill="#263238"/>
<path d="M64.5455 147.558C64.6095 147.608 63.5957 148.936 62.1685 150.409C61.504 151.11 60.9036 151.747 60.3721 152.309C59.9144 152.796 59.6388 153.105 59.6093 153.08C59.5453 153.03 60.5591 151.702 61.9864 150.229C62.6508 149.528 63.2512 148.891 63.7827 148.334C64.2404 147.846 64.516 147.538 64.5455 147.563V147.558Z" fill="#263238"/>
</g>
<defs>
<clipPath id="clip0_32_913">
<rect width="237" height="170" fill="white"/>
</clipPath>
</defs>
</svg>
