<svg width="710" height="368" viewBox="0 0 710 368" fill="none" xmlns="http://www.w3.org/2000/svg">
<g clip-path="url(#clip0_101_13084)">
<path d="M242.08 251H142V367.62H242.08V251Z" fill="#E6A452"/>
<path d="M304.63 251H240.29V367.62H304.63V251Z" fill="#D6943F"/>
<path d="M242.08 251H142V367.62H242.08V251Z" fill="#F0B88B"/>
<path d="M304.63 251H222.73V367.62H304.63V251Z" fill="#F7AA6C"/>
<path d="M187.56 300.64V309.33H304.64V300.64H187.56Z" fill="#D9C4AE"/>
<path d="M142 300.64V309.33H222.54V300.64H142Z" fill="#F7E8D5"/>
<path d="M181.97 251.03H173.56V367.64H181.97V251.03Z" fill="#F7E8D5"/>
<path d="M268.91 251.03H260.5V367.64H268.91V251.03Z" fill="#D9C4AE"/>
<path d="M231.79 289.28L232.67 289.27L232.64 283.59L234.23 283.58L232.19 280.09L230.19 283.6L231.77 283.59L231.79 289.28Z" fill="#6E5142"/>
<path d="M240.185 290.069L230.215 290.112L230.219 290.992L240.189 290.949L240.185 290.069Z" fill="#6E5142"/>
<path d="M236.19 283.57H237.77L237.8 289.25H238.68L238.65 283.56H240.23L238.2 280.07L236.19 283.57Z" fill="#6E5142"/>
<path d="M238.74 277.13L231.62 277.16C228.96 277.17 226.81 279.34 226.82 282L226.85 289.12C226.86 291.78 229.03 293.93 231.69 293.92L238.81 293.89C241.47 293.88 243.62 291.71 243.61 289.05L243.58 281.93C243.57 279.27 241.4 277.12 238.74 277.13ZM242.35 289.05C242.35 291.01 240.77 292.61 238.81 292.62L231.69 292.65C229.73 292.65 228.13 291.07 228.12 289.11L228.09 281.99C228.09 280.03 229.67 278.43 231.63 278.42L238.75 278.39C240.71 278.39 242.31 279.97 242.32 281.93L242.35 289.05Z" fill="#6E5142"/>
<path d="M237.58 259.16H235.34L235.94 260.92L236.53 260.6L237.17 263.32L236.26 261.19L235.78 261.46L234.91 259.17H233.65C233.65 259.17 232.1 262.26 232.53 264.24C232.9 265.95 234.94 265.98 235.49 265.96V270.28C234.7 270.33 233.83 270.61 233.34 270.8C233.25 270.83 233.27 270.97 233.37 270.97H237.95C238.04 270.97 238.07 270.84 237.98 270.8C237.49 270.6 236.61 270.3 235.8 270.27V265.96C236.42 265.98 238.34 265.89 238.7 264.24C239.13 262.27 237.58 259.17 237.58 259.17V259.16Z" fill="#6E5142"/>
<path d="M239.18 256.38H232.06C229.4 256.38 227.24 258.54 227.24 261.2V268.32C227.24 270.98 229.4 273.14 232.06 273.14H239.18C241.84 273.14 244 270.98 244 268.32V261.2C244 258.54 241.84 256.38 239.18 256.38ZM242.74 268.32C242.74 270.28 241.14 271.88 239.18 271.88H232.06C230.1 271.88 228.5 270.29 228.5 268.32V261.2C228.5 259.24 230.1 257.64 232.06 257.64H239.18C241.14 257.64 242.74 259.23 242.74 261.2V268.32Z" fill="#6E5142"/>
<path d="M213.67 255.89H189.12V284.02H213.67V255.89Z" fill="white"/>
<path d="M206.77 260.24H191.94V261.77H206.77V260.24Z" fill="#998477"/>
<path d="M210.41 269.31H195.58V270.84H210.41V269.31Z" fill="#998477"/>
<path d="M201.15 264.58H191.94V266.11H201.15V264.58Z" fill="#8B766B"/>
<path d="M206.7 264.58H202.93V266.11H206.7V264.58Z" fill="#6E5142"/>
<path d="M206.7 264.58H202.93V266.11H206.7V264.58Z" fill="#806E63"/>
<path d="M201.15 274.04H191.94V275.57H201.15V274.04Z" fill="#806E63"/>
<path d="M206.7 274.04H202.93V275.57H206.7V274.04Z" fill="#806E63"/>
<path d="M209.97 264.58H208.24V266.11H209.97V264.58Z" fill="#806E63"/>
<path d="M195.67 278.33H191.9V279.86H195.67V278.33Z" fill="#998477"/>
<path d="M198.94 278.33H197.21V279.86H198.94V278.33Z" fill="#806E63"/>
<path d="M193.73 269.31H192V270.84H193.73V269.31Z" fill="#806E63"/>
<path d="M534.66 220.49H443.57V368.2H534.66V220.49Z" fill="#D6943F"/>
<path d="M443.57 220.49H393.62V368.2H443.57V220.49Z" fill="#F0AA57"/>
<path d="M534.66 202H443.57V236.24H534.66V202Z" fill="#B97E36"/>
<path d="M443.57 202H393.62V236.24H443.57V202Z" fill="#CB9348"/>
<path d="M540.53 202H443.57V229.41H540.53V202Z" fill="#D6943F"/>
<path d="M449.5 202H387V229.41H449.5V202Z" fill="#F0AA57"/>
<path d="M423.58 202H409.6V224.48H423.58V202Z" fill="#F7E8D5"/>
<path d="M503.11 202H489.13V224.48H503.11V202Z" fill="#D9C4AE"/>
<path d="M510.61 347.22V346.52H510.26V347.22C505.46 347.36 504.85 352.26 504.85 352.26C504.85 352.26 507.33 351.66 508.22 353.01C508.22 353.01 509.11 352.48 510.29 352.36L510.31 357.84C510.31 357.84 510.35 358.71 510.3 358.93C510.22 359.27 509.87 359.15 509.83 358.84C509.8 358.58 509.59 358.58 509.55 358.77C509.51 358.97 509.72 359.51 510.2 359.45C510.68 359.39 510.67 358.98 510.67 358.98V357.84L510.64 352.34C511.35 352.33 512.14 352.48 512.89 352.99C512.89 352.99 514.95 351.56 516.19 352.44C516.19 352.44 515.78 347.3 510.61 347.21V347.22Z" fill="#6C584B"/>
<path d="M514.04 344.59L506.92 344.62C504.26 344.63 502.11 346.8 502.12 349.46L502.15 356.58C502.16 359.24 504.33 361.39 506.99 361.38L514.11 361.35C516.77 361.34 518.92 359.17 518.91 356.51L518.88 349.39C518.87 346.73 516.7 344.58 514.04 344.59ZM517.65 356.51C517.65 358.47 516.07 360.07 514.11 360.08L506.99 360.11C505.03 360.11 503.43 358.53 503.42 356.57L503.39 349.45C503.39 347.49 504.97 345.89 506.93 345.88L514.05 345.85C516.01 345.85 517.61 347.43 517.62 349.39L517.65 356.51Z" fill="#6C584B"/>
<path d="M487.48 356.74H488.36L488.33 351.06L489.92 351.05L487.88 347.56L485.88 351.07L487.46 351.06L487.48 356.74Z" fill="#6C584B"/>
<path d="M495.882 357.565L485.913 357.609L485.916 358.489L495.886 358.445L495.882 357.565Z" fill="#6C584B"/>
<path d="M491.88 351.04L493.46 351.03L493.49 356.72L494.37 356.71L494.34 351.03L495.92 351.02L493.89 347.53L491.88 351.04Z" fill="#6C584B"/>
<path d="M494.43 344.59L487.31 344.62C484.65 344.63 482.5 346.8 482.51 349.46L482.54 356.58C482.55 359.24 484.72 361.39 487.38 361.38L494.5 361.35C497.16 361.34 499.31 359.17 499.3 356.51L499.27 349.39C499.26 346.73 497.09 344.58 494.43 344.59ZM498.04 356.51C498.04 358.47 496.46 360.07 494.5 360.08L487.38 360.11C485.42 360.11 483.82 358.53 483.81 356.57L483.78 349.45C483.78 347.49 485.36 345.89 487.32 345.88L494.44 345.85C496.4 345.85 498 347.43 498.01 349.39L498.04 356.51Z" fill="#6C584B"/>
<path d="M473.08 347.39H470.84L471.44 349.15L472.03 348.83L472.67 351.55L471.76 349.42L471.28 349.69L470.41 347.4H469.15C469.15 347.4 467.6 350.49 468.03 352.47C468.4 354.18 470.44 354.21 470.99 354.19V358.51C470.2 358.56 469.33 358.84 468.84 359.03C468.75 359.06 468.77 359.2 468.87 359.2H473.45C473.54 359.2 473.57 359.07 473.48 359.03C472.99 358.83 472.11 358.53 471.3 358.5V354.19C471.92 354.21 473.84 354.12 474.2 352.47C474.63 350.5 473.08 347.4 473.08 347.4V347.39Z" fill="#6C584B"/>
<path d="M474.68 344.61H467.56C464.9 344.61 462.74 346.77 462.74 349.43V356.55C462.74 359.21 464.9 361.37 467.56 361.37H474.68C477.34 361.37 479.5 359.21 479.5 356.55V349.43C479.5 346.77 477.34 344.61 474.68 344.61ZM478.24 356.55C478.24 358.51 476.64 360.11 474.68 360.11H467.56C465.6 360.11 464 358.51 464 356.55V349.43C464 347.47 465.6 345.87 467.56 345.87H474.68C476.64 345.87 478.24 347.47 478.24 349.43V356.55Z" fill="#6C584B"/>
<path d="M504.05 249.51H459.69V271.28H504.05V249.51Z" fill="#D9C4AE"/>
<path d="M482.51 253.31H463.33V254.65H482.51V253.31Z" fill="#998477"/>
<path d="M487.22 261.26H468.04V262.6H487.22V261.26Z" fill="#998477"/>
<path d="M475.23 257.12H463.33V258.46H475.23V257.12Z" fill="#8B766B"/>
<path d="M489.59 253.37H484.71V254.71H489.59V253.37Z" fill="#998477"/>
<path d="M494.36 261.21H489.48V262.55H494.36V261.21Z" fill="#806E63"/>
<path d="M475.23 265.4H463.33V266.74H475.23V265.4Z" fill="#806E63"/>
<path d="M482.43 265.4H477.55V266.74H482.43V265.4Z" fill="#806E63"/>
<path d="M486.64 257.12H484.41V258.46H486.64V257.12Z" fill="#806E63"/>
<path d="M465.64 261.26H463.41V262.6H465.64V261.26Z" fill="#806E63"/>
<path d="M508.47 282.61H460.93V293.69H508.47V282.61Z" fill="#F7E8D5"/>
<path d="M464.31 284.15H463.32V292.1H464.31V284.15Z" fill="#484747"/>
<path d="M468.22 284.15H465.93V292.1H468.22V284.15Z" fill="#484747"/>
<path d="M470.4 284.15H469.53V292.1H470.4V284.15Z" fill="#484747"/>
<path d="M472.75 284.15H471.82V292.1H472.75V284.15Z" fill="#484747"/>
<path d="M477.59 284.15H474.65V292.1H477.59V284.15Z" fill="#484747"/>
<path d="M479.98 284.15H479.33V292.1H479.98V284.15Z" fill="#484747"/>
<path d="M485 284.15H481.08V292.1H485V284.15Z" fill="#484747"/>
<path d="M487.18 284.15H486.2V292.1H487.18V284.15Z" fill="#484747"/>
<path d="M491.32 284.15H489.36V292.1H491.32V284.15Z" fill="#484747"/>
<path d="M493.47 284.15H492.41V292.1H493.47V284.15Z" fill="#484747"/>
<path d="M498.51 284.15H497.09V292.1H498.51V284.15Z" fill="#484747"/>
<path d="M499.94 284.15H499.38V292.1H499.94V284.15Z" fill="#484747"/>
<path d="M503.85 284.15H501.67V292.1H503.85V284.15Z" fill="#484747"/>
<path d="M506.13 284.15H505.37V292.1H506.13V284.15Z" fill="#484747"/>
<path d="M379.522 289.506H244V367.123H379.522V289.506Z" fill="#D6A85F"/>
<path d="M353.47 289.506H347.068V367.123H353.47V289.506Z" fill="#D9C4AE"/>
<path d="M320.084 289.506H244V367.123H320.084V289.506Z" fill="#F2CA89"/>
<path d="M244 289.506L266.842 270H327.005L300.265 289.506H244Z" fill="#D6A85F"/>
<path d="M379.81 289.506L350.485 279.6H291.047L320.078 289.506H379.81Z" fill="#EBBE73"/>
<path d="M347.068 289.506H353.47L331.173 279.625L324.502 279.6L347.068 289.506Z" fill="#F0DCC0"/>
<path d="M291.047 279.6L320.078 289.506L291.961 281.308C291.216 280.882 290.96 280.119 291.041 279.6H291.047Z" fill="#F2CA89"/>
<path d="M327.005 270H266.842L267.217 271.383L325.998 270.745L327.005 270Z" fill="#E8B86D"/>
<path d="M283.7 289.506H277.299V322.485H283.7V289.506Z" fill="#F7E8D5"/>
<path d="M244 289.506L266.842 270L267.273 270.35C267.655 270.663 267.649 271.245 267.255 271.546L244 289.506Z" fill="#F2CA89"/>
<path d="M281.554 329.595H279.871L280.321 330.921L280.765 330.677L281.247 332.724L280.565 331.115L280.202 331.316L279.551 329.588H278.6C278.6 329.588 277.436 331.916 277.755 333.406C278.031 334.689 279.57 334.714 279.983 334.695V337.949C279.389 337.987 278.738 338.199 278.362 338.343C278.294 338.368 278.312 338.468 278.387 338.468H281.836C281.904 338.468 281.923 338.368 281.861 338.343C281.491 338.193 280.828 337.968 280.221 337.949V334.701C280.69 334.714 282.136 334.651 282.405 333.406C282.724 331.916 281.56 329.588 281.56 329.588L281.554 329.595Z" fill="#6C584B"/>
<path d="M282.749 327.504H277.392C275.39 327.504 273.763 329.131 273.763 331.134V336.491C273.763 338.493 275.39 340.12 277.392 340.12H282.749C284.752 340.12 286.379 338.493 286.379 336.491V331.134C286.379 329.131 284.752 327.504 282.749 327.504ZM285.428 336.491C285.428 337.968 284.226 339.169 282.749 339.169H277.392C275.916 339.169 274.714 337.968 274.714 336.491V331.134C274.714 329.657 275.916 328.456 277.392 328.456H282.749C284.226 328.456 285.428 329.657 285.428 331.134V336.491Z" fill="#6C584B"/>
<path d="M295.709 350.108H265.959V357.042H295.709V350.108Z" fill="#F7E8D5"/>
<path d="M268.074 351.072H267.455V356.047H268.074V351.072Z" fill="#484747"/>
<path d="M270.521 351.072H269.088V356.047H270.521V351.072Z" fill="#484747"/>
<path d="M271.885 351.072H271.341V356.047H271.885V351.072Z" fill="#484747"/>
<path d="M273.35 351.072H272.768V356.047H273.35V351.072Z" fill="#484747"/>
<path d="M276.385 351.072H274.545V356.047H276.385V351.072Z" fill="#484747"/>
<path d="M277.881 351.072H277.474V356.047H277.881V351.072Z" fill="#292623"/>
<path d="M281.016 351.072H278.563V356.047H281.016V351.072Z" fill="#484747"/>
<path d="M282.386 351.072H281.773V356.047H282.386V351.072Z" fill="#484747"/>
<path d="M284.977 351.072H283.75V356.047H284.977V351.072Z" fill="#484747"/>
<path d="M286.322 351.072H285.659V356.047H286.322V351.072Z" fill="#484747"/>
<path d="M289.476 351.072H288.588V356.047H289.476V351.072Z" fill="#484747"/>
<path d="M290.371 351.072H290.021V356.047H290.371V351.072Z" fill="#484747"/>
<path d="M292.818 351.072H291.454V356.047H292.818V351.072Z" fill="#484747"/>
<path d="M294.245 351.072H293.769V356.047H294.245V351.072Z" fill="#484747"/>
<path d="M295.709 350.108H265.959V357.042H295.709V350.108Z" fill="#F7E8D5"/>
<path d="M268.074 351.072H267.455V356.047H268.074V351.072Z" fill="#484747"/>
<path d="M270.521 351.072H269.088V356.047H270.521V351.072Z" fill="#484747"/>
<path d="M271.885 351.072H271.341V356.047H271.885V351.072Z" fill="#484747"/>
<path d="M273.35 351.072H272.768V356.047H273.35V351.072Z" fill="#484747"/>
<path d="M276.385 351.072H274.545V356.047H276.385V351.072Z" fill="#484747"/>
<path d="M277.881 351.072H277.474V356.047H277.881V351.072Z" fill="#484747"/>
<path d="M281.016 351.072H278.563V356.047H281.016V351.072Z" fill="#484747"/>
<path d="M282.386 351.072H281.773V356.047H282.386V351.072Z" fill="#484747"/>
<path d="M284.977 351.072H283.75V356.047H284.977V351.072Z" fill="#484747"/>
<path d="M286.322 351.072H285.659V356.047H286.322V351.072Z" fill="#484747"/>
<path d="M289.476 351.072H288.588V356.047H289.476V351.072Z" fill="#484747"/>
<path d="M290.371 351.072H290.021V356.047H290.371V351.072Z" fill="#484747"/>
<path d="M292.818 351.072H291.454V356.047H292.818V351.072Z" fill="#484747"/>
<path d="M294.245 351.072H293.769V356.047H294.245V351.072Z" fill="#484747"/>
<g clip-path="url(#clip1_101_13084)">
<path d="M620.27 200.78L633.05 166H693.66L675.5 200.78H620.27Z" fill="#D6943F"/>
<path d="M534.86 200.78H620.27L607.48 166.68H519L534.86 200.78Z" fill="#E6A452"/>
<path d="M620.78 200.78H534.86V368.24H620.78V200.78Z" fill="#F0B873"/>
<path d="M675.5 200.78H620.27V368.24H675.5V200.78Z" fill="#E6A452"/>
<path d="M580.38 200.78H571.17V368.24H580.38V200.78Z" fill="#F7E8D5"/>
<path d="M644.81 368.01H654.02V200.77H644.81V368.01Z" fill="#D0B594"/>
<path d="M654.02 200.78H644.81L657.09 166H666.81L654.02 200.78Z" fill="#CBAD8A"/>
<path d="M571.17 200.78H580.38L566.87 166.68H557.61L571.17 200.78Z" fill="#D1CBAF"/>
<path d="M603.52 324.37L604.34 321.49L603.6 321.93L602.76 320.63C602.76 320.63 602.11 320.15 601.49 320.73C600.87 321.31 600.46 322.07 600.46 322.07L601.27 323.32L600.49 323.79L603.51 324.37H603.52Z" fill="#6C584B"/>
<path d="M601.47 320.39H598.31C598.31 320.39 597.73 320.6 597.11 321.9C596.49 323.2 596.18 323.62 596.18 323.62L598.1 325.58C598.1 325.58 599.4 323.55 599.92 322.35C600.43 321.15 601.46 320.39 601.46 320.39H601.47Z" fill="#6C584B"/>
<path d="M604.61 330.07L603.12 330.13V329.22L601.08 331.52L603.14 333.7V332.84L604.68 332.78C604.68 332.78 605.43 332.47 605.24 331.63C605.05 330.8 604.61 330.06 604.61 330.06V330.07Z" fill="#6C584B"/>
<path d="M605.47 325.59L602.81 326.25C602.81 326.25 603.89 328.4 604.66 329.46C605.43 330.51 605.56 331.78 605.56 331.78L607.17 329.06C607.17 329.06 607.29 328.45 606.48 327.26C605.67 326.06 605.47 325.59 605.47 325.59Z" fill="#6C584B"/>
<path d="M595.61 329.84L596.38 328.57L597.14 329.07L596.36 326.1L593.41 326.61L594.13 327.09L593.32 328.41C593.32 328.41 593.17 329.21 593.96 329.51C594.75 329.81 595.61 329.86 595.61 329.86V329.84Z" fill="#6C584B"/>
<path d="M596.1 330.22C594.79 330.28 593.67 329.68 593.67 329.68L595.04 332.53C595.04 332.53 595.48 332.97 596.92 332.96C598.36 332.96 598.87 333.05 598.87 333.05L599.8 330.47C599.8 330.47 597.41 330.17 596.1 330.23V330.22Z" fill="#6C584B"/>
<path d="M604.12 317.91H596.36C593.46 317.91 591.11 320.27 591.11 323.16V330.92C591.11 333.82 593.47 336.17 596.36 336.17H604.12C607.02 336.17 609.37 333.81 609.37 330.92V323.16C609.37 320.26 607.01 317.91 604.12 317.91ZM607.99 330.92C607.99 333.06 606.25 334.79 604.12 334.79H596.36C594.22 334.79 592.49 333.05 592.49 330.92V323.16C592.49 321.02 594.23 319.29 596.36 319.29H604.12C606.26 319.29 607.99 321.03 607.99 323.16V330.92Z" fill="#6C584B"/>
<path d="M600.17 345.24V344.4H599.76V345.24C594.05 345.4 593.32 351.24 593.32 351.24C593.32 351.24 596.27 350.52 597.33 352.14C597.33 352.14 598.39 351.51 599.79 351.37L599.82 357.89C599.82 357.89 599.86 358.92 599.8 359.18C599.71 359.58 599.29 359.44 599.25 359.07C599.21 358.76 598.97 358.75 598.92 358.99C598.87 359.23 599.12 359.88 599.69 359.8C600.26 359.73 600.24 359.24 600.24 359.24V357.89L600.21 351.34C601.05 351.32 601.99 351.51 602.89 352.11C602.89 352.11 605.34 350.41 606.82 351.46C606.82 351.46 606.33 345.34 600.18 345.24H600.17Z" fill="#6C584B"/>
<path d="M604.26 342.12L595.79 342.16C592.63 342.17 590.06 344.76 590.08 347.92L590.12 356.39C590.13 359.55 592.72 362.12 595.88 362.1L604.35 362.06C607.51 362.05 610.08 359.46 610.06 356.3L610.02 347.83C610.01 344.67 607.42 342.1 604.26 342.12ZM608.56 356.31C608.57 358.64 606.68 360.55 604.35 360.56L595.88 360.6C593.55 360.61 591.64 358.72 591.63 356.39L591.59 347.92C591.58 345.59 593.47 343.68 595.8 343.67L604.27 343.63C606.6 343.62 608.51 345.51 608.52 347.84L608.56 356.31Z" fill="#6C584B"/>
</g>
<path d="M142.44 295H-2V368.359H142.44V295Z" fill="#E6A452"/>
<path d="M95.8893 295H-2V368.359H95.8893V295Z" fill="#F0B873"/>
<path d="M114.668 327.827V335.497H142.44V327.827H114.668Z" fill="#D9C4AE"/>
<path d="M-2 295V296.568L45.5912 339.308L95.8823 296.631V295H-2Z" fill="#D39A59"/>
<path d="M-2 295L45.5912 336.432L95.8823 295H-2Z" fill="#F0B873"/>
<path d="M-2 368.366V366.679L45.5912 323.953L95.8823 366.622V368.366H-2Z" fill="#D39A59"/>
<path d="M-2 368.366L45.5912 326.828L95.8823 368.366H-2Z" fill="#F0B873"/>
<path d="M50.3862 309.828H40.4377V354.944H50.3862V309.828Z" fill="#F7E8D5"/>
</g>
<defs>
<clipPath id="clip0_101_13084">
<rect width="709.94" height="368.45" fill="white"/>
</clipPath>
<clipPath id="clip1_101_13084">
<rect width="174.66" height="202.24" fill="white" transform="translate(519 166)"/>
</clipPath>
</defs>
</svg>
