<svg width="214" height="33" viewBox="0 0 214 33" fill="none" xmlns="http://www.w3.org/2000/svg">
<path d="M0.744 27H2.544V5.112L12.516 19.62H12.66L22.632 5.112V27H24.504V1.8H22.74L12.624 16.704L2.508 1.8H0.744V27ZM40.0619 27.432C43.5899 27.432 45.7859 25.992 47.6579 23.976L46.4339 22.896C44.9219 24.516 42.9779 25.776 40.1339 25.776C36.5339 25.776 33.2579 23.112 32.9339 18.54H48.1619C48.1979 18.252 48.1979 18.144 48.1979 17.82C48.1979 12.384 44.9219 8.208 39.7739 8.208C34.8059 8.208 31.0619 12.456 31.0619 17.784V17.856C31.0619 23.58 35.2379 27.432 40.0619 27.432ZM32.9339 16.956C33.2579 12.888 36.0659 9.828 39.7019 9.828C43.9139 9.828 46.0379 13.248 46.2899 16.956H32.9339ZM54.3173 27H56.0813V0.719999H54.3173V27ZM64.0022 27H65.7662V0.719999H64.0022V27ZM81.571 27.432C87.043 27.432 91.039 22.968 91.039 17.82V17.748C91.039 12.6 87.079 8.208 81.643 8.208C76.171 8.208 72.175 12.672 72.175 17.82V17.892C72.175 23.04 76.135 27.432 81.571 27.432ZM81.643 25.776C77.395 25.776 74.083 22.248 74.083 17.82V17.748C74.083 13.428 77.215 9.864 81.571 9.864C85.819 9.864 89.131 13.392 89.131 17.82V17.892C89.131 22.212 85.999 25.776 81.643 25.776ZM97.5784 27H108.522C113.958 27 117.558 24.336 117.558 20.124V20.052C117.558 16.56 114.894 14.832 111.87 14.04C113.922 13.212 116.154 11.484 116.154 8.064V7.992C116.154 6.408 115.578 5.076 114.534 4.032C113.13 2.628 110.826 1.8 107.982 1.8H97.5784V27ZM99.4504 13.428V3.528H107.946C111.978 3.528 114.246 5.4 114.246 8.172V8.244C114.246 11.592 111.546 13.428 107.766 13.428H99.4504ZM99.4504 25.272V15.156H107.982C112.95 15.156 115.65 16.956 115.65 20.052V20.124C115.65 23.292 112.914 25.272 108.594 25.272H99.4504ZM123.883 27H125.647V19.476C125.647 13.5 129.355 10.296 133.603 10.296H133.783V8.352C130.147 8.208 127.087 10.584 125.647 13.86V8.64H123.883V27ZM139.053 3.852H141.249V1.44H139.053V3.852ZM139.269 27H141.033V8.64H139.269V27ZM156.442 27.432C160.078 27.432 162.418 25.308 164.002 22.896V27H165.766V0.719999H164.002V12.6C162.49 10.296 160.114 8.208 156.442 8.208C152.014 8.208 147.514 11.844 147.514 17.82V17.892C147.514 23.868 152.014 27.432 156.442 27.432ZM156.622 25.74C152.77 25.74 149.422 22.644 149.422 17.82V17.748C149.422 12.816 152.626 9.9 156.622 9.9C160.438 9.9 164.11 13.068 164.11 17.784V17.856C164.11 22.536 160.438 25.74 156.622 25.74ZM181.251 32.832C183.951 32.832 186.327 31.968 187.911 30.384C189.387 28.908 190.251 26.82 190.251 24.156V8.64H188.487V12.312C186.975 10.152 184.491 8.208 180.819 8.208C176.391 8.208 171.999 11.628 171.999 16.92V16.992C171.999 22.248 176.391 25.632 180.819 25.632C184.455 25.632 186.903 23.652 188.487 21.384V24.048C188.487 28.764 185.499 31.176 181.287 31.176C178.587 31.176 176.067 30.276 173.871 28.584L172.827 30.024C175.347 31.896 178.191 32.832 181.251 32.832ZM180.999 23.94C177.219 23.94 173.907 21.06 173.907 16.92V16.848C173.907 12.564 177.147 9.9 180.999 9.9C184.815 9.9 188.595 12.636 188.595 16.884V16.956C188.595 21.132 184.815 23.94 180.999 23.94ZM205.413 27.432C208.941 27.432 211.137 25.992 213.009 23.976L211.785 22.896C210.273 24.516 208.329 25.776 205.485 25.776C201.885 25.776 198.609 23.112 198.285 18.54H213.513C213.549 18.252 213.549 18.144 213.549 17.82C213.549 12.384 210.273 8.208 205.125 8.208C200.157 8.208 196.413 12.456 196.413 17.784V17.856C196.413 23.58 200.589 27.432 205.413 27.432ZM198.285 16.956C198.609 12.888 201.417 9.828 205.053 9.828C209.265 9.828 211.389 13.248 211.641 16.956H198.285Z" fill="white"/>
</svg>
