<svg width="301" height="170" viewBox="0 0 301 170" fill="none" xmlns="http://www.w3.org/2000/svg">
<g clip-path="url(#clip0_32_1011)">
<path d="M240.298 56.3337C218.978 -9.65066 104.418 -12.5194 95.6209 61.5135C95.6209 61.5135 88.8292 62.8677 82.8387 61.9444C50.1728 56.9126 -6.98559 119.894 36.8824 168.021H281.858C308.364 122.059 289.325 75.0302 240.298 56.3326V56.3337Z" fill="#F6F5F5"/>
<path d="M181.431 97.651L181.009 97.237C208.353 68.9338 209.441 53.4527 211.085 30.0219C211.668 21.7243 212.327 12.3374 214.221 1.00849C201.271 7.06898 190.774 15.4619 183.014 25.9628C176.725 34.4736 172.206 44.381 169.586 55.4115C165.121 74.2089 167.759 89.9581 167.786 90.1152L167.205 90.2173C167.177 90.0591 164.52 74.2089 169.008 55.296C171.644 44.1825 176.195 34.1987 182.532 25.6195C190.454 14.8965 201.204 6.35545 214.482 0.233256L214.989 -0.0012207L214.894 0.552997C212.933 12.1029 212.263 21.6447 211.671 30.0634C210.018 53.6255 208.925 69.1918 181.429 97.651H181.431Z" fill="#DADADA"/>
<path d="M176.278 91.5714L175.706 91.4234C175.815 90.9993 186.704 48.678 200.404 25.1854L200.913 25.4861C187.254 48.9079 176.386 91.1474 176.278 91.5714Z" fill="#DADADA"/>
<path d="M191.378 45.0745L190.788 45.0532C190.792 44.9679 191.038 36.4729 186.63 28.2976L187.148 28.0149C191.635 36.3394 191.381 44.9892 191.378 45.0756V45.0745Z" fill="#DADADA"/>
<path d="M185.093 62.2821L184.679 61.8614C190.944 55.5967 199.131 53.6614 199.212 53.6423L199.343 54.2212C199.263 54.2392 191.235 56.1419 185.093 62.2821Z" fill="#DADADA"/>
<path d="M202.232 115.788L202.174 115.196C212.836 114.133 221.485 106.939 228.615 93.2049C234.93 81.0368 239.27 65.4884 243.466 50.4527C246.186 40.7046 248.76 31.4848 251.763 23.5014C221.078 31.2223 208.361 55.7111 208.235 55.959L207.71 55.6897C207.838 55.4373 220.819 30.4224 252.17 22.7901L252.715 22.6577L252.514 23.185C249.434 31.2638 246.811 40.663 244.034 50.6143C239.83 65.6791 235.482 81.2567 229.137 93.4797C221.909 107.406 213.108 114.703 202.233 115.788H202.232Z" fill="#DADADA"/>
<path d="M199.619 101.208L199.081 100.968C199.26 100.561 217.183 60.1504 232.239 48.4008L232.6 48.8697C226.428 53.686 218.772 64.2577 210.456 79.4414C204.163 90.9308 199.665 101.107 199.619 101.208Z" fill="#DADADA"/>
<path d="M219.426 64.1433L218.846 64.0344C218.855 63.9896 219.687 59.4133 220.427 48.3571L221.015 48.3974C220.272 59.4964 219.435 64.0984 219.426 64.1433Z" fill="#DADADA"/>
<path d="M209.376 81.3553L209.042 80.8662C209.123 80.8101 217.311 75.1883 228.06 72.7201L228.19 73.299C217.551 75.7414 209.456 81.2992 209.376 81.3542V81.3553Z" fill="#DADADA"/>
<path d="M66.6132 154.576C40.134 127.168 39.081 112.176 37.4886 89.4836C36.9192 81.3768 36.274 72.1873 34.3864 61.0659L34.2928 60.5117L34.7998 60.7462C63.7673 74.1001 74.6051 96.9554 78.5965 113.777C82.9189 131.992 80.3593 147.259 80.3326 147.411L79.752 147.308C79.7777 147.157 82.3172 131.993 78.0182 113.893C74.078 97.3066 63.4219 74.8024 35.0605 61.5203C36.8824 72.4207 37.5165 81.4542 38.077 89.4398C39.6604 112.002 40.7067 126.907 67.0367 154.16L66.6144 154.574L66.6132 154.576Z" fill="#DADADA"/>
<path d="M71.573 148.718C71.4694 148.309 61.0027 107.634 47.8506 85.0813L48.3587 84.7806C61.5532 107.406 72.0399 148.161 72.1436 148.569L71.5719 148.718H71.573Z" fill="#DADADA"/>
<path d="M57.0313 103.938C57.028 103.855 56.7828 95.5217 61.1052 87.5035L61.6234 87.7863C57.3801 95.6575 57.6174 103.835 57.6197 103.917L57.0302 103.938H57.0313Z" fill="#DADADA"/>
<path d="M63.0865 120.516C57.174 114.605 49.4462 112.775 49.3694 112.756L49.5008 112.178C49.58 112.196 57.4659 114.06 63.5021 120.096L63.0865 120.516Z" fill="#DADADA"/>
<path d="M48.4122 164.987C25.6625 162.857 16.5553 137.466 8.51999 115.063C5.80442 107.491 3.23818 100.338 0.262976 94.1833L0 93.6403L0.588354 93.7625C15.9558 96.9824 26.5495 103.733 32.7294 108.829C39.4342 114.356 42.5476 119.197 42.5777 119.245L42.0807 119.565C41.9603 119.375 29.7966 100.707 1.05413 94.4693C3.93239 100.528 6.43289 107.497 9.0738 114.862C17.0489 137.098 26.0893 162.301 48.4657 164.397L48.4111 164.988L48.4122 164.987Z" fill="#DADADA"/>
<path d="M50.6787 153.956C50.5071 153.646 33.3234 122.922 19.2151 113.911L19.5305 113.409C33.7635 122.501 51.0197 153.355 51.1924 153.665L50.6776 153.956H50.6787Z" fill="#DADADA"/>
<path d="M31.6987 125.603C31.6909 125.568 30.8507 122.064 30.0217 113.636L30.6078 113.578C31.4313 121.954 32.2625 125.428 32.2703 125.462L31.6976 125.603H31.6987Z" fill="#DADADA"/>
<path d="M41.3297 138.811C41.2539 138.767 33.6075 134.455 23.6255 132.476L23.7392 131.894C33.8192 133.893 41.5436 138.25 41.6205 138.294L41.3297 138.81V138.811Z" fill="#DADADA"/>
<path d="M259.92 167.617L259.781 167.041C284.829 160.883 289.551 133.793 294.119 107.597C295.723 98.4015 297.379 88.8991 299.912 80.6744C274.979 85.484 260.855 102.817 253.383 116.559C245.223 131.568 243.015 145.655 242.994 145.795L242.411 145.705C242.432 145.564 244.653 131.389 252.859 116.29C260.439 102.341 274.82 84.7211 300.288 79.9991L300.77 79.9093L300.622 80.3805C298.017 88.6747 296.331 98.3466 294.701 107.699C290.101 134.085 285.345 161.367 259.921 167.617H259.92Z" fill="#DADADA"/>
<path d="M257.776 152.768L257.208 152.609C257.299 152.276 266.534 119.218 281.554 106.163L281.94 106.613C267.055 119.549 257.867 152.437 257.776 152.768Z" fill="#DADADA"/>
<path d="M268.392 125.049L267.815 124.929C267.828 124.861 269.177 118.126 268.704 108.236L269.293 108.207C269.77 118.177 268.406 124.98 268.393 125.048L268.392 125.049Z" fill="#DADADA"/>
<path d="M260.449 139.437L260.087 138.968C260.168 138.904 268.411 132.496 279.799 128.425L279.996 128.983C268.697 133.024 260.531 139.373 260.449 139.437Z" fill="#DADADA"/>
<path d="M202.129 46.2435C201.072 46.2435 200.213 45.3785 200.213 44.3138C200.213 43.2491 201.072 42.3842 202.129 42.3842C203.185 42.3842 204.044 43.2491 204.044 44.3138C204.044 45.3785 203.185 46.2435 202.129 46.2435ZM202.129 42.9788C201.398 42.9788 200.803 43.5779 200.803 44.3138C200.803 45.0498 201.398 45.6489 202.129 45.6489C202.86 45.6489 203.455 45.0498 203.455 44.3138C203.455 43.5779 202.86 42.9788 202.129 42.9788Z" fill="#DADADA"/>
<path d="M43.2585 76.0692C42.2021 76.0692 41.3419 75.2042 41.3419 74.1395C41.3419 73.0748 42.201 72.2098 43.2585 72.2098C44.316 72.2098 45.174 73.0748 45.174 74.1395C45.174 75.2042 44.3149 76.0692 43.2585 76.0692ZM43.2585 72.8044C42.5275 72.8044 41.9325 73.4035 41.9325 74.1395C41.9325 74.8755 42.5275 75.4746 43.2585 75.4746C43.9895 75.4746 44.5845 74.8755 44.5845 74.1395C44.5845 73.4035 43.9895 72.8044 43.2585 72.8044Z" fill="#DADADA"/>
<path d="M220.993 119.052C219.936 119.052 219.077 118.187 219.077 117.124C219.077 116.06 219.936 115.195 220.993 115.195C222.049 115.195 222.908 116.06 222.908 117.124C222.908 118.187 222.049 119.052 220.993 119.052ZM220.993 115.788C220.262 115.788 219.667 116.387 219.667 117.123C219.667 117.859 220.262 118.458 220.993 118.458C221.724 118.458 222.319 117.859 222.319 117.123C222.319 116.387 221.724 115.788 220.993 115.788Z" fill="#DADADA"/>
<path d="M286.182 98.4757C285.125 98.4757 284.266 97.6107 284.266 96.5471C284.266 95.4835 285.125 94.6174 286.182 94.6174C287.238 94.6174 288.097 95.4824 288.097 96.5471C288.097 97.6118 287.238 98.4757 286.182 98.4757ZM286.182 95.2109C285.451 95.2109 284.856 95.81 284.856 96.5471C284.856 97.2842 285.451 97.8822 286.182 97.8822C286.913 97.8822 287.508 97.2831 287.508 96.5471C287.508 95.8111 286.913 95.2109 286.182 95.2109Z" fill="#DADADA"/>
<path d="M214.656 92.9851C215.388 92.9851 215.982 92.3873 215.982 91.65C215.982 90.9127 215.388 90.3149 214.656 90.3149C213.923 90.3149 213.33 90.9127 213.33 91.65C213.33 92.3873 213.923 92.9851 214.656 92.9851Z" fill="#DADADA"/>
<path d="M275.717 142.152C276.45 142.152 277.043 141.555 277.043 140.817C277.043 140.08 276.45 139.482 275.717 139.482C274.985 139.482 274.391 140.08 274.391 140.817C274.391 141.555 274.985 142.152 275.717 142.152Z" fill="#DADADA"/>
<path d="M179.429 53.515C179.43 52.7776 178.837 52.1791 178.105 52.1781C177.373 52.177 176.778 52.7739 176.777 53.5113C176.776 54.2486 177.369 54.8471 178.101 54.8482C178.834 54.8492 179.428 54.2523 179.429 53.515Z" fill="#DADADA"/>
<path d="M31.6641 146.505C32.3965 146.505 32.9902 145.907 32.9902 145.17C32.9902 144.433 32.3965 143.835 31.6641 143.835C30.9318 143.835 30.3381 144.433 30.3381 145.17C30.3381 145.907 30.9318 146.505 31.6641 146.505Z" fill="#DADADA"/>
<path d="M69.4369 54.2987C69.2676 54.2987 69.0959 54.274 68.9255 54.2224L65.2583 53.1195C64.8003 52.9815 64.4237 52.673 64.1975 52.2501C63.9712 51.8282 63.9233 51.3425 64.0604 50.8847L65.3095 46.7079C63.7584 45.8788 62.3366 44.8388 61.0752 43.6103L57.5005 46.0404C56.6837 46.5946 55.5716 46.3792 55.0189 45.5602L52.875 42.3796C52.6075 41.9825 52.5095 41.5057 52.5997 41.0345C52.69 40.5633 52.9574 40.1549 53.353 39.8868L56.8865 37.4859C56.1377 35.7111 55.6685 33.8319 55.4914 31.8921L51.2993 31.4086C50.8247 31.3536 50.399 31.1158 50.1026 30.7399C49.8062 30.3652 49.6736 29.8963 49.7282 29.4206L50.1661 25.6039C50.2786 24.62 51.1667 23.9121 52.1462 24.0254L56.2836 24.5033C56.8386 22.7543 57.6431 21.1028 58.6805 19.5883L55.8234 16.6051C55.4925 16.2596 55.3153 15.8052 55.3242 15.3262C55.3343 14.846 55.5281 14.3995 55.8736 14.0663L58.6337 11.4029C59.3446 10.7163 60.4779 10.7387 61.1598 11.4523L63.9913 14.4085C65.5981 13.3718 67.3443 12.5943 69.1862 12.0951L68.9232 8.02037C68.8597 7.0331 69.6074 6.17597 70.5902 6.11202L74.4101 5.86184C75.4052 5.79565 76.2453 6.54844 76.31 7.53571L76.5741 11.6116C78.465 11.8662 80.2947 12.4092 82.0208 13.2271L84.4478 9.92535C85.0328 9.12881 86.1538 8.9594 86.946 9.54615L90.026 11.827C90.4104 12.1119 90.6611 12.5293 90.7324 13.0038C90.8038 13.4784 90.6868 13.9518 90.4026 14.3378L87.9545 17.6687C89.1769 19.0363 90.1875 20.5688 90.9631 22.2303L95.0036 21.2161C95.9608 20.9783 96.9325 21.5628 97.1709 22.5231L98.0969 26.2512C98.2117 26.7157 98.1415 27.1981 97.8963 27.6087C97.6501 28.0204 97.2589 28.311 96.7954 28.4277L92.7014 29.4542C92.7761 31.4007 92.5532 33.3248 92.0384 35.1826L95.8505 37.1022C96.2772 37.3176 96.5959 37.6867 96.7464 38.1422C96.8968 38.5966 96.8611 39.0835 96.6472 39.512L94.9312 42.9462C94.4888 43.8302 93.4135 44.1892 92.5321 43.7461L88.6732 41.8041C87.5823 43.1863 86.3053 44.4035 84.8734 45.4278L86.6507 49.4072C86.8457 49.8447 86.8602 50.3316 86.6909 50.7793C86.5215 51.228 86.1872 51.5837 85.7504 51.78L82.2581 53.3518C81.3589 53.7557 80.3003 53.3518 79.8969 52.4486L78.1107 48.4491C77.1791 48.6566 76.2253 48.7935 75.2726 48.8552C74.3198 48.918 73.3559 48.9068 72.4043 48.8227L71.1496 53.0208C70.9178 53.7972 70.2058 54.3009 69.4369 54.3009V54.2987ZM61.1454 42.8463L61.317 43.018C62.6363 44.3362 64.1428 45.4379 65.7965 46.2939L66.0149 46.4072L64.6242 51.0564C64.5329 51.3638 64.5652 51.688 64.7156 51.9696C64.8672 52.2523 65.1201 52.4599 65.4265 52.5519L69.0937 53.6547C69.7278 53.8443 70.3963 53.483 70.5847 52.848L71.9798 48.1832L72.2216 48.2079C73.2189 48.3088 74.2329 48.3268 75.2335 48.2617C76.2353 48.1955 77.2371 48.0452 78.2121 47.8152L78.4483 47.7591L80.4329 52.2029C80.7026 52.8077 81.4124 53.078 82.0152 52.8077L85.5075 51.2359C85.8005 51.1046 86.0234 50.8668 86.137 50.565C86.2507 50.2654 86.2407 49.9401 86.1103 49.6473L84.1335 45.2191L84.3352 45.0789C85.8663 44.0131 87.219 42.724 88.3556 41.2454L88.5038 41.0524L92.795 43.2121C93.3867 43.5105 94.1077 43.2693 94.403 42.6758L96.119 39.2417C96.2616 38.9556 96.2862 38.6302 96.1859 38.3262C96.0856 38.021 95.8727 37.7742 95.5864 37.6295L91.3342 35.4889L91.4033 35.2511C91.9704 33.3068 92.2056 31.2829 92.1008 29.2377L92.0886 28.9931L96.6528 27.8488C96.9636 27.7714 97.2255 27.5762 97.3904 27.3002C97.5542 27.0253 97.6021 26.7033 97.5253 26.3926L96.5993 22.6645C96.4399 22.0217 95.7892 21.629 95.1473 21.7905L90.631 22.9237L90.5296 22.6982C89.734 20.9345 88.6676 19.3156 87.3572 17.8875L87.1912 17.7068L89.929 13.9833C90.1185 13.7252 90.1976 13.4077 90.1497 13.0914C90.1017 12.7739 89.9346 12.4945 89.6772 12.3038L86.5973 10.023C86.0657 9.62917 85.3136 9.74361 84.9224 10.2765L82.2047 13.9732L81.984 13.8655C80.1788 12.9814 78.2533 12.4104 76.2598 12.168L76.0169 12.1389L75.7216 7.57273C75.6782 6.91194 75.1065 6.41045 74.4491 6.45196L70.6292 6.70214C69.9707 6.7459 69.4692 7.31806 69.5116 7.97998L69.8069 12.545L69.5695 12.6056C67.6239 13.1048 65.7876 13.9227 64.1105 15.0356L63.9055 15.1713L60.7342 11.8606C60.2762 11.3827 59.5163 11.3681 59.0404 11.8281L56.2803 14.4915C56.0496 14.7136 55.9193 15.0132 55.9126 15.334C55.9059 15.6549 56.0251 15.9589 56.2458 16.19L59.4405 19.5254L59.299 19.7263C58.1835 21.3115 57.3333 23.056 56.7717 24.9094L56.7004 25.1461L52.076 24.6132C51.4186 24.5313 50.8235 25.0115 50.7489 25.6701L50.311 29.4868C50.2742 29.8054 50.3633 30.1184 50.5617 30.3686C50.7611 30.621 51.0453 30.7803 51.364 30.8162L56.0363 31.3547L56.0552 31.5982C56.2168 33.64 56.7104 35.6157 57.5216 37.4713L57.6208 37.6979L53.6806 40.3748C53.4154 40.5554 53.236 40.828 53.1758 41.1433C53.1157 41.4574 53.1814 41.7772 53.3597 42.043L55.5036 45.2236C55.8747 45.7722 56.6202 45.917 57.1673 45.5445L61.142 42.843L61.1454 42.8463ZM74.0624 41.0782C68.4664 41.0782 63.7417 36.7006 63.374 31.0148C62.9907 25.0923 67.4791 19.9585 73.3793 19.5726C76.2375 19.3852 78.9954 20.3265 81.1483 22.2214C83.3011 24.1174 84.5882 26.7426 84.7743 29.6113C84.9603 32.4811 84.021 35.2511 82.1311 37.413C80.2412 39.5737 77.6271 40.8673 74.7689 41.0547C74.5326 41.0704 74.2964 41.0782 74.0624 41.0782ZM74.0925 20.1425C73.8685 20.1425 73.6434 20.1503 73.4172 20.1649C67.8412 20.5307 63.6002 25.3806 63.9612 30.9766C64.3234 36.5738 69.1583 40.828 74.7288 40.4634C77.4298 40.2862 79.9003 39.0644 81.6865 37.0226C83.4727 34.9807 84.3597 32.3633 84.1837 29.6517C84.0087 26.9412 82.7919 24.4607 80.7583 22.669C78.8952 21.0265 76.5484 20.1425 74.0914 20.1425H74.0925Z" fill="#DADADA"/>
<path d="M164.219 27.6133H76.5283C73.4937 27.6133 71.0337 30.0901 71.0337 33.1454V162.193C71.0337 165.248 73.4937 167.725 76.5283 167.725H164.219C167.253 167.725 169.713 165.248 169.713 162.193V33.1454C169.713 30.0901 167.253 27.6133 164.219 27.6133Z" fill="#55C1F2"/>
<path d="M137.764 33.7781H102.983V39.6568H137.764V33.7781Z" fill="#D3DFFF"/>
<path d="M159.871 48.6174H80.8775V66.2559H159.871V48.6174Z" fill="#DADADA"/>
<path d="M156.414 51.0295H84.3341V63.8427H156.414V51.0295Z" fill="white"/>
<path d="M139.268 74.4368H133.902C132.291 74.4368 130.984 75.7518 130.984 77.3739V78.6226C130.984 80.2447 132.291 81.5597 133.902 81.5597H139.268C140.879 81.5597 142.186 80.2447 142.186 78.6226V77.3739C142.186 75.7518 140.879 74.4368 139.268 74.4368Z" fill="#5E47D2"/>
<path d="M156.953 74.4368H151.587C149.976 74.4368 148.67 75.7518 148.67 77.3739V78.6226C148.67 80.2447 149.976 81.5597 151.587 81.5597H156.953C158.565 81.5597 159.871 80.2447 159.871 78.6226V77.3739C159.871 75.7518 158.565 74.4368 156.953 74.4368Z" fill="#5E47D2"/>
<path d="M158.479 90.1669H147.7C146.933 90.1669 146.311 90.7932 146.311 91.5659V98.0673C146.311 98.8399 146.933 99.4663 147.7 99.4663H158.479C159.246 99.4663 159.868 98.8399 159.868 98.0673V91.5659C159.868 90.7932 159.246 90.1669 158.479 90.1669Z" fill="#5E47D2"/>
<path d="M136.848 90.1669H126.069C125.302 90.1669 124.68 90.7932 124.68 91.5659V98.0673C124.68 98.8399 125.302 99.4663 126.069 99.4663H136.848C137.615 99.4663 138.238 98.8399 138.238 98.0673V91.5659C138.238 90.7932 137.615 90.1669 136.848 90.1669Z" fill="#5E47D2"/>
<path d="M115.217 90.1669H104.438C103.671 90.1669 103.049 90.7932 103.049 91.5659V98.0673C103.049 98.8399 103.671 99.4663 104.438 99.4663H115.217C115.984 99.4663 116.607 98.8399 116.607 98.0673V91.5659C116.607 90.7932 115.984 90.1669 115.217 90.1669Z" fill="#5E47D2"/>
<path d="M93.5861 90.1669H82.8075C82.04 90.1669 81.4179 90.7932 81.4179 91.5659V98.0673C81.4179 98.84 82.04 99.4663 82.8075 99.4663H93.5861C94.3535 99.4663 94.9757 98.84 94.9757 98.0673V91.5659C94.9757 90.7932 94.3535 90.1669 93.5861 90.1669Z" fill="#5E47D2"/>
<path d="M158.479 106.984H147.7C146.933 106.984 146.311 107.61 146.311 108.383V114.885C146.311 115.657 146.933 116.284 147.7 116.284H158.479C159.246 116.284 159.868 115.657 159.868 114.885V108.383C159.868 107.61 159.246 106.984 158.479 106.984Z" fill="#5E47D2"/>
<path d="M136.848 106.984H126.069C125.302 106.984 124.68 107.61 124.68 108.383V114.885C124.68 115.657 125.302 116.284 126.069 116.284H136.848C137.615 116.284 138.238 115.657 138.238 114.885V108.383C138.238 107.61 137.615 106.984 136.848 106.984Z" fill="#D3DFFF"/>
<path d="M115.217 106.984H104.438C103.671 106.984 103.049 107.61 103.049 108.383V114.885C103.049 115.657 103.671 116.284 104.438 116.284H115.217C115.984 116.284 116.607 115.657 116.607 114.885V108.383C116.607 107.61 115.984 106.984 115.217 106.984Z" fill="#D3DFFF"/>
<path d="M93.5861 106.984H82.8075C82.04 106.984 81.4179 107.61 81.4179 108.383V114.885C81.4179 115.657 82.04 116.284 82.8075 116.284H93.5861C94.3535 116.284 94.9757 115.657 94.9757 114.885V108.383C94.9757 107.61 94.3535 106.984 93.5861 106.984Z" fill="#D3DFFF"/>
<path d="M158.479 123.801H147.7C146.933 123.801 146.311 124.428 146.311 125.2V131.702C146.311 132.474 146.933 133.101 147.7 133.101H158.479C159.246 133.101 159.868 132.474 159.868 131.702V125.2C159.868 124.428 159.246 123.801 158.479 123.801Z" fill="#1F3C88"/>
<path d="M136.848 123.801H126.069C125.302 123.801 124.68 124.428 124.68 125.2V131.702C124.68 132.474 125.302 133.101 126.069 133.101H136.848C137.615 133.101 138.238 132.474 138.238 131.702V125.2C138.238 124.428 137.615 123.801 136.848 123.801Z" fill="#D3DFFF"/>
<path d="M115.217 123.801H104.438C103.671 123.801 103.049 124.428 103.049 125.2V131.702C103.049 132.474 103.671 133.101 104.438 133.101H115.217C115.984 133.101 116.607 132.474 116.607 131.702V125.2C116.607 124.428 115.984 123.801 115.217 123.801Z" fill="#D3DFFF"/>
<path d="M93.5861 123.801H82.8075C82.04 123.801 81.4179 124.428 81.4179 125.2V131.702C81.4179 132.474 82.04 133.101 82.8075 133.101H93.5861C94.3535 133.101 94.9757 132.474 94.9757 131.702V125.2C94.9757 124.428 94.3535 123.801 93.5861 123.801Z" fill="#D3DFFF"/>
<path d="M158.479 141.212H147.7C146.933 141.212 146.311 141.839 146.311 142.611V149.113C146.311 149.885 146.933 150.512 147.7 150.512H158.479C159.246 150.512 159.868 149.885 159.868 149.113V142.611C159.868 141.839 159.246 141.212 158.479 141.212Z" fill="#FBC343"/>
<path d="M136.848 141.212H126.069C125.302 141.212 124.68 141.839 124.68 142.611V149.113C124.68 149.885 125.302 150.512 126.069 150.512H136.848C137.615 150.512 138.238 149.885 138.238 149.113V142.611C138.238 141.839 137.615 141.212 136.848 141.212Z" fill="#D3DFFF"/>
<path d="M115.217 141.212H104.438C103.671 141.212 103.049 141.839 103.049 142.611V149.113C103.049 149.885 103.671 150.512 104.438 150.512H115.217C115.984 150.512 116.607 149.885 116.607 149.113V142.611C116.607 141.839 115.984 141.212 115.217 141.212Z" fill="#D3DFFF"/>
<path d="M93.5861 141.212H82.8075C82.04 141.212 81.4179 141.839 81.4179 142.611V149.113C81.4179 149.885 82.04 150.512 82.8075 150.512H93.5861C94.3535 150.512 94.9757 149.885 94.9757 149.113V142.611C94.9757 141.839 94.3535 141.212 93.5861 141.212Z" fill="#D3DFFF"/>
<path d="M140.719 60.3413C140.927 60.3637 141.169 60.3413 141.497 60.3076C142.055 60.2313 142.582 59.9991 142.987 59.6132C143.458 59.1824 143.798 58.5541 143.929 57.7048H143.897C143.502 58.1895 142.932 58.4767 142.221 58.4767C140.939 58.4767 140.117 57.5062 140.117 56.2811C140.117 54.9236 141.092 53.7322 142.55 53.7322C144.007 53.7322 144.906 54.9236 144.906 56.7546C144.906 58.332 144.38 59.4359 143.679 60.1203C143.13 60.661 142.374 60.992 141.608 61.0806C141.257 61.1356 140.951 61.1468 140.72 61.1356V60.3413H140.719ZM141.07 56.2149C141.07 57.108 141.607 57.7374 142.44 57.7374C143.086 57.7374 143.591 57.4176 143.843 56.9868C143.898 56.8993 143.929 56.7882 143.929 56.6334C143.929 55.4094 143.48 54.4715 142.472 54.4715C141.651 54.4715 141.069 55.1996 141.069 56.2149H141.07Z" fill="#5E47D2"/>
<path d="M146.343 60.3413C146.551 60.3637 146.793 60.3413 147.121 60.3076C147.679 60.2313 148.206 59.9991 148.611 59.6132C149.082 59.1824 149.422 58.5541 149.553 57.7048H149.521C149.125 58.1895 148.556 58.4767 147.845 58.4767C146.563 58.4767 145.741 57.5062 145.741 56.2811C145.741 54.9236 146.716 53.7322 148.174 53.7322C149.631 53.7322 150.529 54.9236 150.529 56.7546C150.529 58.332 150.004 59.4359 149.303 60.1203C148.754 60.661 147.998 60.992 147.232 61.0806C146.881 61.1356 146.575 61.1468 146.344 61.1356V60.3413H146.343ZM146.694 56.2149C146.694 57.108 147.231 57.7374 148.064 57.7374C148.71 57.7374 149.215 57.4176 149.466 56.9868C149.522 56.8993 149.553 56.7882 149.553 56.6334C149.553 55.4094 149.104 54.4715 148.096 54.4715C147.275 54.4715 146.693 55.1996 146.693 56.2149H146.694Z" fill="#5E47D2"/>
<path d="M249.482 128.259H195.643V168.021H249.482V128.259Z" fill="#FFC457"/>
<path d="M249.484 137.261H235.14V137.854H249.484V137.261Z" fill="#E49B31"/>
<path d="M249.484 159.024H224.529V159.618H249.484V159.024Z" fill="#E49B31"/>
<path d="M222.484 142.667C222.484 147.243 221.799 151.843 220.409 156.313C218.293 163.104 212.049 167.721 204.988 167.721H195.644V128.262H220.168C221.7 132.903 222.485 137.771 222.485 142.667H222.484Z" fill="#E49B31"/>
<path d="M126.183 158.394H170.566C172.043 158.394 173.242 159.601 173.242 161.089V165.327C173.242 166.815 172.043 168.022 170.566 168.022H126.182C124.704 168.022 123.505 166.815 123.505 165.327V161.089C123.505 159.601 124.704 158.394 126.182 158.394H126.183Z" fill="#FFC457"/>
<path d="M167.742 151.455V155.699C167.742 157.189 166.54 158.394 165.066 158.394H120.682C119.202 158.394 118.005 157.189 118.005 155.699V151.455C118.005 149.971 119.202 148.76 120.682 148.76H165.066C166.54 148.76 167.742 149.971 167.742 151.455Z" fill="#FFC457"/>
<path d="M173.242 161.089V165.327C173.242 166.817 172.046 168.022 170.566 168.022H138.739C136.54 165.291 135.197 161.772 134.389 158.395C133.457 154.525 133.215 150.851 133.163 148.761H165.067C166.541 148.761 167.743 149.972 167.743 151.456V155.7C167.743 157.19 166.541 158.395 165.067 158.395H170.567C172.047 158.395 173.244 159.6 173.244 161.09L173.242 161.089Z" fill="#E49B31"/>
<path d="M196.569 82.1341L192.986 93.2162L192.72 94.0352L191.058 99.1814L191.046 99.2173L185.687 99.0983L165.125 98.6294L163.621 94.2966L163.368 93.573L159.389 82.1352C171.734 86.4388 181.908 77.0306 196.569 82.1352V82.1341Z" fill="#FFC457"/>
<path d="M192.719 94.0341L191.057 99.1803L185.687 99.0973L165.125 98.6283L163.621 94.2955C170.69 94.171 182.851 94.005 192.719 94.0341Z" fill="#E49B31"/>
<path d="M215.692 156.613C214.637 160.008 212.544 162.858 209.838 164.864C207.126 166.87 203.802 168.022 200.271 168.022H153.701C146.969 168.022 141.062 163.493 139.269 156.952C138.238 153.172 137.684 149.337 137.596 145.52C137.59 145.152 137.583 144.784 137.583 144.416C137.583 143.981 137.589 143.547 137.601 143.113C137.981 129.28 144.695 116.397 155.469 107.806L166.61 98.9255L192.105 99.519L206.12 113.021C208.091 114.92 209.847 117.043 211.257 119.396C212.946 122.215 214.313 125.19 215.35 128.264C218.41 137.322 218.61 147.247 215.692 156.612V156.613Z" fill="#FFC457"/>
<path d="M174.223 155.623V150.662C170.745 150.505 167.374 149.565 165.401 148.416L166.96 142.303C169.141 143.502 172.199 144.6 175.575 144.6C178.532 144.6 180.556 143.451 180.556 141.362C180.556 139.273 178.895 138.12 175.054 136.814C169.503 134.934 165.712 132.322 165.712 127.255C165.712 122.656 168.931 119.052 174.484 117.955V112.991H179.566V117.589C183.044 117.746 185.379 118.479 187.091 119.313L185.587 125.217C184.238 124.643 181.852 123.439 178.112 123.439C174.74 123.439 173.65 124.902 173.65 126.366C173.65 128.089 175.467 129.186 179.878 130.858C186.051 133.054 188.544 135.925 188.544 140.63C188.544 145.335 185.274 149.249 179.308 150.296V155.623H174.221H174.223Z" fill="white"/>
<path d="M196.325 97.0935H160.26C158.762 97.0935 157.547 98.3161 157.547 99.8242V100.986C157.547 102.495 158.762 103.717 160.26 103.717H196.325C197.823 103.717 199.037 102.495 199.037 100.986V99.8242C199.037 98.3161 197.823 97.0935 196.325 97.0935Z" fill="#ED7545"/>
<path opacity="0.4" d="M215.692 156.613C214.637 160.008 212.544 162.858 209.839 164.864C207.126 166.87 203.802 168.022 200.271 168.022H153.701C146.969 168.022 141.062 163.493 139.269 156.952C138.238 153.172 137.684 149.337 137.596 145.52C145.3 152.916 154.378 162.585 175.6 162.882C201.954 163.25 213.311 150.814 215.35 128.265C218.41 137.324 218.61 147.248 215.692 156.613Z" fill="#E49B31"/>
<path d="M34.8087 159.811L30.093 158.031L19.1382 167.725H32.1021L34.8087 159.811Z" fill="#121B46"/>
<path d="M34.8087 159.811H45.223L44.0441 167.329L32.1021 167.725L34.8087 159.811Z" fill="#F9B384"/>
<path d="M76.6119 117.666L76.2286 120.296L75.9991 121.881L74.3488 133.271L73.7181 137.622L73.1576 141.504L71.69 151.618L70.6704 158.634C69.9038 163.91 65.412 167.822 60.1124 167.822H37.0685L37.0975 167.525L37.8463 159.809L37.9522 158.723L54.016 155.606L56.1733 139.829C55.1125 135.24 55.3721 130.825 55.8312 127.726C56.2201 125.085 56.7628 123.404 56.7628 123.404L63.9311 121.333L76.6108 117.665L76.6119 117.666Z" fill="#5E47D2"/>
<path d="M71.689 151.618L70.6694 158.634C69.9027 163.91 65.411 167.822 60.1113 167.822H58.9324C69.4904 165.92 67.4267 152.343 71.689 151.618Z" fill="#102048"/>
<path d="M28.8583 163.91L26.5984 167.569L27.099 167.883L29.3589 164.223L28.8583 163.91Z" fill="white"/>
<path d="M74.3476 133.271L73.1565 141.504C69.8381 140.548 65.4611 135.772 65.4611 135.772L74.3465 133.271H74.3476Z" fill="#102048"/>
<path d="M98.7644 154.271C98.7644 154.271 93.1638 157.164 83.1429 155.31L91.4701 149.745L98.7655 154.271H98.7644Z" fill="#102048"/>
<path d="M95.6821 158.259L86.7276 158.461L86.6741 156.515L86.5326 151.179L94.491 151.773L94.8687 153.831L95.6821 158.259Z" fill="#F9B384"/>
<path d="M94.8687 153.831L86.6741 156.515L86.5326 151.179L94.491 151.773L94.8687 153.831Z" fill="#E28B6D"/>
<path d="M105.838 167.799L95.9641 159.786L95.6833 158.262L86.7253 158.461L86.9738 167.799H105.838Z" fill="#121B46"/>
<path d="M99.0985 162.044L95.5607 164.268L95.8729 164.771L99.4107 162.547L99.0985 162.044Z" fill="white"/>
<path d="M56.7628 123.405L88.8047 118.282C90.3034 118.042 91.8389 118.245 93.2251 118.865C95.9808 120.098 97.7915 122.812 97.884 125.847L98.7632 154.27C98.7632 154.27 89.6259 152.341 83.1418 155.309L82.5523 135.87C78.6344 137.666 71.8483 138.046 64.9708 137.354L56.7617 123.405H56.7628Z" fill="#5E47D2"/>
<path d="M94.2492 153.38H93.6597C93.6597 148.462 93.7778 144.379 93.8815 140.777C94.1344 132.005 94.2737 127.174 92.0551 125.129C90.2589 123.474 86.6697 123.525 81.4625 124.146C75.8821 124.801 73.6568 118.819 73.6345 118.758L74.1883 118.557C74.2708 118.787 76.2765 124.177 81.3923 123.557C86.9037 122.902 90.4817 122.876 92.4518 124.692C94.871 126.92 94.7361 131.557 94.4698 140.796C94.3662 144.394 94.2481 148.472 94.2481 153.381L94.2492 153.38Z" fill="#3A6BEA"/>
<path d="M83.154 151.729L82.9445 151.173C83.0192 151.145 90.4939 148.344 98.742 150.421L98.5994 150.996C90.5374 148.966 83.2264 151.7 83.154 151.728V151.729Z" fill="#3A6BEA"/>
<path d="M40.3412 167.908C39.423 166.059 40.8438 158.4 40.9051 158.074L41.4845 158.185C41.08 160.345 40.1797 166.255 40.8694 167.643L40.3424 167.909L40.3412 167.908Z" fill="#3A6BEA"/>
<path d="M73.4228 121.031C73.4228 121.031 71.1596 125.88 66.0539 129.145C64.3211 130.249 62.6174 130.754 61.0908 130.759C58.7864 130.765 56.8698 129.638 55.8323 127.726C56.2212 125.085 56.7639 123.404 56.7639 123.404L63.9322 121.333L71.1652 121.102L73.4228 121.031Z" fill="#102048"/>
<path d="M67.6685 91.8049V98.6743H74.3488V92.7327L67.6685 91.8049Z" fill="#ED7545"/>
<path d="M74.3488 88.4852H67.6685V91.8049L74.3488 92.7327V88.4852Z" fill="#F9B384"/>
<path d="M69.6375 89.4242C69.7846 89.4242 71.2488 91.7365 74.3488 92.7327L74.3042 89.1281L69.6375 89.4254V89.4242Z" fill="#102048"/>
<path d="M75.1355 80.274C75.1355 80.274 78.8194 90.2656 74.0546 90.9084C69.2898 91.5513 68.5522 89.3748 68.5522 89.3748L67.0779 84.0817L70.3696 79.63L75.1344 80.2728L75.1355 80.274Z" fill="#F9B384"/>
<path d="M77.3949 85.0899C77.4054 84.5163 76.9521 84.0426 76.3823 84.032C75.8125 84.0214 75.3421 84.4778 75.3315 85.0515C75.321 85.6252 75.7743 86.0988 76.3441 86.1094C76.9139 86.12 77.3843 85.6636 77.3949 85.0899Z" fill="#F9B384"/>
<path d="M70.1244 85.0219C70.1244 85.0219 70.3696 79.6794 75.1355 80.2729C75.1355 80.2729 71.9285 76.1264 67.7031 77.734C65.5569 78.5508 64.1217 80.6139 63.9111 82.9138C63.6392 85.8869 65.3641 89.275 67.771 89.8685C67.771 89.8685 68.5566 88.0387 69.8782 85.7141L70.1233 85.0219H70.1244Z" fill="#121B46"/>
<path d="M71.2644 84.7728C71.6622 85.6254 71.3981 86.5948 70.6738 86.9381C69.9495 87.2813 69.0391 86.8674 68.6413 86.0147C68.2435 85.1621 68.5076 84.1928 69.2319 83.8495C69.9562 83.5062 70.8666 83.9202 71.2644 84.7728Z" fill="#F9B384"/>
<path opacity="0.4" d="M74.8717 85.6881C74.8824 84.9372 74.2864 84.3198 73.5406 84.3091C72.7948 84.2983 72.1816 84.8983 72.1709 85.6492C72.1602 86.4001 72.7561 87.0175 73.502 87.0282C74.2478 87.039 74.861 86.439 74.8717 85.6881Z" fill="#EB5D60"/>
<path d="M70.2515 85.9621C70.1701 85.9621 70.1044 85.8959 70.1044 85.814C70.1044 85.7792 70.0877 84.9512 69.175 84.8233C69.0948 84.8121 69.038 84.737 69.0491 84.6551C69.0603 84.5743 69.1349 84.5216 69.2152 84.5283C70.3841 84.6932 70.3986 85.8016 70.3986 85.8129C70.3986 85.8948 70.3328 85.961 70.2515 85.961V85.9621Z" fill="#102048"/>
<path d="M92.5744 82.0051C92.5744 82.0051 97.7281 82.4012 100.533 85.7152L94.1511 87.2982L92.5744 82.0051Z" fill="#BA5C36"/>
<path d="M101.707 79.1622C101.731 79.6368 100.434 82.0051 99.4786 83.6846C98.9181 84.6517 98.4824 85.3877 98.4824 85.3877L95.0459 86.3962L92.5933 82.6749L92.4752 82.4909C92.4752 82.4909 92.5109 82.3305 92.5755 82.0455V82.0399C92.5811 82.0343 92.5811 82.022 92.5878 82.004C93.0001 80.2415 94.462 74.2338 95.3056 74.0329C96.0488 73.8613 95.612 77.1496 95.612 77.1496C95.612 77.1496 97.445 71.8015 98.5304 72.0214C99.3973 72.193 97.6991 77.3223 97.6991 77.3223C97.6991 77.3223 98.3064 76.6817 98.9192 76.8837C99.5733 77.1036 99.6558 77.7206 99.6558 77.7206C99.6558 77.7206 100.091 77.4121 100.528 77.6735C100.964 77.9405 100.923 78.7718 100.923 78.7718C100.923 78.7718 101.659 78.4218 101.707 79.1634V79.1622Z" fill="#F9B384"/>
<path d="M66.1062 96.2622L63.7718 105.451L60.1525 119.696C57.6943 120.795 55.1002 121.199 53.0432 120.854C50.6553 120.456 48.9872 119.056 49.0997 116.581C49.395 109.903 66.1062 96.2633 66.1062 96.2633V96.2622Z" fill="#ED7545"/>
<path d="M65.6583 98.8717L63.7718 105.451L60.1525 119.696C57.6944 120.795 55.1003 121.199 53.0432 120.854C58.2894 105.698 65.6583 98.8728 65.6583 98.8728V98.8717Z" fill="#BA5C36"/>
<path d="M80.249 119.66C75.3862 119.993 60.0589 132.754 56.3739 124.522C56.3739 124.522 56.8865 93.8108 72.6327 94.3808C75.4207 94.4817 77.8678 96.3519 78.7102 99.0288C79.0879 100.239 79.4646 101.819 79.7599 103.848C80.0607 105.908 80.2847 108.437 80.3616 111.518C80.4262 113.892 80.3972 116.593 80.249 119.662V119.66Z" fill="#ED7545"/>
<path d="M80.3605 111.517C77.9257 109.931 75.3851 105.153 75.3851 105.153L79.7587 103.847C80.0596 105.907 80.2836 108.436 80.3605 111.517Z" fill="#BA5C36"/>
<path d="M99.4787 83.6846C98.9182 84.6517 98.4825 85.3877 98.4825 85.3877L95.0459 86.3962L92.5933 82.6749L92.5755 82.0455V82.004H92.5878L99.4787 83.6835V83.6846Z" fill="#E28B6D"/>
<path d="M72.6339 94.3808C72.6339 94.3808 80.1955 94.9148 84.7642 95.8056L92.5755 82.0051C94.9612 83.9269 97.6132 85.1666 100.534 85.7152L93.6976 101.932C92.1899 105.012 89.1222 107.008 85.7136 107.126L74.0056 107.528L72.6339 94.3808Z" fill="#ED7545"/>
<path d="M84.7642 96.0278C84.7509 96.0278 84.7375 96.0278 84.7241 96.0244C84.5804 95.9975 70.3028 93.361 67.8691 95.5274C67.7777 95.6082 67.6384 95.6003 67.5571 95.5072C67.4769 95.4152 67.4847 95.275 67.576 95.1931C70.169 92.8853 84.2082 95.4747 84.8043 95.5869C84.9247 95.6093 85.0038 95.726 84.9815 95.846C84.9615 95.9537 84.869 96.0278 84.7642 96.0278Z" fill="#BA5C36"/>
<path d="M241.232 155.062L242.215 167.725H225.856L234.109 161.987L233.961 154.073L241.232 155.062Z" fill="#121B46"/>
<path d="M265.352 149.671L269.774 160.503L258.573 170L260.194 159.316L257.983 152.193L265.352 149.671Z" fill="#121B46"/>
<path d="M245.556 88.5817C245.409 88.9968 245.273 89.5319 245.144 90.1602C244.926 91.2585 244.737 92.6586 244.578 94.3089C244.059 99.6985 243.842 107.706 243.782 116.212C243.659 135.366 244.378 157.043 244.378 157.043L241.383 156.996L234.014 156.883L231.409 156.841C227.46 126.498 228.586 100.874 229.181 91.953C229.198 91.6444 229.222 91.3595 229.234 91.0925C229.358 89.4545 229.44 88.5817 229.44 88.5817H245.558H245.556Z" fill="#5E47D2"/>
<path d="M268.152 152.491L266.655 152.864L258.802 154.841L254.004 156.052C254.004 156.052 248.321 134.82 243.783 116.212C241.602 107.238 239.68 98.874 238.795 93.7985C238.488 92.0057 238.306 90.6224 238.282 89.7687L245.144 90.1602L253.81 90.6583C253.81 90.6583 254.022 91.9104 254.435 94.1609C256.086 103.129 260.926 127.964 268.154 152.489L268.152 152.491Z" fill="#5E47D2"/>
<path d="M254.434 94.1609C250.944 94.4514 247.619 94.4638 244.578 94.3089C242.509 94.2024 240.57 94.0184 238.795 93.7985C234.409 93.2465 231.025 92.4455 229.181 91.953C228.172 91.6803 227.624 91.502 227.624 91.502L229.233 91.0925L239.16 88.5817H245.556C245.409 88.9968 245.273 89.5319 245.144 90.1602L253.81 90.6583C253.81 90.6583 254.022 91.9103 254.435 94.1609H254.434Z" fill="#102048"/>
<path d="M244.089 118.529C243.612 116.516 241.36 106.985 241.067 105.371L236.511 103.651L236.718 103.096L241.625 104.948V105.153C241.659 105.593 243.46 113.312 244.663 118.391L244.09 118.529H244.089Z" fill="#3A6BEA"/>
<path d="M232.521 127.215C230.377 127.215 229.016 126.68 228.94 126.649L229.158 126.098C229.182 126.108 231.586 127.046 234.986 126.379L235.099 126.962C234.155 127.147 233.288 127.215 232.521 127.215Z" fill="#3A6BEA"/>
<path d="M249.587 126.799C248.214 126.799 247.063 126.584 246.973 126.567L247.083 125.983C247.123 125.991 251.11 126.734 252.951 125.438L253.289 125.924C252.308 126.615 250.854 126.799 249.587 126.799Z" fill="#3A6BEA"/>
<path d="M234.293 161.769L233.935 162.24L236.243 164.021L236.602 163.549L234.293 161.769Z" fill="white"/>
<path d="M260.291 159.023L260.069 159.573L263.213 160.858L263.435 160.308L260.291 159.023Z" fill="white"/>
<path d="M236.909 56.1364C236.909 56.1364 226.789 57.422 224.235 68.8979L227.281 82.5503L225.906 91.6511C225.906 91.6511 239.661 93.0355 253.809 90.6616L249.511 67.463L236.911 56.1364H236.909Z" fill="#ED7545"/>
<path d="M243.197 85.2204C243.197 85.2204 240.152 82.9699 244.131 73.1017L246.784 82.8207L243.199 85.2193L243.197 85.2204Z" fill="#6E3620"/>
<path d="M242.802 65.6512L242.931 65.896C243.099 66.2143 242.978 66.6101 242.661 66.7786L231.338 72.8147L230.603 71.4157L241.926 65.3796C242.242 65.2111 242.635 65.3329 242.802 65.6512Z" fill="#102048"/>
<path d="M245.751 82.0051L245.451 81.839L241.543 79.7142L234.993 76.1465C234.875 75.3511 234.964 74.6746 235.435 74.2113L235.111 74.0811C234.581 73.8556 234.192 73.3743 234.086 72.7988L234.074 72.7281C233.903 72.1526 233.985 71.6185 234.038 71.3212L234.192 71.1193C234.575 70.6145 234.745 70.3598 235.241 69.9615L234.404 70.0086C234.404 70.0086 232.341 70.5786 233.302 69.2435C233.963 68.3179 235.442 67.5337 236.285 67.1422C236.639 66.9761 237.07 67.0468 237.341 67.3318C240.177 70.2936 245.163 73.8433 245.163 73.8433L245.217 74.5669L245.7 81.2321L245.754 82.004L245.751 82.0051Z" fill="#F9B384"/>
<path d="M238.023 70.6628L236.239 69.7854C236.053 69.6934 235.845 69.6643 235.641 69.7002L233.741 70.0334L233.691 69.7406L235.591 69.4074C235.858 69.3602 236.126 69.3995 236.369 69.5184L238.153 70.3957L238.023 70.6628Z" fill="#E28B6D"/>
<path d="M237.691 72.3501L235.551 71.5244C235.456 71.4874 235.356 71.4694 235.254 71.4694H234.036V71.1732H235.254C235.392 71.1732 235.528 71.1979 235.657 71.2484L237.796 72.0741L237.691 72.3512V72.3501Z" fill="#E28B6D"/>
<path d="M237.396 74.0318L235.453 73.2925C235.301 73.2342 235.134 73.2128 234.971 73.2319L234.175 73.3228L234.141 73.0277L234.938 72.9369C235.147 72.9133 235.362 72.9402 235.559 73.0154L237.502 73.7547L237.397 74.0318H237.396Z" fill="#E28B6D"/>
<path d="M245.698 81.2332L245.451 81.839L241.542 79.7142L244.13 73.1017L245.214 74.568L245.698 81.2332Z" fill="#E28B6D"/>
<path d="M243.198 85.2205C243.198 85.2205 249.044 90.8098 253.808 90.6617L252.432 84.0829L243.196 85.2205H243.198Z" fill="#BA5C36"/>
<path d="M236.909 56.1364C236.909 56.1364 237.629 56.0612 238.829 56.1027C250.63 56.5088 259.669 66.7327 259.093 78.6068C258.855 83.5151 257.589 88.3887 253.514 88.4863L243.197 85.2216C244.17 81.5473 244.897 77.7374 244.131 73.1028L248.921 75.4027L236.909 56.1364Z" fill="#ED7545"/>
<path d="M240.275 84.7649L225.856 85.1216L225.46 83.892L224.01 79.4056L219.813 66.4241L234.232 66.0685L240.275 84.7649Z" fill="#D3DFFF"/>
<path opacity="0.3" d="M227.07 77.8507C227.07 77.8507 227.047 81.8626 225.461 83.8932L224.011 79.4057L227.071 77.8507H227.07Z" fill="#1F3C88"/>
<path d="M220.077 77.5366C220.531 76.0602 221.358 74.697 222.269 73.4674C222.558 73.0759 223.188 72.1144 223.793 72.2603C225.021 72.5576 223.793 74.7329 223.793 74.7329C223.793 74.7329 224.972 72.9525 225.414 73.8422C225.857 74.7329 225.218 75.7213 225.218 75.7213C225.218 75.7213 227.085 74.485 226.397 76.9577C226.397 76.9577 227.92 76.7602 226.987 78.4419C226.32 79.6424 225.889 80.9797 225.054 82.0836C224.214 83.1943 222.634 83.8181 221.321 83.1842C219.778 82.4393 219.581 80.4524 219.771 78.9401C219.832 78.461 219.936 77.9932 220.077 77.5354V77.5366Z" fill="#F9B384"/>
<path d="M222.724 77.145C222.704 77.145 222.684 77.1405 222.664 77.1327C222.589 77.099 222.556 77.0115 222.59 76.9363L223.989 73.7457C224.021 73.6705 224.109 73.6368 224.183 73.6694C224.258 73.703 224.291 73.7905 224.258 73.8657L222.858 77.0564C222.834 77.1114 222.78 77.145 222.723 77.145H222.724Z" fill="#E28B6D"/>
<path d="M224.161 78.3331C224.139 78.3331 224.118 78.3286 224.098 78.3185C224.025 78.2837 223.992 78.1951 224.027 78.1211L225.353 75.2647C225.389 75.1907 225.477 75.1593 225.549 75.1929C225.623 75.2277 225.655 75.3163 225.62 75.3904L224.294 78.2467C224.27 78.3006 224.216 78.3331 224.161 78.3331Z" fill="#E28B6D"/>
<path d="M225.266 79.2969C225.243 79.2969 225.219 79.2913 225.197 79.2801C225.126 79.2419 225.097 79.1522 225.136 79.0792L226.278 76.8904C226.317 76.8186 226.405 76.7906 226.477 76.8287C226.549 76.8669 226.578 76.9566 226.539 77.0295L225.396 79.2183C225.37 79.2688 225.318 79.298 225.266 79.298V79.2969Z" fill="#E28B6D"/>
<path d="M230.031 67.3643H224.873L223.989 65.5839H229.147L230.031 67.3643Z" fill="#102048"/>
<path d="M236.769 61.9333C235.239 61.9333 234.234 61.1715 234.219 61.1603C234.123 61.0851 234.106 60.946 234.179 60.8484C234.254 60.7519 234.392 60.7328 234.489 60.808C234.574 60.8719 236.574 62.3708 239.252 60.744C239.355 60.6801 239.492 60.7149 239.555 60.8192C239.617 60.9247 239.584 61.0615 239.479 61.1244C238.479 61.7313 237.555 61.9333 236.769 61.9333Z" fill="#BA5C36"/>
<path d="M243.197 85.4425C243.177 85.4425 243.156 85.4392 243.135 85.4336C243.018 85.3988 242.951 85.2743 242.986 85.1565C245.105 77.9303 243.93 73.2049 243.917 73.1578L243.832 72.8257L252.961 74.366C253.081 74.3862 253.163 74.5007 253.143 74.6218C253.123 74.7441 253.002 74.826 252.889 74.8047L244.415 73.3743C244.642 74.5826 245.246 79.0264 243.411 85.2821C243.382 85.3786 243.294 85.4414 243.2 85.4414L243.197 85.4425Z" fill="#BA5C36"/>
<path d="M249.878 74.2146C249.878 74.2146 249.869 74.2146 249.864 74.2146C249.743 74.2068 249.649 74.1013 249.657 73.979C249.659 73.9308 249.904 69.1437 246.6 64.2241C246.532 64.1221 246.558 63.9841 246.659 63.9156C246.76 63.8472 246.897 63.873 246.966 63.9751C250.358 69.0247 250.102 73.9566 250.098 74.006C250.091 74.1238 249.994 74.2146 249.878 74.2146Z" fill="#BA5C36"/>
<path d="M240.961 50.6727V56.4011C240.961 58.2489 239.53 59.7466 237.764 59.7466C235.998 59.7466 234.567 58.2489 234.567 56.4011V50.6727H240.96H240.961Z" fill="#F9B384"/>
<path d="M237.94 51.4368C237.94 51.4368 237.608 54.9763 234.568 55.9995V50.9723L237.94 51.4368Z" fill="#102048"/>
<path d="M232.156 44.1432C232.156 44.1432 231.164 52.1782 234.275 53.1307C237.386 54.0843 240.227 51.3155 240.227 51.3155L239.641 44.6884L235.042 41.9645L232.157 44.1432H232.156Z" fill="#F9B384"/>
<path d="M249.854 59.759L243.718 60.1684C242.941 59.308 242.502 58.0974 242.215 56.7321C241.955 58.1378 242.16 59.3057 242.845 60.2279L241.183 60.3412C239.709 58.121 238.471 53.2071 239.933 49.0044L240.103 48.0127C240.103 48.0127 239.053 44.813 237.532 44.6773C237.532 44.6773 232.315 48.2214 229.993 44.2678C228.26 41.3239 229.722 37.4534 233.89 40.3086C233.89 40.3086 243.905 35.5776 243.882 45.2764C243.876 47.0153 244.525 48.7251 245.804 49.8885C245.91 49.9951 246.028 50.0961 246.152 50.1914C248.398 51.9842 250.82 55.5574 249.853 59.7601L249.854 59.759Z" fill="#121B46"/>
<path d="M241.682 48.5286C241.978 47.6027 241.58 46.6452 240.794 46.39C240.007 46.1348 239.129 46.6785 238.833 47.6044C238.536 48.5303 238.934 49.4878 239.721 49.743C240.507 49.9982 241.385 49.4545 241.682 48.5286Z" fill="#F9B384"/>
<path d="M240.053 48.6175C239.972 48.6175 239.906 48.5513 239.906 48.4694C239.906 47.8288 240.408 47.2633 241.003 47.233H241.011C241.089 47.233 241.154 47.2947 241.158 47.3744C241.163 47.4563 241.099 47.5258 241.018 47.5303C240.623 47.5505 240.2 47.9331 240.2 48.4705C240.2 48.5524 240.134 48.6186 240.053 48.6186V48.6175Z" fill="#102048"/>
<path d="M233.249 47.2072C233.249 47.4125 233.084 47.5785 232.88 47.5785C232.676 47.5785 232.511 47.4125 232.511 47.2072C232.511 47.0019 232.676 46.8358 232.88 46.8358C233.084 46.8358 233.249 47.0019 233.249 47.2072Z" fill="#102048"/>
<path d="M235.472 47.0221C235.472 47.2274 235.307 47.3935 235.103 47.3935C234.899 47.3935 234.734 47.2274 234.734 47.0221C234.734 46.8168 234.899 46.6508 235.103 46.6508C235.307 46.6508 235.472 46.8168 235.472 47.0221Z" fill="#102048"/>
<path d="M233.777 49.6933C233.74 49.6933 233.702 49.6798 233.675 49.6507C233.375 49.3556 233.252 49.0762 233.31 48.8182C233.369 48.5568 233.599 48.4053 233.736 48.3358L233.704 47.6032C233.7 47.5213 233.764 47.4517 233.844 47.4484C233.924 47.4484 233.994 47.5089 233.998 47.5897L234.039 48.5355L233.935 48.5714C233.854 48.5994 233.635 48.7116 233.597 48.8844C233.555 49.0706 233.727 49.2883 233.88 49.4375C233.938 49.4947 233.939 49.5889 233.882 49.6473C233.853 49.6776 233.815 49.6922 233.776 49.6922L233.777 49.6933Z" fill="#102048"/>
<path d="M234.075 50.7625C233.952 50.7625 233.874 50.7513 233.864 50.749C233.784 50.7367 233.729 50.6604 233.743 50.5796C233.755 50.4989 233.837 50.445 233.911 50.4562C233.919 50.4573 234.665 50.5651 235.321 49.9906C235.381 49.9368 235.474 49.9424 235.528 50.0052C235.581 50.0669 235.576 50.1612 235.513 50.215C234.971 50.6918 234.381 50.7636 234.075 50.7636V50.7625Z" fill="#102048"/>
<path opacity="0.4" d="M236.936 49.6934C237.47 49.6934 237.903 49.2574 237.903 48.7195C237.903 48.1817 237.47 47.7457 236.936 47.7457C236.402 47.7457 235.969 48.1817 235.969 48.7195C235.969 49.2574 236.402 49.6934 236.936 49.6934Z" fill="#EB5D60"/>
</g>
<defs>
<clipPath id="clip0_32_1011">
<rect width="300.769" height="170" fill="white"/>
</clipPath>
</defs>
</svg>
