<svg width="241" height="170" viewBox="0 0 241 170" fill="none" xmlns="http://www.w3.org/2000/svg">
<g clip-path="url(#clip0_32_1440)">
<path d="M231.834 129.328C238.227 122.894 243.095 115.62 238.252 114.488C233.405 113.351 225.266 126.025 223.845 137.563L222.425 141.369C223.607 132.978 220.735 122.759 216.535 122.339C212.362 121.918 214.887 128.549 218.205 134.219C220.729 138.534 221.393 141.94 221.559 143.695L214.855 161.682C216.686 148.394 212.139 132.267 205.493 131.602C198.867 130.937 202.88 141.457 208.142 150.451C212.118 157.247 213.186 162.622 213.461 165.431L212.123 169.019C212.709 169.346 213.295 169.673 213.881 169.995L221.86 148.592C223.399 147.439 225.737 146.053 229.061 144.926C235.277 142.823 241.519 139.474 238.092 137.049C235.116 134.946 228.122 138.996 223.306 144.708L226.064 137.308C227.308 135.164 229.076 132.1 231.834 129.323V129.328Z" fill="#FFC457"/>
<path d="M30.3544 45.3663C31.1839 37.5932 30.5359 30.0798 26.6735 31.9335C22.806 33.7872 24.1643 46.6955 29.4212 55.2059L30.5203 58.5291C26.798 52.2566 19.3688 46.9448 16.3204 48.9335C13.2927 50.9066 18.5548 53.9961 23.8325 56.0107C27.8504 57.5477 30.1315 59.4741 31.1891 60.5645L36.3683 76.2664C30.4477 66.354 18.7155 57.9787 13.8889 61.1201C9.08299 64.2511 17.435 69.1476 25.8129 72.3461C32.143 74.7658 35.7513 77.7981 37.4466 79.5324L38.4783 82.6634C39.0486 82.57 39.6189 82.4713 40.184 82.3727L34.025 63.6955C34.4397 62.0911 35.2588 59.8947 36.8867 57.3452C39.9248 52.5785 42.3199 46.9551 38.7116 47.1784C35.5803 47.3705 33.0658 53.8663 32.9051 60.3049L30.7744 53.8455C30.4581 51.7322 29.9967 48.7206 30.3544 45.3663Z" fill="#FFC457"/>
<path d="M188.69 150.705C188.773 151.146 188.866 151.624 188.975 152.138C190.126 157.497 192.952 166.272 199.308 167.996C199.308 167.996 195.85 149.926 208.183 145.217C220.517 140.512 219.153 136.026 218.448 128.05C217.743 120.075 215.016 118.554 223.576 111.082C232.135 103.61 230.497 92.4772 230.497 92.4772C230.497 92.4772 222.399 105.183 213.746 105.479C205.093 105.775 203.58 113.169 203.948 118.668C204.316 124.167 196.969 124.79 192.993 127.978C189.017 131.166 188.27 147.922 188.27 147.922C188.27 147.922 188.379 149.018 188.685 150.7L188.69 150.705Z" fill="#FF5C5B"/>
<path d="M188.69 150.705C188.773 151.146 188.866 151.624 188.975 152.138C189.862 149.448 191.111 147.19 192.278 145.456C195.046 141.348 198.939 137.978 202.444 136.654C208.022 134.546 210.749 129.068 211.278 118.881C211.584 112.967 217.759 109.477 217.821 109.441C218.002 109.342 218.07 109.114 217.966 108.932C217.868 108.75 217.639 108.683 217.458 108.787C217.188 108.937 210.853 112.51 210.527 118.844C210.018 128.689 207.442 133.97 202.18 135.953C198.483 137.35 194.548 140.746 191.655 145.035C190.634 146.551 189.551 148.462 188.69 150.705Z" fill="#5E47D2"/>
<path d="M52.1702 167.897H60.8385C56.157 167.123 44.544 162.128 43.5123 152.117C42.2007 139.437 37.6955 139.598 30.0952 138.269C22.5001 136.945 20.4056 139.11 15.5842 129.265C10.7627 119.426 0 118.185 0 118.185C0 118.185 9.80881 128.902 7.93207 137.049C6.05533 145.196 12.5565 148.446 17.7668 149.469C22.9771 150.492 21.7277 157.502 23.7029 162.004C24.605 164.06 28.3014 166.189 32.0549 167.897H52.1702Z" fill="#FFC457"/>
<path d="M33.3977 155.42C33.7761 159.215 35.9587 163.733 39.2301 167.497C39.3441 167.632 39.4634 167.762 39.5878 167.897H40.5728C40.2929 167.601 40.0233 167.305 39.7744 167.02C36.6431 163.416 34.476 158.945 34.1131 155.342C33.5428 149.609 29.1206 145.705 19.7783 142.683C14.3555 140.928 12.6395 134.297 12.6239 134.229C12.5773 134.037 12.3803 133.918 12.1884 133.965C11.9966 134.011 11.8774 134.209 11.924 134.401C11.9966 134.692 13.7437 141.488 19.5554 143.368C28.5866 146.291 32.8585 150.009 33.3977 155.415V155.42Z" fill="#1C31B5"/>
<path d="M56.8465 144.365C56.6651 144.983 56.4525 145.653 56.2192 146.364C53.7566 153.836 48.7019 166.412 39.3648 167.897C39.3648 167.897 46.7526 142.148 29.8827 133.539C13.0127 124.925 15.6464 118.74 17.8757 107.473C20.1049 96.2001 24.2265 94.4503 13.1683 82.4713C2.10484 70.4924 6.14864 54.8684 6.14864 54.8684C6.14864 54.8684 15.7501 74.2465 28.0474 75.9964C40.3447 77.7462 41.366 88.5309 39.9973 96.3247C38.6287 104.113 49.0129 106.133 54.1921 111.294C59.3713 116.456 57.8678 140.471 57.8678 140.471C57.8678 140.471 57.5412 142.018 56.8465 144.365Z" fill="#FF5C5B"/>
<path d="M56.8465 144.365C56.6651 144.983 56.4525 145.653 56.2192 146.364C55.369 142.392 53.9329 138.975 52.5331 136.327C49.2151 130.044 44.1759 124.634 39.3804 122.204C31.7438 118.341 28.7006 110.1 29.5094 95.4888C29.9812 87.0095 21.7069 81.0746 21.6188 81.0175C21.3751 80.8461 21.3181 80.5086 21.4892 80.2698C21.6603 80.0257 21.9972 79.9686 22.2357 80.14C22.5986 80.3944 31.0854 86.4695 30.5774 95.5511C29.7945 109.674 32.6563 117.603 39.8574 121.248C44.9173 123.808 50.0083 129.255 53.4767 135.824C54.7002 138.145 55.9548 141.037 56.8361 144.365H56.8465Z" fill="#5E47D2"/>
<path d="M63.5395 161.843C63.5707 163.8 63.6018 165.836 63.6484 167.897H82.4988C82.535 165.644 82.561 163.478 82.5817 161.453C82.6387 155.96 82.6439 151.437 82.6387 148.623C82.6387 146.629 82.6284 145.497 82.6284 145.497L63.4048 145.294C63.4048 145.294 63.4048 146.956 63.4203 149.677C63.4307 152.699 63.467 157.029 63.5395 161.837V161.843Z" fill="#18315B"/>
<path d="M63.4203 149.682C63.4307 152.704 63.467 157.035 63.5396 161.843C69.4601 162.294 75.9509 162.3 82.5817 161.453C82.6387 155.96 82.6439 151.437 82.6387 148.623L63.4203 149.677V149.682Z" fill="#000B29"/>
<path d="M39.7848 157.502C39.8055 160.581 39.8418 164.107 39.904 167.897H58.7544C58.801 165.675 58.8373 163.483 58.8684 161.386C58.9358 156.889 58.9669 152.834 58.9825 149.926C58.998 147.06 58.998 145.3 58.998 145.3L39.7692 145.502C39.7692 145.502 39.7537 147.543 39.7589 150.98C39.7589 152.797 39.7692 154.999 39.7848 157.502Z" fill="#18315B"/>
<path d="M39.7589 150.98C39.7589 152.797 39.7692 154.999 39.7848 157.502C43.6109 158.634 50.4646 160.389 58.8684 161.386C58.9358 156.889 58.9669 152.834 58.9825 149.926L39.7589 150.98Z" fill="#000B29"/>
<path d="M71.3576 44.0058C71.3576 44.0058 74.3852 41.0824 74.3749 38.2006C74.3645 35.3136 72.4048 36.1652 71.3576 33.4807C70.3103 30.7962 67.1842 29.1502 65.4733 29.4825C63.7625 29.8097 60.1438 23.1218 55.2394 24.3005C50.335 25.4792 50.7601 31.7776 48.6501 32.6967C46.54 33.6157 47.1259 37.3543 48.2405 38.2058C49.3551 39.0574 49.8269 42.4844 50.449 42.4065C51.0764 42.3286 71.3576 44.011 71.3576 44.011V44.0058Z" fill="#121B46"/>
<path d="M50.9727 43.9383C50.9727 43.9383 49.07 41.394 47.6547 43.4969C46.2393 45.5999 48.2405 51.81 51.7088 50.2938L50.9778 43.9383H50.9727Z" fill="#F97853"/>
<path d="M50.9468 48.3778C50.8171 48.3778 50.7031 48.2947 50.6668 48.1649C50.1276 46.2489 48.1472 45.47 48.1265 45.4597C47.9761 45.4025 47.8983 45.2312 47.9554 45.0806C48.0124 44.93 48.1835 44.8521 48.3338 44.9093C48.4272 44.9456 50.615 45.792 51.2319 48.0039C51.2734 48.1597 51.1852 48.3207 51.0297 48.3674C51.0038 48.3726 50.9779 48.3778 50.9519 48.3778H50.9468Z" fill="#EA5143"/>
<path d="M48.9456 47.412C48.8937 47.412 48.8367 47.3964 48.7849 47.3652C48.6501 47.277 48.6086 47.0952 48.6967 46.9602C48.7123 46.9395 49.0648 46.3995 49.7958 46.0723C49.941 46.0048 50.1172 46.0723 50.1846 46.2229C50.252 46.3683 50.1846 46.5448 50.0395 46.6123C49.4744 46.8668 49.1944 47.277 49.1944 47.2822C49.1374 47.3704 49.0441 47.4172 48.9456 47.4172V47.412Z" fill="#EA5143"/>
<path d="M70.5955 43.9383C70.5955 43.9383 72.4981 41.394 73.9135 43.4969C75.3288 45.5999 73.3276 51.81 69.8593 50.2938L70.5903 43.9383H70.5955Z" fill="#F97853"/>
<path d="M70.6214 48.3778C70.751 48.3778 70.865 48.2947 70.9013 48.1649C71.4405 46.2489 73.4209 45.47 73.4417 45.4597C73.592 45.4025 73.6698 45.2312 73.6128 45.0806C73.5557 44.93 73.3846 44.8521 73.2343 44.9093C73.141 44.9456 70.9532 45.792 70.3362 48.0039C70.2948 48.1597 70.3829 48.3207 70.5384 48.3674C70.5644 48.3726 70.5903 48.3778 70.6162 48.3778H70.6214Z" fill="#EA5143"/>
<path d="M72.6225 47.412C72.6744 47.412 72.7314 47.3964 72.7833 47.3652C72.918 47.277 72.9595 47.0952 72.8714 46.9602C72.8558 46.9395 72.5033 46.3995 71.7723 46.0723C71.6271 46.0048 71.4509 46.0723 71.3835 46.2229C71.3161 46.3683 71.3835 46.5448 71.5338 46.6123C72.0989 46.8668 72.3789 47.277 72.3789 47.2822C72.4359 47.3704 72.5292 47.4172 72.6277 47.4172L72.6225 47.412Z" fill="#EA5143"/>
<path d="M65.4733 55.5641V61.7431C65.4733 61.7431 63.6329 64.8897 61.1444 65.1026C58.6611 65.3206 56.4525 62.3921 56.4525 62.3921V56.0002L65.4733 55.5641Z" fill="#FFA681"/>
<path d="M65.4733 55.5641V58.3057C63.8039 60.1594 60.8385 60.6215 56.4525 59.9776V56.0002L65.4733 55.5641Z" fill="#F97853"/>
<path d="M71.9745 39.7013C71.8605 42.1002 71.6323 45.1014 71.1761 47.5055C71.0621 48.1026 70.9324 48.6686 70.7873 49.1723C69.4912 53.726 66.2406 61.5302 57.1524 58.2798C53.1397 56.8467 51.2785 52.3656 50.449 47.8118C49.8839 44.7172 49.801 41.5913 49.8425 39.3586C49.8839 37.0791 51.1282 34.9969 53.1086 33.8702C58.4744 30.8222 64.1358 31.9594 67.8633 33.3925C70.4503 34.3894 72.1041 36.9337 71.9745 39.7013Z" fill="#FFA681"/>
<path d="M50.4542 47.8066C50.4542 47.8066 51.3356 53.0717 52.1702 54.9877C53.0049 56.9037 55.2809 57.2672 56.1363 58.8872C57.3546 61.1978 59.2106 63.0307 62.2694 61.9144C64.8097 60.9849 64.6957 59.6816 66.1214 58.6743C68.5632 56.9504 69.7712 55.05 69.8697 53.4767C69.9682 51.9034 71.1813 47.5002 71.1813 47.5002L69.8697 47.4067C69.8697 47.4067 69.1231 48.9541 68.024 50.6624C66.9198 48.2375 61.611 50.003 61.611 50.003L60.5948 50.3301L59.5528 50.003C59.5528 50.003 54.1818 48.3154 53.119 50.8545C52.4709 49.8576 51.9421 48.7412 51.6985 47.5521L50.449 47.8014L50.4542 47.8066ZM60.6 51.1505C66.6916 50.1016 65.6029 53.674 65.5615 53.8038C65.1467 54.2036 64.7268 54.5307 64.312 54.7592C61.9531 56.0365 61.6991 55.8444 60.7659 55.886C59.8172 55.9327 58.5107 55.6523 57.1887 54.9098C56.774 54.6761 56.157 54.2296 55.4831 53.6117C55.4831 53.6117 54.5239 50.3353 60.6052 51.1557L60.6 51.1505Z" fill="#121B46"/>
<path d="M56.9347 44.7431C56.9347 45.4025 56.5977 45.9373 56.1778 45.9373C55.7578 45.9373 55.4208 45.4025 55.4208 44.7431C55.4208 44.0836 55.7578 43.5488 56.1778 43.5488C56.5977 43.5488 56.9347 44.0836 56.9347 44.7431Z" fill="#121B46"/>
<path d="M65.9451 44.7431C65.9451 45.4025 65.6081 45.9373 65.1882 45.9373C64.7682 45.9373 64.4312 45.4025 64.4312 44.7431C64.4312 44.0836 64.7682 43.5488 65.1882 43.5488C65.6081 43.5488 65.9451 44.0836 65.9451 44.7431Z" fill="#121B46"/>
<path d="M68.1692 40.8124C68.1692 40.8124 65.0378 39.5714 62.6271 40.6151L62.8708 41.9599C62.8708 41.9599 66.4117 41.6588 68.1951 42.3857C68.3558 41.8665 68.3766 41.3472 68.1744 40.8124H68.1692Z" fill="#121B46"/>
<path d="M53.2797 40.8176C53.2797 40.8176 56.437 39.5714 58.8633 40.6203L58.6196 41.9755C58.6196 41.9755 55.0528 41.6744 53.259 42.4013C53.0982 41.8821 53.0723 41.3524 53.2797 40.8176Z" fill="#121B46"/>
<path d="M60.8852 49.7486C61.3777 49.7486 61.8702 49.5565 61.948 49.5253C62.0983 49.463 62.1709 49.2917 62.1087 49.1411C62.0465 48.9905 61.8754 48.9178 61.725 48.9801C61.4606 49.0892 60.823 49.2553 60.5482 49.0892C60.4963 49.058 60.4238 48.9957 60.403 48.814C60.2993 47.791 60.5793 44.3537 60.5793 44.3173C60.5948 44.1564 60.4704 44.0162 60.3097 44.0006C60.149 43.985 60.009 44.1096 59.9935 44.2706C59.9831 44.416 59.7083 47.7962 59.8172 48.8711C59.8587 49.2761 60.0712 49.4838 60.2423 49.5876C60.4289 49.7019 60.6571 49.7382 60.88 49.7382L60.8852 49.7486Z" fill="#F97853"/>
<path d="M57.1524 51.7373C57.3754 52.8589 58.1115 54.9203 60.6052 54.9203C63.0989 54.9203 63.804 53.0354 64.0424 51.7373H57.1524Z" fill="white"/>
<path d="M71.9745 39.7013C71.8604 42.1002 71.6323 45.1014 71.1761 47.5055L69.8645 47.412C69.8645 47.412 70.1807 45.387 70.3259 44.0629C70.471 42.744 70.7199 40.2724 69.5949 39.9661C68.4751 39.6597 69.1335 36.8454 67.5678 35.6252C66.0073 34.3998 62.539 33.325 60.2319 34.7425C57.9301 36.16 55.312 35.376 54.2492 35.6252C53.1864 35.8693 51.7451 37.3335 52.1339 38.7043C52.528 40.0699 51.3563 40.9059 51.0712 42.3234C50.786 43.741 51.6933 47.5574 51.6933 47.5574L50.4439 47.8118C49.8788 44.7172 49.7958 41.5913 49.8373 39.3586C49.8788 37.0791 51.123 34.9969 53.1034 33.8702C58.4692 30.8222 64.1306 31.9594 67.8581 33.3925C70.4451 34.3894 72.0989 36.9337 71.9693 39.7013H71.9745Z" fill="#121B46"/>
<path d="M86.61 154.786C80.6842 156.292 74.7533 157.263 68.8224 157.709C68.5528 157.73 68.2884 157.751 68.0188 157.767C67.2049 157.824 66.3858 157.865 65.5718 157.902C61.5384 158.078 57.4998 158.005 53.4663 157.694C52.6524 157.632 51.8385 157.559 51.0245 157.476C50.7653 157.45 50.5061 157.424 50.2417 157.393C45.4202 156.868 40.6039 155.996 35.7825 154.781C35.7358 150.331 35.7877 136.265 36.0624 121.009C36.0935 119.176 36.1298 117.328 36.1713 115.474C36.5964 95.3692 37.4207 74.9578 38.9087 72.9171C40.3292 70.9596 44.6166 68.4724 48.7123 66.2293C48.9559 66.0943 49.1996 65.9645 49.4433 65.8295C50.3661 65.3258 51.263 64.8429 52.1132 64.3808C53.9278 63.389 55.4934 62.5115 56.4629 61.8313V62.3921C56.4629 62.3921 58.6663 65.3154 61.1548 65.0974C63.4203 64.9 65.1467 62.2831 65.437 61.8105C66.505 62.5634 68.4232 63.6019 70.6525 64.7806C71.2694 65.1077 71.9123 65.4452 72.5655 65.7931C72.804 65.9178 73.0477 66.0476 73.2913 66.1774C77.8225 68.5815 82.7061 71.2971 84.1733 73.3118C84.2822 73.4623 84.3859 73.7116 84.4844 74.0543C85.3502 76.9984 85.8893 86.7601 86.216 98.5833V98.7131C86.2367 99.1908 86.2471 99.6737 86.2574 100.157C86.2574 100.219 86.2574 100.281 86.2626 100.349C86.3715 104.497 86.4493 108.864 86.5115 113.247C86.5167 113.595 86.5218 113.942 86.527 114.29C86.527 114.467 86.527 114.638 86.5322 114.815C86.5478 115.677 86.5581 116.544 86.5633 117.401C86.5737 118.034 86.5789 118.668 86.584 119.301C86.7499 135.159 86.6826 150.113 86.6152 154.776L86.61 154.786Z" fill="#5E47D2"/>
<path d="M86.2471 100.162C84.8214 97.8304 83.2868 95.447 81.8455 93.3389C81.8455 93.3337 81.8352 93.3285 81.8352 93.3233C81.2286 92.4406 80.6376 91.6046 80.0777 90.8413C80.0673 90.8258 80.0569 90.8154 80.0466 90.7998C79.8703 90.561 79.6992 90.3273 79.5281 90.0988C79.5022 90.0573 79.4815 90.0209 79.4659 89.9742C79.4193 89.8184 79.4711 89.6471 79.6059 89.5484C79.7822 89.4186 80.0258 89.4498 80.1554 89.6263C81.887 91.9266 84.1059 95.229 86.2004 98.5885V98.7183C86.2211 99.196 86.2315 99.6789 86.2419 100.162H86.2471Z" fill="#4D429B"/>
<path d="M84.22 72.995C84.22 72.995 93.1578 89.3979 98.6118 97.7161C98.6118 97.7161 101.712 94.8655 105.74 91.0491C110.111 86.9107 116.088 79.9996 116.088 79.9996L119.396 83.9302C119.396 83.9302 105.968 108.137 99.9441 111.175C93.9199 114.218 82.8202 92.6847 82.8202 92.6847L84.22 72.995Z" fill="#5E47D2"/>
<path d="M46.3689 137.651H46.3534C46.1305 137.641 45.9542 137.454 45.9646 137.23C46.4312 123.985 39.5722 119.69 39.5048 119.649C39.313 119.535 39.2508 119.285 39.3649 119.093C39.4789 118.901 39.7278 118.839 39.9196 118.953C39.9974 119 41.8067 120.101 43.5642 122.931C45.1662 125.511 47.0274 130.091 46.7733 137.262C46.7681 137.48 46.5867 137.651 46.3689 137.651Z" fill="#4D429B"/>
<path d="M75.6295 125.169C75.4221 125.169 75.2459 125.008 75.2251 124.795C75.0074 122.006 75.925 119.971 77.0863 117.395C77.4285 116.643 77.7758 115.864 78.1387 114.986C80.3939 109.508 79.2585 103.246 79.2482 103.184C79.2067 102.966 79.3519 102.753 79.5696 102.711C79.7873 102.67 79.9999 102.815 80.0414 103.033C80.0932 103.298 81.2286 109.596 78.8853 115.293C78.5224 116.18 78.1646 116.965 77.8225 117.723C76.6664 120.288 75.8265 122.147 76.0287 124.727C76.0442 124.95 75.8783 125.143 75.6554 125.163C75.645 125.163 75.6347 125.163 75.6243 125.163L75.6295 125.169Z" fill="#4D429B"/>
<path d="M52.108 64.3809C52.2791 65.6841 52.5332 67.3769 52.8131 69.2981C52.8961 69.8692 52.9842 70.4612 53.0671 71.0687C53.3471 73.0522 53.6374 75.2122 53.8863 77.3983C53.9537 77.985 54.0159 78.5717 54.0729 79.1585C54.2906 81.3185 54.4565 83.4682 54.5136 85.4673C54.5343 86.0696 54.5395 86.6615 54.5395 87.2327C54.5395 88.7593 54.4514 90.1561 54.2647 91.3555C54.1455 92.1136 54.0418 92.8509 53.9485 93.5779C53.8707 94.1802 53.8033 94.7669 53.7411 95.3485C53.5078 97.602 53.3886 99.6997 53.3523 101.678C53.3419 102.28 53.3419 102.867 53.3471 103.443C53.3626 105.687 53.4923 107.779 53.6789 109.773C53.7359 110.37 53.7929 110.957 53.8552 111.533C54.0988 113.709 54.3891 115.781 54.6691 117.826C54.7521 118.413 54.8298 118.995 54.9024 119.582C55.0216 120.516 55.1357 121.456 55.2342 122.396C55.3379 123.393 55.4053 124.566 55.4364 125.859C55.4519 126.425 55.4623 127.017 55.4623 127.63C55.4727 129.567 55.4208 131.716 55.3327 133.959C55.3068 134.546 55.286 135.138 55.2549 135.74C55.1564 137.828 55.0216 139.972 54.8765 142.086C54.835 142.683 54.7883 143.275 54.7469 143.867C54.5862 146.068 54.4047 148.218 54.2181 150.212C54.161 150.819 54.1092 151.411 54.0522 151.982C53.8396 154.179 53.6374 156.131 53.4612 157.694C57.4998 158.005 61.5332 158.073 65.5718 157.896C65.6651 156.24 65.9244 153.561 66.1784 150.414C66.225 149.838 66.2717 149.246 66.3184 148.638C66.4687 146.634 66.6087 144.495 66.6968 142.335C66.7227 141.743 66.7435 141.151 66.759 140.554C66.8213 138.399 66.8213 136.254 66.7279 134.245C66.702 133.637 66.6657 133.04 66.6191 132.459C66.5724 131.867 66.5154 131.285 66.448 130.73C66.251 129.151 66.1784 127.635 66.1888 126.14C66.1888 125.548 66.2043 124.956 66.2354 124.364C66.3287 122.308 66.5517 120.251 66.8109 118.065C66.8783 117.484 66.9509 116.897 67.0234 116.295C67.2567 114.353 67.5004 112.291 67.6922 110.033C67.7441 109.456 67.7907 108.864 67.8322 108.257C67.967 106.32 68.0551 104.243 68.0707 101.974C68.0707 101.387 68.0707 100.795 68.0655 100.183C68.0448 98.2199 67.9618 96.1222 67.8011 93.8634C67.7855 93.6609 67.7752 93.4584 67.7596 93.2559C67.7285 92.8613 67.7026 92.4615 67.687 92.0617C67.5833 90.0003 67.6093 87.8766 67.7285 85.7633C67.7596 85.1713 67.8011 84.5742 67.8426 83.9823C68.0033 81.8638 68.2418 79.766 68.5165 77.7565C68.5995 77.1594 68.6824 76.5675 68.7654 75.9859C69.0972 73.7843 69.4497 71.7074 69.7763 69.8537C69.8852 69.2462 69.9889 68.6594 70.0874 68.0986C70.3103 66.8473 70.5021 65.7309 70.6421 64.7859C68.418 63.6072 66.4998 62.5687 65.4267 61.8158C65.1363 62.2883 63.4099 64.9053 61.1444 65.1026C58.6611 65.3207 56.4525 62.3973 56.4525 62.3973V61.8366C55.4882 62.5168 53.9226 63.3943 52.108 64.386V64.3809Z" fill="white"/>
<path d="M52.8079 69.3032C52.8909 69.8744 52.979 70.4663 53.062 71.0738C55.2912 71.1258 57.9093 70.7883 61.0666 70.0613C64.4468 69.2824 67.4226 69.4175 69.7763 69.8536C69.8852 69.2461 69.9889 68.6594 70.0874 68.0986C67.5419 67.6261 64.3276 67.4911 60.6726 68.3374C57.5568 69.054 54.9646 69.3863 52.8131 69.3032H52.8079Z" fill="#E3E3E3"/>
<path d="M53.8811 77.4034C53.9485 77.9901 54.0107 78.5769 54.0677 79.1636C56.0689 79.1117 58.3708 78.7742 61.0614 78.1511C63.8558 77.5072 66.3806 77.4917 68.5062 77.7565C68.5891 77.1594 68.6721 76.5674 68.755 75.9859C66.4532 75.7003 63.7106 75.7262 60.6622 76.4272C58.0493 77.0295 55.8045 77.3619 53.8759 77.4034H53.8811Z" fill="#E3E3E3"/>
<path d="M54.5136 85.4672C54.5343 86.0695 54.5395 86.6614 54.5395 87.2326C56.4318 87.1443 58.5833 86.812 61.0666 86.2409C63.524 85.6749 65.7688 85.5918 67.7181 85.7632C67.7493 85.1712 67.7907 84.5741 67.8322 83.9822C65.7325 83.8108 63.3166 83.9095 60.6674 84.517C58.3345 85.057 56.297 85.3789 54.5136 85.4672Z" fill="#E3E3E3"/>
<path d="M53.7463 95.3536C55.8252 95.3276 58.2308 94.9901 61.0718 94.3359C63.5603 93.7595 65.831 93.6868 67.8011 93.8633C67.7855 93.6608 67.7752 93.4583 67.7596 93.2558C67.7285 92.8612 67.7026 92.4614 67.687 92.0616C65.6236 91.9058 63.2596 92.0148 60.6778 92.612C58.096 93.2091 55.8719 93.5362 53.9588 93.583C53.8811 94.1853 53.8137 94.772 53.7515 95.3536H53.7463Z" fill="#E3E3E3"/>
<path d="M53.3523 103.443C55.5193 103.459 58.0493 103.127 61.0666 102.426C63.6743 101.823 66.0384 101.766 68.0655 101.974C68.0655 101.387 68.0655 100.795 68.0603 100.183C65.9088 99.9852 63.4151 100.068 60.6726 100.702C57.816 101.361 55.4001 101.694 53.3575 101.678C53.3471 102.28 53.3471 102.867 53.3523 103.443Z" fill="#E3E3E3"/>
<path d="M53.6789 109.773C53.7359 110.37 53.7929 110.957 53.8552 111.533C55.9082 111.502 58.2774 111.165 61.0614 110.521C63.5084 109.955 65.7429 109.872 67.6819 110.033C67.7337 109.456 67.7804 108.864 67.8218 108.257C65.7222 108.085 63.3114 108.184 60.6622 108.792C57.9612 109.415 55.6438 109.747 53.6737 109.768L53.6789 109.773Z" fill="#E3E3E3"/>
<path d="M54.6743 117.826C54.7572 118.413 54.835 118.995 54.9076 119.581C56.7066 119.467 58.7388 119.145 61.0666 118.611C63.1507 118.128 65.0793 117.998 66.8057 118.065C66.8731 117.484 66.9457 116.897 67.0182 116.295C65.1156 116.206 62.9796 116.352 60.6674 116.887C58.4018 117.406 56.4162 117.728 54.6691 117.826H54.6743Z" fill="#E3E3E3"/>
<path d="M55.4416 125.864C55.4571 126.43 55.4675 127.022 55.4675 127.635C57.1265 127.495 58.9773 127.188 61.0666 126.7C62.9019 126.28 64.6231 126.124 66.1836 126.139C66.1836 125.548 66.1991 124.956 66.2302 124.364C64.535 124.348 62.6686 124.514 60.6726 124.976C58.7337 125.423 56.9969 125.719 55.4468 125.864H55.4416Z" fill="#E3E3E3"/>
<path d="M55.2601 135.74C56.971 135.61 58.8944 135.294 61.0666 134.79C63.1144 134.318 65.0171 134.183 66.7279 134.25C66.702 133.643 66.6657 133.045 66.6191 132.464C64.8201 132.412 62.8241 132.568 60.6726 133.066C58.6922 133.523 56.9191 133.824 55.3379 133.959C55.312 134.546 55.2912 135.138 55.2601 135.74Z" fill="#E3E3E3"/>
<path d="M54.7469 143.866C56.5873 143.763 58.6714 143.435 61.0666 142.885C63.1041 142.413 64.9963 142.278 66.6916 142.34C66.7176 141.748 66.7383 141.156 66.7538 140.559C64.9186 140.497 62.8759 140.647 60.6674 141.161C58.4952 141.665 56.5718 141.976 54.8765 142.091C54.835 142.688 54.7883 143.28 54.7469 143.872V143.866Z" fill="#E3E3E3"/>
<path d="M54.0573 151.987C56.0637 151.936 58.3707 151.598 61.0666 150.975C62.9019 150.554 64.6179 150.399 66.1784 150.414C66.225 149.838 66.2717 149.246 66.3183 148.638C64.5971 148.612 62.7049 148.779 60.6726 149.246C58.21 149.812 56.0741 150.139 54.2232 150.212C54.1662 150.819 54.1144 151.411 54.0573 151.982V151.987Z" fill="#E3E3E3"/>
<path d="M68.0189 157.767C68.2884 157.751 68.5528 157.73 68.8224 157.709C70.414 148.342 69.4964 134.588 69.1542 130.376C68.8017 125.999 69.4808 120.376 71.0206 114.945C72.213 110.728 71.482 100.946 70.8962 93.0897C70.7303 90.8829 70.5747 88.8007 70.4814 87.0872C70.1807 81.5573 72.1819 71.3178 73.281 66.1877C73.0373 66.0579 72.7936 65.9281 72.5552 65.8035C71.4509 70.8817 69.3772 81.3548 69.6934 87.1339C69.7867 88.8526 69.9423 90.94 70.1081 93.152C70.694 100.951 71.4198 110.65 70.2637 114.732C68.698 120.251 68.0085 125.978 68.3714 130.444C68.7136 134.665 69.6364 148.503 68.0137 157.772L68.0189 157.767Z" fill="#4D429B"/>
<path d="M51.7192 119.644C52.6524 125.402 52.3621 129.146 52.0199 133.476C51.911 134.878 51.797 136.322 51.714 137.921C51.4652 142.932 50.6201 153.031 50.2417 157.393C50.5009 157.424 50.7601 157.45 51.0245 157.476C51.3978 153.109 52.248 142.989 52.502 137.957C52.5798 136.374 52.6939 134.93 52.8027 133.539C53.1449 129.156 53.4456 125.371 52.4969 119.519C52.2947 118.263 52.0769 116.985 51.8644 115.718C50.8068 109.441 49.7077 102.95 50.2261 99.8398C50.3505 99.0817 50.5113 98.2197 50.6875 97.3059C51.3926 93.5518 52.2688 88.8838 51.994 84.8285C51.7192 80.8095 50.0758 69.9314 49.4433 65.8346C49.1996 65.9644 48.9559 66.0994 48.7123 66.2344C49.3707 70.5234 50.9416 80.9809 51.2111 84.8856C51.4807 88.837 50.6149 93.4531 49.9202 97.1657C49.7492 98.0848 49.5833 98.9467 49.4588 99.7152C48.9197 102.955 49.9773 109.223 51.0971 115.858C51.3096 117.125 51.5274 118.398 51.7296 119.654L51.7192 119.644Z" fill="#4D429B"/>
<path d="M36.2594 79.5999C36.2594 79.5999 28.2548 106.33 26.2744 115.853C24.2939 125.381 24.1384 145.18 24.1384 145.18C24.1384 145.18 20.639 152.455 20.556 155.69C20.4679 159.143 22.2772 161.884 22.0698 164.143C21.8625 166.402 24.6102 165.176 23.8325 160.602C23.0549 156.027 25.2582 151.884 26.207 152.019C27.1557 152.154 25.4189 157.014 26.264 158.764C27.109 160.513 28.1978 157.112 29.2865 155.046C30.4115 152.901 30.3493 148.223 29.836 144.884C29.3228 141.546 35.3677 121.259 35.3988 115.381L43.051 89.4759C43.051 89.4759 40.521 78.66 36.2594 79.5895V79.5999Z" fill="#FFA681"/>
<path d="M44.0308 88.832C43.7612 90.5507 42.8125 93.5 41.5838 97.2074C41.4801 97.5241 41.3712 97.8409 41.2675 98.168C41.2623 98.1836 41.2572 98.1991 41.252 98.2147C40.9461 99.139 40.6247 100.105 40.2929 101.102V101.117C38.9294 105.245 37.4259 109.965 36.1661 114.82C35.7306 116.482 35.3262 118.159 34.9685 119.831C34.5071 121.965 34.1183 124.094 33.8331 126.176C32.8118 133.679 30.8521 143.186 30.8521 143.186C27.98 144.365 23.4955 142.807 23.4955 142.807C23.4955 142.807 23.3815 129.115 24.0191 123.798C24.8124 117.219 25.8181 112.541 27.0676 107.161C30.5048 92.3681 36.5549 77.8968 38.2139 74.0544C38.3435 73.748 38.4472 73.5092 38.5198 73.343H39.9455C42.7554 75.1292 44.7514 84.1952 44.0152 88.8268L44.0308 88.832Z" fill="#5E47D2"/>
<path d="M23.2674 140.071L23.4904 143.223C23.4904 143.223 27.7571 144.609 30.9558 143.633L31.8009 140.824C28.7214 140.985 25.8752 140.912 23.2674 140.071Z" fill="#8A7EE0"/>
<path d="M41.5838 97.2075C41.5838 97.2542 41.5734 97.3009 41.5579 97.3476C41.4594 97.6125 41.3609 97.8877 41.2675 98.1681C41.2624 98.1836 41.2572 98.1992 41.252 98.2148C40.9357 99.1079 40.6195 100.079 40.2929 101.102V101.117C38.6131 106.44 36.9179 113.133 36.135 117.406C36.1454 116.544 36.1506 115.682 36.1661 114.82C35.7306 116.482 35.3263 118.159 34.9685 119.831C35.1293 118.263 35.5751 115.916 36.1869 113.252C37.4207 107.868 39.313 101.195 40.8165 97.0776C40.8891 96.8751 41.1172 96.7713 41.3194 96.844C41.4801 96.9011 41.5786 97.0517 41.5786 97.2075H41.5838Z" fill="#4D429B"/>
<path d="M184.745 167.897H203.647C203.585 166.583 203.522 165.327 203.46 164.138C203.128 157.652 202.848 153.239 202.848 153.239L187.472 153.924L186.196 153.981L183.936 154.085C183.936 154.085 184.154 158.031 184.496 163.816C184.574 165.093 184.651 166.464 184.74 167.902L184.745 167.897Z" fill="#18315B"/>
<path d="M186.202 153.981L183.941 154.085C183.941 154.085 184.159 158.032 184.501 163.816C190.406 164.309 196.855 164.512 203.465 164.138C203.134 157.652 202.854 153.239 202.854 153.239L187.477 153.924L186.202 153.981Z" fill="#000B29"/>
<path d="M188.26 167.897C187.912 161.895 187.632 156.77 187.477 153.924L186.202 153.981C186.357 156.816 186.637 161.915 186.984 167.897H188.26Z" fill="#000B29"/>
<path d="M179.197 167.897C179.296 166.272 179.384 164.73 179.467 163.307C179.794 157.798 179.996 154.08 179.996 154.08L177.544 153.971L176.273 153.914L161.088 153.239C161.088 153.239 160.923 155.871 160.694 160.051C160.575 162.279 160.435 164.953 160.295 167.897H179.203H179.197Z" fill="#18315B"/>
<path d="M160.689 160.051C164.811 161.022 171.457 162.383 179.467 163.307C179.794 157.798 179.996 154.08 179.996 154.08L177.544 153.971L176.273 153.914L161.088 153.239C161.088 153.239 160.923 155.871 160.694 160.051H160.689Z" fill="#000B29"/>
<path d="M176.761 167.897C177.103 161.91 177.388 156.806 177.544 153.971L176.273 153.914C176.118 156.759 175.833 161.89 175.491 167.897H176.766H176.761Z" fill="#000B29"/>
<path d="M205.596 156.193C201.744 157.253 197.892 158.057 194.045 158.592C192.708 158.779 191.37 158.94 190.028 159.06C188.223 159.226 186.419 159.34 184.615 159.397C181.634 159.491 178.648 159.423 175.667 159.2C169.897 158.779 164.132 157.767 158.361 156.188C158.31 150.798 158.387 131.477 158.792 112.842C158.813 112.006 158.828 111.17 158.849 110.339C158.849 110.163 158.859 109.986 158.859 109.809C158.859 109.617 158.87 109.425 158.875 109.233C158.89 108.641 158.906 108.054 158.916 107.468C158.947 106.268 158.978 105.084 159.01 103.906C159.03 103.205 159.051 102.504 159.072 101.813C159.072 101.668 159.082 101.528 159.087 101.382C159.103 100.925 159.118 100.473 159.129 100.022C159.134 99.8816 159.139 99.7414 159.144 99.6012C159.16 99.1858 159.17 98.7704 159.186 98.3602C159.201 98.0123 159.212 97.6644 159.222 97.3217C159.668 84.7508 160.321 74.8333 161.26 73.4365C162.846 71.0688 168.248 67.9222 172.593 65.3571C174.143 64.4484 175.988 63.4982 177.046 62.7973C178.591 64.0434 179.711 65.165 181.997 65.0871C184.558 64.9988 185.185 63.4567 186.165 62.1378C186.761 62.5272 188.275 63.7682 189.063 64.2304C189.737 64.6302 190.463 65.0508 191.225 65.4869C192.402 66.1619 193.651 66.8785 194.891 67.6054C196.726 68.6855 198.535 69.8018 200.039 70.8715C201.537 71.9359 202.729 72.9588 203.315 73.8415C204.165 75.1189 204.715 83.3904 205.067 94.2737C205.083 94.6528 205.093 95.0422 205.109 95.4316C205.109 95.4784 205.109 95.5251 205.109 95.5718C205.124 95.9665 205.135 96.3715 205.145 96.7765C205.181 98.0019 205.213 99.2533 205.249 100.525C205.254 100.795 205.264 101.065 205.264 101.335C205.27 101.538 205.275 101.74 205.28 101.943C205.29 102.467 205.306 102.992 205.316 103.521C205.316 103.625 205.316 103.734 205.321 103.838C205.353 105.235 205.378 106.652 205.404 108.08C205.415 108.496 205.42 108.916 205.425 109.337C205.747 128.928 205.674 150.404 205.601 156.193H205.596Z" fill="#5E47D2"/>
<path d="M205.425 109.337L199.328 115.531L193.646 109.763L187.964 115.531L182.261 109.737L176.559 115.531L170.82 109.7L165.08 115.531L158.88 109.233C158.895 108.641 158.911 108.054 158.921 107.468C158.953 106.268 158.984 105.084 159.015 103.906L165.075 97.7474L170.814 103.579L176.553 97.7474L182.256 103.542L187.959 97.7474L193.641 103.516L199.323 97.7474L205.321 103.833C205.353 105.23 205.378 106.647 205.404 108.075C205.415 108.491 205.42 108.911 205.425 109.332V109.337Z" fill="#4D429B"/>
<path d="M194.896 141.265C186.73 141.229 179.763 137.506 175.351 134.39C170.581 131.021 167.693 127.609 167.662 127.573C167.522 127.407 167.543 127.157 167.709 127.017C167.875 126.877 168.124 126.898 168.264 127.064C168.29 127.095 171.131 130.444 175.817 133.757C180.131 136.8 186.943 140.44 194.896 140.471C195.113 140.471 195.29 140.647 195.285 140.865C195.285 141.083 195.108 141.255 194.891 141.255L194.896 141.265Z" fill="#4D429B"/>
<path d="M189.805 136.431C182.852 135.06 176.699 129.728 176.419 129.484C176.258 129.338 176.237 129.094 176.382 128.928C176.527 128.762 176.771 128.746 176.937 128.892C177.01 128.954 184.252 135.226 191.63 135.901C191.847 135.917 192.003 136.114 191.987 136.327C191.967 136.545 191.775 136.701 191.562 136.686C190.971 136.634 190.385 136.545 189.81 136.431H189.805Z" fill="#4D429B"/>
<path d="M175.879 75.9134C175.693 75.9134 175.532 75.7836 175.496 75.5915C175.454 75.3786 175.594 75.1709 175.807 75.1293C185.761 73.2393 188.763 66.8215 188.794 66.7591C188.882 66.5618 189.115 66.4736 189.312 66.5618C189.509 66.6501 189.597 66.8838 189.509 67.0811C189.385 67.3615 186.305 73.9351 175.957 75.903C175.931 75.903 175.905 75.9082 175.885 75.9082L175.879 75.9134Z" fill="#4D429B"/>
<path d="M163.732 93.1781C163.722 93.2248 163.701 93.2664 163.681 93.3079C163.53 93.5468 163.375 93.796 163.219 94.0452C163.209 94.0608 163.204 94.0712 163.193 94.0868C162.696 94.8916 162.177 95.7743 161.643 96.7038C161.643 96.709 161.643 96.7142 161.633 96.7193C160.798 98.1836 159.932 99.7725 159.087 101.382C159.103 100.925 159.118 100.473 159.129 100.022C159.134 99.8815 159.139 99.7413 159.144 99.6011C160.508 97.0621 161.871 94.6891 163.012 92.8873C163.131 92.7004 163.37 92.6485 163.556 92.7679C163.696 92.8614 163.764 93.0275 163.732 93.1833V93.1781Z" fill="#4D429B"/>
<path d="M213.896 78.5925C213.896 78.5925 226.624 74.4957 230.393 66.1307C231.482 63.7058 222.508 39.1041 222.508 39.1041L218.173 39.3118C218.173 39.3118 219.407 47.8482 220.159 52.6823C220.776 56.6545 221.771 61.4056 222.103 62.9685C222.176 63.306 222.217 63.4981 222.217 63.4981C222.005 63.5345 221.792 63.576 221.574 63.6176C215.628 64.8274 208.033 68.7061 208.033 68.7061L213.896 78.5925Z" fill="#FFA681"/>
<path d="M225.416 65.8555C225.597 65.9853 225.857 65.949 225.986 65.7672C226.121 65.5803 226.08 65.3259 225.898 65.1961C224.97 64.521 223.576 63.7318 222.108 62.9685C222.181 63.306 222.222 63.4981 222.222 63.4981C222.01 63.5345 221.797 63.576 221.58 63.6176C223.073 64.386 224.504 65.1857 225.421 65.8555H225.416Z" fill="#F97853"/>
<path d="M194.419 67.3406C194.419 67.3406 190.567 76.391 200.37 81.4277C207.157 84.917 222.611 75.8094 222.611 75.8094L217.1 64.0953C217.1 64.0953 202.963 69.9368 194.419 67.3406Z" fill="#5E47D2"/>
<path d="M220.289 25.2768C219.905 25.5468 219.983 27.2083 220.154 28.7764C220.102 28.7868 220.045 28.792 219.988 28.8024C219.532 26.7151 218.625 23.1582 217.847 23.8385C217.339 24.285 218.018 27.3485 218.485 29.1815C218.391 29.2126 218.293 29.2438 218.199 29.2749C217.614 27.0993 216.354 22.909 215.519 23.7242C214.959 24.2694 216.032 27.956 216.629 29.8409C216.546 29.8721 216.463 29.9032 216.385 29.9396C215.815 28.1118 214.596 24.6589 213.762 25.4689C213.005 26.2062 215.172 31.4246 215.172 31.4246L215.742 33.4756C215.742 33.4756 215.068 33.7664 214.016 32.5721C212.963 31.3779 211.703 31.1702 212.58 32.894C213.57 34.8464 215.032 36.2432 215.675 37.6243C216.317 39.0055 218.345 39.4625 218.345 39.4625L222.414 39.2651C222.414 39.2651 223.202 32.38 221.683 29.0932C221.424 27.1408 220.963 24.8094 220.299 25.2819L220.289 25.2768Z" fill="#FFA681"/>
<path d="M169.954 41.1551C169.954 48.0974 174.22 52.8796 181.147 52.8796C188.073 52.8796 192.905 47.7391 192.905 40.7969C192.905 38.8809 192.594 37.0947 191.992 35.5162C191.956 35.4227 191.92 35.3292 191.884 35.2358C191.811 35.054 191.733 34.8775 191.65 34.701C191.531 34.4309 191.396 34.1713 191.251 33.9169C189.447 30.6664 186.212 28.5999 181.867 28.5999C173.557 28.5999 169.949 34.2129 169.949 41.1551H169.954Z" fill="#121B46"/>
<path d="M171.514 44.146C171.514 44.146 169.591 41.5757 168.16 43.6994C166.729 45.8231 168.751 52.106 172.256 50.569L171.514 44.1408V44.146Z" fill="#F97853"/>
<path d="M171.488 48.6323C171.359 48.6323 171.239 48.544 171.203 48.4142C170.659 46.4774 168.652 45.6882 168.637 45.683C168.487 45.6259 168.409 45.4545 168.466 45.2988C168.523 45.1482 168.694 45.0703 168.849 45.1274C168.943 45.1638 171.151 46.0205 171.779 48.2532C171.825 48.409 171.732 48.5752 171.571 48.6167C171.545 48.6219 171.519 48.6271 171.493 48.6271L171.488 48.6323Z" fill="#EA5143"/>
<path d="M169.461 47.6561C169.404 47.6561 169.352 47.6405 169.3 47.6093C169.161 47.5211 169.124 47.3393 169.212 47.1991C169.228 47.1784 169.58 46.6332 170.322 46.3008C170.472 46.2333 170.648 46.3008 170.711 46.4514C170.778 46.602 170.711 46.7786 170.56 46.8409C169.985 47.1005 169.71 47.5159 169.705 47.5159C169.648 47.6041 169.555 47.6509 169.456 47.6509L169.461 47.6561Z" fill="#EA5143"/>
<path d="M191.35 44.146C191.35 44.146 193.273 41.5757 194.704 43.6994C196.135 45.8231 194.113 52.106 190.608 50.569L191.35 44.1408V44.146Z" fill="#F97853"/>
<path d="M191.376 48.6323C191.505 48.6323 191.624 48.544 191.661 48.4142C192.205 46.4774 194.206 45.6882 194.227 45.683C194.377 45.6259 194.455 45.4545 194.398 45.2988C194.341 45.1482 194.17 45.0703 194.014 45.1274C193.921 45.1638 191.712 46.0205 191.085 48.2532C191.044 48.409 191.132 48.5752 191.293 48.6167C191.318 48.6219 191.344 48.6271 191.37 48.6271L191.376 48.6323Z" fill="#EA5143"/>
<path d="M193.397 47.6561C193.454 47.6561 193.506 47.6405 193.558 47.6093C193.698 47.5211 193.734 47.3393 193.646 47.1991C193.631 47.1784 193.278 46.6332 192.537 46.3008C192.386 46.2333 192.21 46.3008 192.148 46.4514C192.081 46.602 192.148 46.7786 192.298 46.8409C192.874 47.1005 193.149 47.5159 193.154 47.5159C193.211 47.6041 193.304 47.6509 193.403 47.6509L193.397 47.6561Z" fill="#EA5143"/>
<path d="M186.17 55.8964V62.1377C186.17 62.1377 184.309 65.3155 181.795 65.5336C179.286 65.7517 177.051 62.7972 177.051 62.7972V56.3326L186.17 55.8912V55.8964Z" fill="#FFA681"/>
<path d="M186.17 55.8965V58.6692C184.485 60.5437 181.489 61.011 177.051 60.3568V56.3378L186.17 55.8965Z" fill="#F97853"/>
<path d="M192.744 39.8622C192.63 42.2871 192.397 45.3247 191.935 47.7495C191.821 48.357 191.692 48.923 191.547 49.4319C190.235 54.0324 186.953 61.9249 177.767 58.638C173.707 57.1894 171.83 52.6616 170.991 48.0559C170.42 44.93 170.337 41.7731 170.379 39.5143C170.426 37.2089 171.68 35.106 173.681 33.9688C179.104 30.8897 184.828 32.0373 188.591 33.4859C191.204 34.4933 192.879 37.0635 192.744 39.8622Z" fill="#FFA681"/>
<path d="M177.492 44.9612C177.492 45.6259 177.15 46.1659 176.725 46.1659C176.299 46.1659 175.957 45.6259 175.957 44.9612C175.957 44.2966 176.299 43.7566 176.725 43.7566C177.15 43.7566 177.492 44.2966 177.492 44.9612Z" fill="#18315B"/>
<path d="M186.523 44.9352C186.523 45.5999 186.181 46.1399 185.756 46.1399C185.331 46.1399 184.988 45.5999 184.988 44.9352C184.988 44.2706 185.331 43.7306 185.756 43.7306C186.181 43.7306 186.523 44.2706 186.523 44.9352Z" fill="#18315B"/>
<path d="M188.255 40.7865C188.255 40.7865 185.839 39.8311 183.977 40.6359L184.164 41.6744C184.164 41.6744 186.896 41.4407 188.27 42.0015C188.394 41.6017 188.41 41.1967 188.255 40.7917V40.7865Z" fill="#18315B"/>
<path d="M174.169 40.7865C174.169 40.7865 176.585 39.8311 178.446 40.6359L178.259 41.6744C178.259 41.6744 175.527 41.4407 174.153 42.0015C174.029 41.6017 174.013 41.1967 174.169 40.7917V40.7865Z" fill="#18315B"/>
<path d="M181.536 50.0187C182.033 50.0187 182.531 49.8213 182.609 49.7902C182.759 49.7279 182.832 49.5565 182.769 49.406C182.707 49.2554 182.536 49.1827 182.386 49.245C182.116 49.354 181.479 49.5254 181.199 49.3592C181.147 49.3281 181.074 49.2606 181.053 49.084C180.945 48.0507 181.23 44.577 181.235 44.5407C181.25 44.3797 181.126 44.2343 180.965 44.2187C180.799 44.2031 180.659 44.3278 180.644 44.4887C180.634 44.6341 180.354 48.0507 180.468 49.1411C180.509 49.5513 180.727 49.759 180.898 49.8629C181.09 49.9771 181.313 50.0187 181.541 50.0187H181.536Z" fill="#F97853"/>
<path d="M177.559 51.5244C178.052 53.2379 179.451 54.941 181.38 54.967C183.303 54.941 184.703 53.2379 185.196 51.5244H177.559Z" fill="white"/>
<path d="M181.214 56.8258C181.981 56.8258 182.63 56.4364 182.655 56.4208C182.795 56.3378 182.842 56.156 182.754 56.0158C182.671 55.8756 182.49 55.8289 182.35 55.9172C182.35 55.9172 181.81 56.2391 181.214 56.2391C180.665 56.2391 180.141 55.9224 180.136 55.9224C179.996 55.8341 179.814 55.8808 179.726 56.021C179.638 56.1612 179.685 56.343 179.825 56.4312C179.851 56.4468 180.488 56.8362 181.214 56.8362V56.8258Z" fill="#F97853"/>
<path d="M192.428 44.1979H191.085C191.236 42.8479 191.448 40.4698 190.339 40.1322C186.839 39.0574 191.375 36.5806 189.794 35.3448C188.218 34.109 184.288 34.6387 181.556 34.5504C178.809 34.4621 174.386 34.4985 173.318 34.7477C172.245 34.9917 172.831 36.7831 173.225 38.1695C173.624 39.5507 171.908 41.0825 171.618 42.5156C171.535 42.9258 171.55 43.5385 171.618 44.1979H170.498C170.363 42.4533 170.348 40.8332 170.368 39.5143C170.415 37.2089 171.67 35.106 173.671 33.9688C179.094 30.8897 184.817 32.0373 188.581 33.4859C191.194 34.4933 192.869 37.0635 192.734 39.8622C192.672 41.1915 192.573 42.7025 192.423 44.1979H192.428Z" fill="#121B46"/>
<path d="M176.59 48.4557C174.739 48.4557 173.235 46.9499 173.235 45.0962C173.235 43.2425 174.739 41.7367 176.59 41.7367C178.441 41.7367 179.944 43.2425 179.944 45.0962C179.944 46.9499 178.441 48.4557 176.59 48.4557ZM176.59 42.2611C175.029 42.2611 173.759 43.5333 173.759 45.0962C173.759 46.6591 175.029 47.9313 176.59 47.9313C178.15 47.9313 179.42 46.6591 179.42 45.0962C179.42 43.5333 178.15 42.2611 176.59 42.2611Z" fill="white"/>
<path d="M185.756 48.4557C183.905 48.4557 182.401 46.9499 182.401 45.0962C182.401 43.2425 183.905 41.7367 185.756 41.7367C187.606 41.7367 189.11 43.2425 189.11 45.0962C189.11 46.9499 187.606 48.4557 185.756 48.4557ZM185.756 42.2611C184.195 42.2611 182.925 43.5333 182.925 45.0962C182.925 46.6591 184.195 47.9313 185.756 47.9313C187.316 47.9313 188.586 46.6591 188.586 45.0962C188.586 43.5333 187.316 42.2611 185.756 42.2611Z" fill="white"/>
<path d="M173.806 44.0161C173.738 44.0161 173.671 43.9902 173.624 43.9382C173.624 43.9382 172.084 42.4428 170.089 42.9101C169.949 42.9413 169.809 42.853 169.772 42.7128C169.741 42.5726 169.829 42.4324 169.969 42.3961C172.256 41.8613 173.925 43.4917 173.992 43.5644C174.096 43.6682 174.096 43.8344 173.992 43.9331C173.94 43.985 173.873 44.0109 173.806 44.0109V44.0161Z" fill="white"/>
<path d="M188.602 44.0162C188.519 44.0162 188.431 43.9747 188.384 43.8968C188.306 43.7774 188.337 43.6112 188.462 43.5333C188.56 43.4658 190.935 41.934 192.952 42.2664C193.092 42.2923 193.19 42.4221 193.169 42.5675C193.143 42.7077 193.014 42.8064 192.869 42.7856C191.054 42.4844 188.773 43.9591 188.747 43.9747C188.706 44.0058 188.654 44.0162 188.607 44.0162H188.602Z" fill="white"/>
<path d="M182.588 44.3433C182.588 44.3433 181.961 43.4917 181.147 43.4917C180.333 43.4917 179.778 44.3329 179.773 44.3381L179.337 44.0525C179.369 44.0058 180.058 42.9673 181.152 42.9673C182.246 42.9673 182.987 43.9902 183.018 44.0317L182.593 44.3381L182.588 44.3433Z" fill="white"/>
<path d="M162.628 92.6848C162.628 92.6848 159.098 99.5337 154.94 104.96C153.711 106.559 152.431 108.039 151.171 109.176C149.128 111.024 147.132 111.99 145.509 111.17C139.485 108.127 126.058 83.9252 126.058 83.9252L129.365 79.9946C129.365 79.9946 135.343 86.9057 139.713 91.044C143.747 94.8605 146.842 97.7111 146.842 97.7111C147.402 96.8596 147.993 95.9301 148.615 94.9436C149.273 93.8947 149.952 92.7887 150.647 91.6464C155.681 83.3696 161.265 73.4365 161.265 73.4365L162.633 92.6848H162.628Z" fill="#FFA681"/>
<path d="M154.94 104.96C153.711 106.559 152.431 108.039 151.171 109.176L148.61 94.9436C149.268 93.8947 149.947 92.7887 150.642 91.6464L154.94 104.955V104.96Z" fill="#F97853"/>
<path d="M161.26 73.4365L149.19 92.4512L153.239 109.176L163.23 92.8874C163.23 92.8874 164.443 81.7444 161.26 73.4365Z" fill="#5E47D2"/>
<path d="M146.085 167.897C145.224 163.11 144.374 157.715 143.602 152.476C143.431 151.318 143.265 150.165 143.104 149.033C142.487 144.692 141.932 140.59 141.486 137.184C141.315 135.891 141.165 134.697 141.025 133.632C140.595 130.231 140.341 128.123 140.341 128.123L121.278 128.845L102.158 128.123C102.158 128.123 101.665 132.303 100.877 138.357C100.732 139.458 100.582 140.621 100.416 141.836C99.9908 145.014 99.5086 148.524 98.985 152.117C98.9798 152.169 98.9695 152.221 98.9591 152.273C98.7932 153.395 98.6325 154.521 98.4562 155.648C98.4562 155.664 98.4562 155.679 98.451 155.695C98.0415 158.421 97.6112 161.147 97.1757 163.764C96.9942 164.844 96.8128 165.908 96.6313 166.942C96.5743 167.264 96.5173 167.58 96.4602 167.897H146.08H146.085Z" fill="#5E47D2"/>
<path d="M106.549 133.856C106.549 134.847 105.745 135.657 104.75 135.657C103.755 135.657 102.951 134.853 102.951 133.856C102.951 132.859 103.755 132.054 104.75 132.054C105.745 132.054 106.549 132.859 106.549 133.856Z" fill="#4D429B"/>
<path d="M111.008 140.829C111.008 141.821 110.204 142.631 109.209 142.631C108.213 142.631 107.41 141.826 107.41 140.829C107.41 139.832 108.213 139.027 109.209 139.027C110.204 139.027 111.008 139.832 111.008 140.829Z" fill="#4D429B"/>
<path d="M119.779 137.231C119.779 138.222 118.976 139.032 117.981 139.032C116.985 139.032 116.182 138.228 116.182 137.231C116.182 136.234 116.985 135.429 117.981 135.429C118.976 135.429 119.779 136.234 119.779 137.231Z" fill="#4D429B"/>
<path d="M105.937 148.233C105.937 149.225 105.134 150.035 104.138 150.035C103.143 150.035 102.339 149.23 102.339 148.233C102.339 147.236 103.143 146.432 104.138 146.432C105.134 146.432 105.937 147.236 105.937 148.233Z" fill="#4D429B"/>
<path d="M116.897 147.465C116.897 148.457 116.093 149.267 115.098 149.267C114.103 149.267 113.299 148.462 113.299 147.465C113.299 146.468 114.103 145.663 115.098 145.663C116.093 145.663 116.897 146.468 116.897 147.465Z" fill="#4D429B"/>
<path d="M102.044 140.045C102.044 140.98 101.328 141.753 100.416 141.836C100.577 140.621 100.732 139.458 100.877 138.357C101.562 138.612 102.044 139.271 102.044 140.045Z" fill="#4D429B"/>
<path d="M134.757 158.037C134.757 159.028 133.954 159.839 132.958 159.839C131.963 159.839 131.159 159.034 131.159 158.037C131.159 157.04 131.963 156.235 132.958 156.235C133.954 156.235 134.757 157.04 134.757 158.037Z" fill="#4D429B"/>
<path d="M133.912 148.233C133.912 149.225 133.108 150.035 132.113 150.035C131.118 150.035 130.314 149.23 130.314 148.233C130.314 147.236 131.118 146.432 132.113 146.432C133.108 146.432 133.912 147.236 133.912 148.233Z" fill="#4D429B"/>
<path d="M143.596 152.476C143.379 152.569 143.14 152.616 142.891 152.616C141.901 152.616 141.098 151.811 141.098 150.819C141.098 149.828 141.901 149.023 142.891 149.023C142.964 149.023 143.031 149.023 143.099 149.038C143.265 150.17 143.431 151.323 143.596 152.481V152.476Z" fill="#4D429B"/>
<path d="M135.706 165.218C135.706 166.21 134.902 167.02 133.907 167.02C132.911 167.02 132.108 166.215 132.108 165.218C132.108 164.221 132.911 163.416 133.907 163.416C134.902 163.416 135.706 164.221 135.706 165.218Z" fill="#4D429B"/>
<path d="M143.389 162.346C143.389 163.338 142.585 164.148 141.59 164.148C140.595 164.148 139.791 163.343 139.791 162.346C139.791 161.35 140.595 160.545 141.59 160.545C142.585 160.545 143.389 161.35 143.389 162.346Z" fill="#4D429B"/>
<path d="M127.401 167.897C127.079 167.425 126.535 167.113 125.918 167.113C125.301 167.113 124.762 167.425 124.435 167.897H127.395H127.401Z" fill="#4D429B"/>
<path d="M104.755 159.6C104.755 160.591 103.952 161.401 102.956 161.401C101.961 161.401 101.157 160.597 101.157 159.6C101.157 158.603 101.961 157.798 102.956 157.798C103.952 157.798 104.755 158.603 104.755 159.6Z" fill="#4D429B"/>
<path d="M100.012 153.914C100.012 154.828 99.3324 155.581 98.451 155.695C98.451 155.679 98.4562 155.664 98.4562 155.648C98.6273 154.521 98.7932 153.395 98.9591 152.273C99.5812 152.559 100.012 153.182 100.012 153.914Z" fill="#4D429B"/>
<path d="M97.9119 165.218C97.9119 166.033 97.3727 166.718 96.6313 166.942C96.8128 165.908 96.9942 164.844 97.1757 163.764C97.6215 164.091 97.9119 164.621 97.9119 165.218Z" fill="#4D429B"/>
<path d="M109.214 165.976C109.214 166.968 108.41 167.778 107.415 167.778C106.419 167.778 105.616 166.973 105.616 165.976C105.616 164.979 106.419 164.174 107.415 164.174C108.41 164.174 109.214 164.979 109.214 165.976Z" fill="#4D429B"/>
<path d="M118.696 164.569C118.696 165.56 117.892 166.37 116.897 166.37C115.902 166.37 115.098 165.566 115.098 164.569C115.098 163.572 115.902 162.767 116.897 162.767C117.892 162.767 118.696 163.572 118.696 164.569Z" fill="#4D429B"/>
<path d="M111.93 155.721C111.93 156.713 111.127 157.523 110.131 157.523C109.136 157.523 108.332 156.718 108.332 155.721C108.332 154.724 109.136 153.919 110.131 153.919C111.127 153.919 111.93 154.724 111.93 155.721Z" fill="#4D429B"/>
<path d="M121.578 153.924C121.578 154.916 120.775 155.726 119.779 155.726C118.784 155.726 117.981 154.921 117.981 153.924C117.981 152.927 118.784 152.123 119.779 152.123C120.775 152.123 121.578 152.927 121.578 153.924Z" fill="#4D429B"/>
<path d="M125.918 144.427C125.918 145.419 125.114 146.229 124.119 146.229C123.123 146.229 122.32 145.424 122.32 144.427C122.32 143.43 123.123 142.626 124.119 142.626C125.114 142.626 125.918 143.43 125.918 144.427Z" fill="#4D429B"/>
<path d="M141.481 137.184C141.357 137.215 141.227 137.225 141.098 137.225C140.102 137.225 139.304 136.421 139.304 135.429C139.304 134.437 140.066 133.669 141.025 133.632C141.165 134.697 141.315 135.891 141.486 137.184H141.481Z" fill="#4D429B"/>
<path d="M132.113 137.231C132.113 138.222 131.31 139.032 130.314 139.032C129.319 139.032 128.515 138.228 128.515 137.231C128.515 136.234 129.319 135.429 130.314 135.429C131.31 135.429 132.113 136.234 132.113 137.231Z" fill="#4D429B"/>
<path d="M138.692 143.643C138.692 144.635 137.888 145.445 136.893 145.445C135.898 145.445 135.094 144.64 135.094 143.643C135.094 142.646 135.898 141.842 136.893 141.842C137.888 141.842 138.692 142.646 138.692 143.643Z" fill="#4D429B"/>
<path d="M127.717 159.6C127.717 160.591 126.913 161.401 125.918 161.401C124.922 161.401 124.119 160.597 124.119 159.6C124.119 158.603 124.922 157.798 125.918 157.798C126.913 157.798 127.717 158.603 127.717 159.6Z" fill="#4D429B"/>
<path d="M141.497 128.596C131.439 135.169 112.978 134.655 101.375 128.596C102.484 121.679 103.941 114.758 103.63 105.557C103.594 104.55 103.552 103.547 103.501 102.55C103.454 101.689 103.407 100.827 103.35 99.9802C102.35 84.6678 99.7419 72.1488 101.022 70.534C101.582 69.8278 102.516 69.0593 103.666 68.2805C104.118 67.9741 104.6 67.6626 105.113 67.3458C106.316 66.6085 107.653 65.8712 109.001 65.1494C112.19 63.4463 115.43 61.8626 117.053 60.7826C118.66 61.4836 119.945 61.8678 121.324 61.8626C121.361 61.8626 121.402 61.8626 121.444 61.8626C121.48 61.8626 121.521 61.8626 121.558 61.8626C122.937 61.8678 124.222 61.4836 125.83 60.7826C127.333 61.7847 130.169 63.1867 133.062 64.7081C135.187 65.8296 137.344 67.0187 139.024 68.1766C140.123 68.9295 141.02 69.672 141.569 70.3678C142.202 71.1674 141.937 74.6879 141.393 79.8959C140.854 85.0208 140.05 91.7918 139.563 99.2273C139.428 101.294 139.319 103.412 139.242 105.557C138.931 114.758 140.387 121.685 141.497 128.596Z" fill="#55C1F2"/>
<path d="M135.348 120.947C127.25 120.911 120.339 117.219 115.964 114.13C111.236 110.786 108.369 107.4 108.343 107.369C108.203 107.203 108.224 106.959 108.389 106.819C108.555 106.678 108.799 106.699 108.939 106.865C108.965 106.897 111.78 110.22 116.43 113.506C120.707 116.528 127.463 120.132 135.348 120.168C135.566 120.168 135.737 120.345 135.737 120.558C135.737 120.771 135.561 120.947 135.348 120.947Z" fill="#5E47D2"/>
<path d="M129.988 116.227C123.092 114.872 116.99 109.581 116.71 109.337C116.55 109.197 116.534 108.947 116.674 108.786C116.814 108.626 117.063 108.61 117.224 108.75C117.296 108.812 124.477 115.033 131.797 115.703C132.015 115.718 132.17 115.91 132.149 116.129C132.129 116.341 131.942 116.502 131.724 116.482C131.138 116.43 130.558 116.341 129.982 116.227H129.988Z" fill="#5E47D2"/>
<path d="M119.779 80.4982C119.598 80.4982 119.432 80.3684 119.396 80.1815C119.354 79.9686 119.494 79.7661 119.707 79.7245C129.578 77.8501 132.554 71.4894 132.585 71.4219C132.673 71.2245 132.906 71.1363 133.098 71.2245C133.295 71.3128 133.383 71.5465 133.29 71.7386C133.166 72.0138 130.117 78.5355 119.847 80.4878C119.821 80.4878 119.8 80.493 119.774 80.493L119.779 80.4982Z" fill="#5E47D2"/>
<path d="M133.062 64.7028C131.102 69.1787 126.286 73.8155 120.018 72.7303C113.952 71.6815 111.075 68.4673 108.996 65.1442C112.184 63.4359 115.425 61.8574 117.047 60.7773C118.654 61.4783 119.94 61.8626 121.319 61.8574C121.356 61.8574 121.397 61.8574 121.439 61.8574C121.475 61.8574 121.516 61.8574 121.558 61.8574C122.937 61.8626 124.223 61.4783 125.83 60.7773C127.333 61.7795 130.169 63.1762 133.062 64.7028Z" fill="#FFA681"/>
<path d="M127.826 61.1045C127.655 61.1045 127.515 61.2395 127.515 61.4109C127.515 61.6601 127.411 67.5795 122.107 68.0364C117.187 68.4622 115.15 63.7474 114.523 61.7899C114.486 61.6757 114.377 61.5978 114.258 61.5978H114.201C114.015 61.5978 113.88 61.7847 113.937 61.9613C114.606 63.9811 116.752 68.8568 121.765 68.6751C121.895 68.6751 122.03 68.6647 122.159 68.6491C128.028 68.1402 128.132 61.4732 128.132 61.4057C128.132 61.2343 127.997 61.0941 127.826 61.0941V61.1045Z" fill="white"/>
<path d="M131.574 29.6487C131.574 29.6487 136.312 37.0012 135.794 44.6601C135.276 52.3189 136.494 61.1616 129.651 60.7722C122.807 60.3827 110.603 63.5189 106.72 57.5528C102.842 51.5867 131.574 29.6436 131.574 29.6436V29.6487Z" fill="#121B46"/>
<path d="M133.331 43.1698C133.331 43.1698 134.56 54.2712 129.303 57.3296C124.041 60.3879 120.236 56.9713 120.236 56.9713C120.236 56.9713 131.325 41.4979 133.331 43.1698Z" fill="#000B29"/>
<path d="M111.479 43.118C111.479 43.118 109.592 40.5945 108.187 42.6818C106.782 44.7692 108.768 50.9274 112.205 49.4216L111.479 43.118Z" fill="#F97853"/>
<path d="M111.459 47.5212C111.334 47.5212 111.215 47.4381 111.179 47.3083C110.645 45.4079 108.68 44.6342 108.659 44.629C108.509 44.5719 108.436 44.4057 108.493 44.2552C108.55 44.1046 108.716 44.0319 108.866 44.0838C108.96 44.1202 111.127 44.9613 111.739 47.1525C111.78 47.3083 111.692 47.4693 111.536 47.5108C111.51 47.516 111.485 47.5212 111.459 47.5212Z" fill="#EA5143"/>
<path d="M109.468 46.5658C109.416 46.5658 109.359 46.5502 109.312 46.519C109.178 46.4307 109.136 46.2542 109.224 46.1192C109.24 46.0984 109.587 45.5636 110.313 45.2365C110.458 45.169 110.629 45.2365 110.697 45.3819C110.764 45.5273 110.697 45.6986 110.551 45.7661C109.986 46.0205 109.717 46.4256 109.711 46.4307C109.654 46.519 109.561 46.5658 109.468 46.5658Z" fill="#EA5143"/>
<path d="M130.947 43.118C130.947 43.118 132.834 40.5945 134.239 42.6818C135.644 44.7692 133.658 50.9274 130.221 49.4216L130.947 43.118Z" fill="#F97853"/>
<path d="M130.967 47.5212C131.097 47.5212 131.211 47.4381 131.247 47.3083C131.781 45.4079 133.746 44.6342 133.767 44.629C133.917 44.5719 133.99 44.4057 133.933 44.2552C133.876 44.1046 133.71 44.0319 133.56 44.0838C133.466 44.1202 131.299 44.9613 130.687 47.1525C130.646 47.3083 130.734 47.4693 130.89 47.5108C130.916 47.516 130.941 47.5212 130.967 47.5212Z" fill="#EA5143"/>
<path d="M132.953 46.5658C133.005 46.5658 133.062 46.5502 133.108 46.519C133.243 46.4307 133.285 46.2542 133.197 46.1192C133.181 46.0984 132.834 45.5636 132.108 45.2365C131.963 45.169 131.792 45.2365 131.724 45.3819C131.657 45.5273 131.724 45.6986 131.869 45.7661C132.435 46.0205 132.704 46.4256 132.709 46.4307C132.766 46.519 132.86 46.5658 132.953 46.5658Z" fill="#EA5143"/>
<path d="M125.861 54.6504V60.7775C125.861 60.7775 124.036 63.8981 121.568 64.111C119.106 64.3239 116.913 61.4265 116.913 61.4265V55.0866L125.856 54.6556L125.861 54.6504Z" fill="#FFA681"/>
<path d="M125.861 54.6503V57.366C124.207 59.2041 121.267 59.8583 116.918 59.2145V55.0761L125.861 54.6451V54.6503Z" fill="#F97853"/>
<path d="M132.31 38.9173C132.196 41.2954 131.968 44.2759 131.517 46.654C131.403 47.246 131.273 47.8067 131.133 48.3052C129.848 52.8174 126.628 60.5593 117.612 57.3348C113.631 55.9121 111.785 51.4726 110.966 46.9552C110.406 43.8865 110.323 40.7866 110.365 38.5746C110.406 36.3159 111.64 34.2493 113.605 33.1329C118.924 30.1109 124.539 31.2377 128.235 32.6604C130.801 33.647 132.445 36.1705 132.31 38.9121V38.9173Z" fill="#FFA681"/>
<path d="M117.244 43.4815C117.244 44.1357 116.907 44.6654 116.493 44.6654C116.078 44.6654 115.741 44.1357 115.741 43.4815C115.741 42.8272 116.078 42.2976 116.493 42.2976C116.907 42.2976 117.244 42.8272 117.244 43.4815Z" fill="#121B46"/>
<path d="M126.524 43.4815C126.524 44.1357 126.187 44.6654 125.773 44.6654C125.358 44.6654 125.021 44.1357 125.021 43.4815C125.021 42.8272 125.358 42.2976 125.773 42.2976C126.187 42.2976 126.524 42.8272 126.524 43.4815Z" fill="#121B46"/>
<path d="M115.005 39.9558C115.627 39.7793 116.892 39.4781 118.219 39.4729C118.572 39.4729 118.836 39.7844 118.774 40.1271V40.1375C118.722 40.4127 118.478 40.61 118.198 40.5945C117.291 40.5529 114.917 40.6775 113.797 41.1345C113.776 40.9372 113.89 40.7243 114.051 40.5373C114.3 40.2518 114.637 40.0596 115.005 39.9558Z" fill="#121B46"/>
<path d="M127.146 39.9765C126.524 39.8 125.259 39.4988 123.932 39.4937C123.585 39.4937 123.315 39.8052 123.377 40.1479V40.1583C123.429 40.4335 123.673 40.6308 123.953 40.6152C124.86 40.5737 127.235 40.6983 128.354 41.1552C128.375 40.9579 128.261 40.745 128.1 40.5581C127.852 40.2725 127.515 40.0804 127.146 39.9765Z" fill="#121B46"/>
<path d="M121.314 48.8816C121.091 48.8816 120.868 48.8401 120.682 48.731C120.51 48.6272 120.303 48.4247 120.262 48.0197C120.153 46.95 120.422 43.5957 120.438 43.4555C120.453 43.2945 120.593 43.1751 120.749 43.1907C120.91 43.2063 121.029 43.3465 121.013 43.5022C121.013 43.5386 120.733 46.9448 120.837 47.9573C120.858 48.1339 120.925 48.1962 120.982 48.2273C121.257 48.3935 121.884 48.2273 122.149 48.1183C122.299 48.056 122.465 48.1287 122.527 48.2793C122.589 48.4299 122.517 48.596 122.367 48.6583C122.289 48.6895 121.807 48.8816 121.314 48.8816Z" fill="#F97853"/>
<path d="M117.623 50.7197C117.841 51.8257 118.572 53.8612 121.034 53.8612C123.497 53.8612 124.191 52.0023 124.43 50.7197H117.628H117.623Z" fill="white"/>
<path d="M120.998 55.559C120.288 55.559 119.66 55.1748 119.634 55.1592C119.5 55.0761 119.458 54.8944 119.541 54.7594C119.624 54.6244 119.805 54.5829 119.94 54.6659C119.94 54.6659 120.459 54.9775 120.998 54.9775C121.584 54.9775 122.107 54.6659 122.112 54.6659C122.252 54.5829 122.429 54.6296 122.512 54.7646C122.595 54.8996 122.553 55.0813 122.413 55.1644C122.387 55.18 121.75 55.5642 120.998 55.5642V55.559Z" fill="#F97853"/>
<path d="M133.482 38.4448C133.388 38.7096 133.129 38.8809 132.782 38.9796C132.808 39.6234 132.74 40.3919 132.678 41.1344C132.32 45.3403 131.258 46.0776 131.019 45.0391C130.864 44.3485 130.869 40.3867 130.947 39.0938C130.117 39.0367 129.407 38.9017 129.407 38.9017L128.432 34.8204L128.09 38.855C126.628 39.3638 123.222 38.5486 123.222 38.5486L122.076 34.5245L121.371 38.398C119.178 39.4677 116.441 38.7563 116.441 38.7563L115.813 34.5764L114.362 38.7563C114.362 38.7563 109.686 40.4386 109.634 38.7563C109.603 37.7801 110.318 35.0281 110.919 32.8941C111.578 30.5678 113.102 28.6051 115.165 27.4939C120.967 24.3785 127.1 26.0349 129.199 27.2914C133.663 29.9603 133.477 38.45 133.477 38.45L133.482 38.4448Z" fill="#121B46"/>
<path d="M112.205 29.9603C112.205 29.9603 108.358 34.5452 107.088 42.7337C105.823 50.9222 104.071 56.9713 108.996 59.6766C114.331 62.6051 113.869 56.6027 113.792 54.9722C113.714 53.3418 109.177 48.8815 112.205 36.3262C113.185 32.271 112.205 29.9655 112.205 29.9655V29.9603Z" fill="#121B46"/>
<path d="M111.308 46.8824V46.8928C111.308 46.9551 111.313 47.2771 111.339 47.7859C111.35 48.1027 111.37 48.4869 111.402 48.9231C111.583 51.6802 112.117 56.4469 113.693 58.0981C114.315 58.7523 115.513 59.0794 116.923 59.2144V57.0492C115.435 56.343 114.279 55.1799 113.377 53.752C112.822 52.5474 111.863 50.6625 111.417 47.6977L111.308 46.8824Z" fill="#000B29"/>
<path d="M132.383 49.5618C132.383 49.9408 132.077 50.242 131.703 50.242C131.33 50.242 131.024 49.9357 131.024 49.5618C131.024 49.1879 131.33 48.8816 131.703 48.8816C132.077 48.8816 132.383 49.1879 132.383 49.5618Z" fill="white"/>
<path d="M146.256 100.925C144.327 106.455 135.69 106.05 125.856 103.028C125.84 103.028 125.83 103.018 125.814 103.018C125.783 103.007 125.752 102.997 125.721 102.987L124.368 102.556C124.181 102.493 123.994 102.431 123.808 102.369C122.75 102.016 121.682 101.631 120.609 101.221C117.094 99.8867 113.553 98.2978 110.214 96.6103L110.235 96.5532L111.241 93.9362L111.583 93.0483C111.583 93.0483 129.816 95.037 138.988 93.121C139.143 93.0898 139.293 93.0586 139.444 93.0223C139.407 92.8198 139.397 92.6121 139.34 92.4148C134.482 75.8509 139.796 72.6732 141.575 70.3625C141.575 70.3625 149.901 90.4936 146.261 100.93L146.256 100.925Z" fill="#55C1F2"/>
<path d="M143.28 95.8002C143.228 95.8262 143.166 95.8366 143.109 95.8366C142.964 95.8366 142.829 95.7587 142.762 95.6185C142.067 94.1957 139.708 93.3442 138.982 93.1157C139.138 93.0846 139.288 93.0534 139.439 93.0171C139.402 92.8146 139.366 92.6121 139.335 92.4095C140.258 92.7159 142.663 93.6453 143.462 95.281C143.555 95.4731 143.477 95.7067 143.285 95.8002H143.28Z" fill="#5E47D2"/>
<path d="M117.742 95.1045C114.02 95.1045 110.997 94.8916 110.738 94.8709C110.525 94.8553 110.365 94.6684 110.38 94.4555C110.396 94.2426 110.582 94.0816 110.795 94.0972C110.935 94.1076 124.611 95.0786 130.003 92.8874C130.2 92.8043 130.428 92.9029 130.511 93.1002C130.594 93.2976 130.496 93.526 130.299 93.6091C127.312 94.8241 122.061 95.1097 117.747 95.1097L117.742 95.1045Z" fill="#5E47D2"/>
<path d="M124.368 102.556C127.489 101.694 130.324 100.853 131.963 100.328C134.239 99.596 136.121 97.2957 136.976 95.3382C137.059 95.1408 137.292 95.0526 137.489 95.1357C137.686 95.2187 137.774 95.4524 137.691 95.6497C136.769 97.7682 134.71 100.266 132.206 101.071C131.019 101.455 129.205 101.995 127.105 102.597C126.213 102.852 125.259 102.836 124.373 102.556H124.368Z" fill="#5E47D2"/>
<path d="M132.777 99.8815C104.594 109.389 95.9262 103.168 95.9262 103.168C94.0288 85.9866 101.022 70.5339 101.022 70.5339C103.086 73.9454 105.424 79.8959 105.424 79.8959L106.041 93.0691L105.994 93.4325L105.974 93.6039L105.859 94.5022V94.5177C105.917 94.5281 105.979 94.5437 106.036 94.5541C114.559 96.3559 130.148 94.3412 130.148 94.3412L132.777 99.8711V99.8815Z" fill="#55C1F2"/>
<path d="M106.036 94.5645C104.517 95.8418 103.07 97.3113 101.779 99.004C101.65 99.1754 101.406 99.2065 101.235 99.0767C101.064 98.9469 101.033 98.7028 101.162 98.5315C102.609 96.6259 104.252 94.9955 105.974 93.6039L105.859 94.5022V94.5177C105.917 94.5281 105.979 94.5437 106.036 94.5541V94.5645Z" fill="#5E47D2"/>
<path d="M130.148 94.3516C130.148 94.3516 133.269 87.2536 138.013 87.8871L139.444 93.0172C136.846 94.1232 136.468 98.5783 132.782 99.8816L130.153 94.3516H130.148Z" fill="#FFA681"/>
<path d="M111.583 93.0483C111.583 93.0483 109.613 88.4166 104.429 87.0718C99.2442 85.7269 95.9418 88.1726 95.5893 89.0968C95.2419 90.0211 97.5438 89.1384 97.5438 89.1384C97.5438 89.1384 96.0455 89.5641 95.1849 90.9765C94.3243 92.3888 97.2794 90.8674 97.2794 90.8674C97.2794 90.8674 95.159 91.7969 94.8894 92.6588C94.6198 93.5208 97.4141 92.0617 97.943 92.0928C97.943 92.0928 95.4493 93.0846 95.4648 93.9777C95.4804 94.8656 98.3318 93.4169 100.463 93.5312C102.593 93.6454 105.854 94.5281 105.854 94.5281C107.596 94.8604 109.26 95.1045 110.769 95.1772L111.588 93.0535L111.583 93.0483Z" fill="#FFA681"/>
<path d="M161.654 21.0293C159.735 21.0293 158.175 19.4663 158.175 17.5452C158.175 15.624 159.735 14.061 161.654 14.061C163.572 14.061 165.132 15.624 165.132 17.5452C165.132 19.4663 163.572 21.0293 161.654 21.0293ZM161.654 15.1514C160.337 15.1514 159.264 16.2263 159.264 17.5452C159.264 18.864 160.337 19.9389 161.654 19.9389C162.97 19.9389 164.044 18.864 164.044 17.5452C164.044 16.2263 162.97 15.1514 161.654 15.1514Z" fill="#E0E0E0"/>
<path d="M192.024 15.11C190.105 15.11 188.545 13.547 188.545 11.6258C188.545 9.70464 190.105 8.14172 192.024 8.14172C193.942 8.14172 195.502 9.70464 195.502 11.6258C195.502 13.547 193.942 15.11 192.024 15.11ZM192.024 9.23213C190.707 9.23213 189.634 10.307 189.634 11.6258C189.634 12.9447 190.707 14.0195 192.024 14.0195C193.34 14.0195 194.414 12.9447 194.414 11.6258C194.414 10.307 193.34 9.23213 192.024 9.23213Z" fill="#E0E0E0"/>
<path d="M196.321 26.4346C196.021 26.4346 195.777 26.1906 195.777 25.8894V23.4801C195.777 23.179 196.021 22.9349 196.321 22.9349C196.622 22.9349 196.866 23.179 196.866 23.4801V25.8894C196.866 26.1906 196.622 26.4346 196.321 26.4346Z" fill="#E0E0E0"/>
<path d="M196.321 30.6561C196.021 30.6561 195.777 30.412 195.777 30.1109V27.7016C195.777 27.4004 196.021 27.1564 196.321 27.1564C196.622 27.1564 196.866 27.4004 196.866 27.7016V30.1109C196.866 30.412 196.622 30.6561 196.321 30.6561Z" fill="#E0E0E0"/>
<path d="M199.702 27.3433H197.54C197.239 27.3433 196.995 27.0993 196.995 26.7981C196.995 26.497 197.239 26.2529 197.54 26.2529H199.702C200.002 26.2529 200.246 26.497 200.246 26.7981C200.246 27.0993 200.002 27.3433 199.702 27.3433Z" fill="#E0E0E0"/>
<path d="M195.103 27.3433H192.941C192.641 27.3433 192.397 27.0993 192.397 26.7981C192.397 26.497 192.641 26.2529 192.941 26.2529H195.103C195.404 26.2529 195.647 26.497 195.647 26.7981C195.647 27.0993 195.404 27.3433 195.103 27.3433Z" fill="#E0E0E0"/>
<path d="M177.938 11.8283C177.637 11.8283 177.393 11.5843 177.393 11.2831V8.87382C177.393 8.57266 177.637 8.32861 177.938 8.32861C178.238 8.32861 178.482 8.57266 178.482 8.87382V11.2831C178.482 11.5843 178.238 11.8283 177.938 11.8283Z" fill="#E0E0E0"/>
<path d="M177.938 16.0497C177.637 16.0497 177.393 15.8057 177.393 15.5045V13.0953C177.393 12.7941 177.637 12.55 177.938 12.55C178.238 12.55 178.482 12.7941 178.482 13.0953V15.5045C178.482 15.8057 178.238 16.0497 177.938 16.0497Z" fill="#E0E0E0"/>
<path d="M181.318 12.7318H179.156C178.855 12.7318 178.612 12.4877 178.612 12.1866C178.612 11.8854 178.855 11.6414 179.156 11.6414H181.318C181.619 11.6414 181.862 11.8854 181.862 12.1866C181.862 12.4877 181.619 12.7318 181.318 12.7318Z" fill="#E0E0E0"/>
<path d="M176.719 12.7318H174.557C174.257 12.7318 174.013 12.4877 174.013 12.1866C174.013 11.8854 174.257 11.6414 174.557 11.6414H176.719C177.02 11.6414 177.264 11.8854 177.264 12.1866C177.264 12.4877 177.02 12.7318 176.719 12.7318Z" fill="#E0E0E0"/>
<path d="M37.2445 8.69725C37.2445 6.77606 38.805 5.21313 40.7232 5.21313C42.6414 5.21313 44.2019 6.77606 44.2019 8.69725C44.2019 10.6185 42.6414 12.1814 40.7232 12.1814C38.805 12.1814 37.2445 10.6185 37.2445 8.69725ZM38.3384 8.69725C38.3384 10.0161 39.4115 11.091 40.7284 11.091C42.0452 11.091 43.1184 10.0161 43.1184 8.69725C43.1184 7.37838 42.0452 6.30354 40.7284 6.30354C39.4115 6.30354 38.3384 7.37838 38.3384 8.69725Z" fill="#E0E0E0"/>
<path d="M23.2674 21.9847C23.2674 20.0635 24.8279 18.5006 26.7461 18.5006C28.6643 18.5006 30.2248 20.0635 30.2248 21.9847C30.2248 23.9059 28.6643 25.4688 26.7461 25.4688C24.8279 25.4688 23.2674 23.9059 23.2674 21.9847ZM24.3613 21.9847C24.3613 23.3036 25.4345 24.3784 26.7513 24.3784C28.0681 24.3784 29.1413 23.3036 29.1413 21.9847C29.1413 20.6659 28.0681 19.591 26.7513 19.591C25.4345 19.591 24.3613 20.6659 24.3613 21.9847Z" fill="#E0E0E0"/>
<path d="M16.0301 26.8812C16.3308 26.8812 16.5744 26.6371 16.5744 26.336V23.9267C16.5744 23.6255 16.3308 23.3815 16.0301 23.3815C15.7294 23.3815 15.4857 23.6255 15.4857 23.9267V26.336C15.4857 26.6371 15.7294 26.8812 16.0301 26.8812Z" fill="#E0E0E0"/>
<path d="M16.0301 31.0975C16.3308 31.0975 16.5744 30.8534 16.5744 30.5523V28.143C16.5744 27.8418 16.3308 27.5978 16.0301 27.5978C15.7294 27.5978 15.4857 27.8418 15.4857 28.143V30.5523C15.4857 30.8534 15.7294 31.0975 16.0301 31.0975Z" fill="#E0E0E0"/>
<path d="M12.6499 27.7846H14.8117C15.1124 27.7846 15.3561 27.5406 15.3561 27.2394C15.3561 26.9383 15.1124 26.6942 14.8117 26.6942H12.6499C12.3492 26.6942 12.1055 26.9383 12.1055 27.2394C12.1055 27.5406 12.3492 27.7846 12.6499 27.7846Z" fill="#E0E0E0"/>
<path d="M17.2484 27.7846H19.4103C19.711 27.7846 19.9546 27.5406 19.9546 27.2394C19.9546 26.9383 19.711 26.6942 19.4103 26.6942H17.2484C16.9477 26.6942 16.704 26.9383 16.704 27.2394C16.704 27.5406 16.9477 27.7846 17.2484 27.7846Z" fill="#E0E0E0"/>
<path d="M28.6125 8.34418C28.9132 8.34418 29.1569 8.10013 29.1569 7.79897V5.38969C29.1569 5.08853 28.9132 4.84448 28.6125 4.84448C28.3118 4.84448 28.0681 5.08853 28.0681 5.38969V7.79897C28.0681 8.10013 28.3118 8.34418 28.6125 8.34418Z" fill="#E0E0E0"/>
<path d="M28.6125 12.5605C28.9132 12.5605 29.1569 12.3164 29.1569 12.0153V9.606C29.1569 9.30483 28.9132 9.06079 28.6125 9.06079C28.3118 9.06079 28.0681 9.30483 28.0681 9.606V12.0153C28.0681 12.3164 28.3118 12.5605 28.6125 12.5605Z" fill="#E0E0E0"/>
<path d="M25.2323 9.24764H27.3942C27.6949 9.24764 27.9386 9.00359 27.9386 8.70243C27.9386 8.40127 27.6949 8.15723 27.3942 8.15723H25.2323C24.9316 8.15723 24.688 8.40127 24.688 8.70243C24.688 9.00359 24.9316 9.24764 25.2323 9.24764Z" fill="#E0E0E0"/>
<path d="M29.8309 9.24764H31.9927C32.2934 9.24764 32.5371 9.00359 32.5371 8.70243C32.5371 8.40127 32.2934 8.15723 31.9927 8.15723H29.8309C29.5302 8.15723 29.2865 8.40127 29.2865 8.70243C29.2865 9.00359 29.5302 9.24764 29.8309 9.24764Z" fill="#E0E0E0"/>
<path d="M132.704 8.95177C132.642 8.95696 132.575 8.95177 132.512 8.92581C131.849 8.64542 131.46 8.51561 131.46 8.51561C131.258 8.4481 131.149 8.23002 131.216 8.02233C131.284 7.81982 131.501 7.71078 131.709 7.77828C131.724 7.78347 132.123 7.91848 132.818 8.20925C133.015 8.29233 133.108 8.5208 133.026 8.71811C132.969 8.85311 132.844 8.94138 132.709 8.95177H132.704Z" fill="#E0E0E0"/>
<path d="M152.457 29.7734C152.721 30.4796 152.965 31.2065 153.193 31.9334C153.25 32.1152 153.421 32.2242 153.602 32.2034C153.628 32.2034 153.649 32.1982 153.675 32.1879C153.877 32.1256 153.996 31.9075 153.929 31.705C153.701 30.9625 153.447 30.2199 153.182 29.5034C153.11 29.3009 152.887 29.2022 152.685 29.2749C152.482 29.3528 152.384 29.5761 152.457 29.7734Z" fill="#E0E0E0"/>
<path d="M153.799 34.135C153.976 34.8619 154.136 35.6148 154.276 36.3677C154.312 36.5702 154.499 36.7052 154.696 36.6844C154.707 36.6844 154.717 36.6844 154.727 36.6844C154.94 36.6429 155.075 36.4404 155.038 36.2327C154.898 35.4642 154.732 34.7009 154.551 33.9584C154.499 33.7507 154.292 33.6209 154.084 33.6728C153.877 33.7248 153.747 33.9324 153.799 34.1401V34.135Z" fill="#E0E0E0"/>
<path d="M155.432 45.8595C155.624 45.8388 155.775 45.6778 155.78 45.4805C155.79 44.7016 155.785 43.9176 155.764 43.1595C155.759 42.9466 155.578 42.7752 155.365 42.7856C155.147 42.7908 154.981 42.9725 154.992 43.1854C155.012 43.9383 155.018 44.7068 155.007 45.4753C155.007 45.6882 155.173 45.8647 155.391 45.8699C155.406 45.8699 155.422 45.8699 155.438 45.8699L155.432 45.8595Z" fill="#E0E0E0"/>
<path d="M154.961 38.1903C154.748 38.2162 154.598 38.4135 154.629 38.6264C154.675 38.9795 154.717 39.3326 154.753 39.6805C154.795 40.0803 154.831 40.4905 154.867 40.9007C154.883 41.1136 155.069 41.2746 155.282 41.259H155.292C155.5 41.2382 155.655 41.0513 155.64 40.8436C155.609 40.4282 155.567 40.0128 155.526 39.6026C155.489 39.2495 155.448 38.8861 155.401 38.5278C155.375 38.3201 155.183 38.1695 154.976 38.1903H154.966H154.961Z" fill="#E0E0E0"/>
<path d="M151.596 27.6652C151.669 27.821 151.829 27.9092 151.99 27.8937C152.031 27.8937 152.068 27.8781 152.109 27.8625C152.306 27.7742 152.394 27.5458 152.306 27.3484C151.99 26.6423 151.648 25.9361 151.29 25.2507C151.192 25.0586 150.958 24.9859 150.766 25.0897C150.575 25.1884 150.502 25.4221 150.606 25.6142C150.958 26.284 151.29 26.9746 151.601 27.6652H151.596Z" fill="#E0E0E0"/>
<path d="M134.57 9.88637C135.234 10.2291 135.908 10.5977 136.566 10.9872C136.639 11.0339 136.722 11.0495 136.805 11.0391C136.924 11.0287 137.033 10.9612 137.1 10.8522C137.209 10.6652 137.147 10.4316 136.966 10.3225C136.292 9.92271 135.607 9.54367 134.928 9.19577C134.736 9.09712 134.503 9.175 134.405 9.36712C134.306 9.55924 134.384 9.7929 134.576 9.89156L134.57 9.88637Z" fill="#E0E0E0"/>
<path d="M140.346 13.5418C140.429 13.6041 140.527 13.6301 140.621 13.6197C140.724 13.6093 140.823 13.5574 140.89 13.4691C141.02 13.2978 140.989 13.0537 140.818 12.9239C140.206 12.4566 139.568 11.9997 138.931 11.5635C138.754 11.4441 138.511 11.4908 138.391 11.6673C138.272 11.8439 138.319 12.0879 138.495 12.2073C139.122 12.6331 139.744 13.0797 140.346 13.5418Z" fill="#E0E0E0"/>
<path d="M146.863 19.8974C146.951 20.0064 147.08 20.0532 147.205 20.0428C147.277 20.0376 147.345 20.0064 147.407 19.9597C147.573 19.8247 147.599 19.5807 147.469 19.4145C146.987 18.8122 146.479 18.2151 145.961 17.6439C145.815 17.4829 145.572 17.4725 145.411 17.6179C145.25 17.7633 145.24 18.0074 145.385 18.1683C145.893 18.7291 146.391 19.3159 146.863 19.9026V19.8974Z" fill="#E0E0E0"/>
<path d="M143.799 16.5223C143.887 16.6054 144.001 16.6417 144.11 16.6314C144.198 16.621 144.281 16.5846 144.348 16.5171C144.499 16.3613 144.493 16.1173 144.343 15.9667C143.793 15.4319 143.213 14.9023 142.627 14.3934C142.466 14.2532 142.217 14.274 142.083 14.435C141.943 14.5959 141.963 14.84 142.124 14.9802C142.7 15.4786 143.265 15.9979 143.804 16.5223H143.799Z" fill="#E0E0E0"/>
<path d="M149.476 23.6307C149.558 23.7605 149.704 23.828 149.849 23.8124C149.906 23.8072 149.958 23.7865 150.01 23.7553C150.191 23.6411 150.248 23.4022 150.139 23.2205C149.735 22.5611 149.31 21.9068 148.864 21.2733C148.739 21.0968 148.501 21.0552 148.325 21.1799C148.148 21.3045 148.107 21.5433 148.231 21.7199C148.667 22.3378 149.087 22.9816 149.481 23.6255L149.476 23.6307Z" fill="#E0E0E0"/>
<path d="M132.694 6.29322L134.389 0L113.605 0.176542L132.694 6.29322Z" fill="#FFC457"/>
<path d="M113.605 0.176514L131.683 7.81457L131.735 7.83534L132.512 9.12306L132.694 6.29319L113.605 0.176514Z" fill="#E0E0E0"/>
<path d="M132.512 9.12305L130.827 8.85823L131.735 7.83533L132.512 9.12305Z" fill="#E0E0E0"/>
<path d="M129.459 6.87474L131.735 7.83534L127.048 13.1212L113.605 0.176514L129.459 6.87474Z" fill="#FFC457"/>
<path d="M153.105 116.051H88.6163C87.0759 116.051 85.8271 117.301 85.8271 118.844V152.636C85.8271 154.179 87.0759 155.43 88.6163 155.43H153.105C154.645 155.43 155.894 154.179 155.894 152.636V118.844C155.894 117.301 154.645 116.051 153.105 116.051Z" fill="#18315B"/>
<path d="M126.286 155.388H115.435V167.778H126.286V155.388Z" fill="#000B29"/>
<path d="M120.739 141.618C123.714 141.618 126.125 139.203 126.125 136.223C126.125 133.244 123.714 130.828 120.739 130.828C117.764 130.828 115.352 133.244 115.352 136.223C115.352 139.203 117.764 141.618 120.739 141.618Z" fill="#1D567E"/>
<path d="M110.137 163.38H131.237C133.14 163.38 134.685 164.927 134.685 166.833V167.778H106.694V166.833C106.694 164.927 108.239 163.38 110.142 163.38H110.137Z" fill="#18315B"/>
</g>
<defs>
<clipPath id="clip0_32_1440">
<rect width="240.217" height="170" fill="white"/>
</clipPath>
</defs>
</svg>
